SplineFontDB: 3.0
FontName: Aiton_Unicode
FullName: Aiton_Unicode
FamilyName: Aiton_Unicode
Weight: Medium
Copyright: Created by Stephen Morey,U-STEPHENMOREY\\Stephen Morey,S-1-5-2 with FontForge 2.0 (http://fontforge.sf.net)
Version: 001.000
ItalicAngle: 0
UnderlinePosition: -100
UnderlineWidth: 50
Ascent: 800
Descent: 200
sfntRevision: 0x00010000
LayerCount: 2
Layer: 0 1 "Back"  1
Layer: 1 1 "Fore"  0
XUID: [1021 472 -484738075 11034713]
FSType: 0
OS2Version: 1
OS2_WeightWidthSlopeOnly: 0
OS2_UseTypoMetrics: 1
CreationTime: 1257921800
ModificationTime: 1259041918
PfmFamily: 17
TTFWeight: 500
TTFWidth: 5
LineGap: 90
VLineGap: 0
Panose: 2 0 6 3 0 0 0 0 0 0
OS2TypoAscent: 800
OS2TypoAOffset: 0
OS2TypoDescent: -200
OS2TypoDOffset: 0
OS2TypoLinegap: 90
OS2WinAscent: 1690
OS2WinAOffset: 0
OS2WinDescent: 954
OS2WinDOffset: 0
HheadAscent: 1690
HheadAOffset: 0
HheadDescent: -954
HheadDOffset: 0
OS2SubXSize: 650
OS2SubYSize: 699
OS2SubXOff: 0
OS2SubYOff: 140
OS2SupXSize: 650
OS2SupYSize: 699
OS2SupXOff: 0
OS2SupYOff: 479
OS2StrikeYSize: 49
OS2StrikeYPos: 258
OS2Vendor: 'PfEd'
OS2CodePages: 00000001.00000000
OS2UnicodeRanges: 80000000.00002000.00000400.00000000
Lookup: 2 0 0 "Multiple Substitution lookup 0"  {"Multiple Substitution lookup 0 subtable"  } []
Lookup: 2 0 0 "Multiple Substitution lookup 1"  {"Multiple Substitution lookup 1 subtable"  } []
Lookup: 2 0 0 "Multiple Substitution lookup 2"  {"Multiple Substitution lookup 2 subtable"  } []
Lookup: 4 0 0 "'clig' Contextual Ligatures lookup 3"  {"'clig' Contextual Ligatures lookup 3 subtable"  } ['clig' ('DFLT' <'dflt' > 'geor' <'dflt' > 'mymr' <'dflt' > ) ]
Lookup: 6 0 0 "'clig' Contextual Ligatures lookup 4"  {"'clig' Contextual Ligatures lookup 4 subtable"  } ['clig' ('DFLT' <'dflt' > 'geor' <'dflt' > 'mymr' <'dflt' > ) ]
Lookup: 4 0 0 "'clig' Contextual Ligatures lookup 5"  {"'clig' Contextual Ligatures lookup 5 subtable"  } ['clig' ('DFLT' <'dflt' > 'geor' <'dflt' > 'mymr' <'dflt' > ) ]

StartChar: .notdef
Encoding: 65536 -1 0
Width: 364
Flags: W
LayerCount: 2
Fore
SplineSet
33 0 m 1,0,-1
 33 666 l 1,1,-1
 298 666 l 1,2,-1
 298 0 l 1,3,-1
 33 0 l 1,0,-1
66 33 m 1,4,-1
 265 33 l 1,5,-1
 265 633 l 1,6,-1
 66 633 l 1,7,-1
 66 33 l 1,4,-1
EndSplineSet
EndChar

StartChar: u1000
Encoding: 4096 4096 3
Width: 1527
GlyphClass: 3
Flags: W
AnchorPoint: "Anchor-3" 1072 694 basechar 0
AnchorPoint: "Anchor-2" 740 0 basechar 0
AnchorPoint: "Anchor-1" 1207 -8 basechar 0
AnchorPoint: "Anchor-0" 1313 0 basechar 0
LayerCount: 2
Fore
SplineSet
1276 -2 m 1,0,1
 1268 -7 1268 -7 1264.5 -3.5 c 128,-1,2
 1261 0 1261 0 1250 0 c 0,3,4
 1167 0 1167 0 1148 17 c 0,5,6
 1110 50 1110 50 1110 99 c 0,7,8
 1110 154 1110 154 1148 183 c 0,9,10
 1178 207 1178 207 1215 207 c 0,11,12
 1247 207 1247 207 1272 191 c 0,13,14
 1294 178 1294 178 1314 150 c 1,15,16
 1338 192 1338 192 1350 240 c 1,17,-1
 1358 279 l 1,18,-1
 1358 346 l 2,19,20
 1358 469 1358 469 1270 557 c 128,-1,21
 1182 645 1182 645 1067 645 c 2,22,-1
 1030 645 l 1,23,-1
 1002 640 l 1,24,25
 991 640 991 640 961.5 626 c 128,-1,26
 932 612 932 612 867 565 c 1,27,28
 807 523 807 523 783 370 c 0,29,30
 771 289 771 289 771 153 c 1,31,-1
 736 153 l 1,32,-1
 739 154 l 1,33,-1
 729 156 l 1,34,-1
 726 268 l 1,35,-1
 723 311 l 1,36,-1
 716 362 l 1,37,38
 692 511 692 511 624 567 c 0,39,40
 583 602 583 602 529 632 c 1,41,42
 500 643 500 643 473 650 c 1,43,44
 457 653 457 653 445 655 c 128,-1,45
 433 657 433 657 420 657 c 0,46,47
 304 657 304 657 216.5 569.5 c 128,-1,48
 129 482 129 482 129 358 c 2,49,-1
 129 291 l 1,50,-1
 137 252 l 1,51,-1
 152 214 l 1,52,-1
 177 177 l 1,53,-1
 219 205 l 1,54,55
 244 219 244 219 261 219 c 0,56,57
 287 219 287 219 328 195 c 1,58,59
 366 165 366 165 366 111 c 0,60,61
 366 63 366 63 328 29 c 0,62,63
 322 23 322 23 295 7 c 1,64,-1
 261 0 l 1,65,66
 216 0 216 0 201 9 c 1,67,-1
 165 42 l 2,68,69
 156 50 156 50 138 78 c 1,70,-1
 117 113 l 1,71,72
 93 148 93 148 74 229 c 1,73,-1
 63 295 l 1,74,-1
 59 358 l 1,75,76
 59 489 59 489 164 607 c 128,-1,77
 269 725 269 725 420 725 c 0,78,79
 516 725 516 725 602.5 670.5 c 128,-1,80
 689 616 689 616 750 516 c 1,81,82
 761 544 761 544 798 593 c 1,83,84
 817 615 817 615 877 664 c 1,85,-1
 928 685 l 1,86,-1
 975 700 l 1,87,-1
 1025 708 l 1,88,-1
 1067 713 l 1,89,90
 1211 713 1211 713 1319 598.5 c 128,-1,91
 1427 484 1427 484 1427 346 c 1,92,-1
 1423 283 l 1,93,-1
 1413 217 l 1,94,95
 1396 144 1396 144 1370 100 c 1,96,97
 1337 49 1337 49 1313 31 c 1,98,-1
 1276 -2 l 1,0,1
EndSplineSet
Ligature2: "'clig' Contextual Ligatures lookup 7 subtable" u1000 u103C
Ligature2: "'clig' Contextual Ligatures lookup 5 subtable" u1000 u1031
MultipleSubs2: "Multiple Substitution lookup 2 subtable" guard u103C u1000
MultipleSubs2: "Multiple Substitution lookup 1 subtable" guard u103C.udia u1000
MultipleSubs2: "Multiple Substitution lookup 0 subtable" guard u1031 u1000
EndChar

StartChar: u1004
Encoding: 4100 4100 4
Width: 673
GlyphClass: 3
Flags: W
AnchorPoint: "Anchor-3" 382 694 basechar 0
AnchorPoint: "Anchor-2" 370 0 basechar 0
AnchorPoint: "Anchor-1" 370 0 basechar 0
LayerCount: 2
Fore
SplineSet
621 57 m 1,0,1
 615 46 615 46 586 28 c 1,2,-1
 530 14 l 1,3,-1
 483 4 l 1,4,-1
 428 0 l 1,5,6
 353 -2 353 -2 293.5 23 c 128,-1,7
 234 48 234 48 168 102 c 1,8,9
 117 152 117 152 87 216 c 1,10,11
 73 250 73 250 66 283 c 1,12,-1
 61 317 l 1,13,-1
 59 356 l 1,14,15
 59 503 59 503 164 614 c 0,16,17
 218 671 218 671 278 698 c 0,18,19
 309 712 309 712 340 719 c 0,20,21
 356 722 356 722 372 724 c 128,-1,22
 388 726 388 726 408 726 c 0,23,24
 434 726 434 726 461 696 c 1,25,26
 469 685 469 685 476.5 664.5 c 128,-1,27
 484 644 484 644 484 626 c 0,28,29
 484 592 484 592 479 584 c 1,30,31
 479 579 479 579 461 543 c 1,32,33
 441 515 441 515 390 484 c 1,34,35
 348 466 348 466 305 466 c 0,36,37
 294 466 294 466 269.5 472 c 128,-1,38
 245 478 245 478 225 501.5 c 128,-1,39
 205 525 205 525 198 525 c 0,40,41
 171 525 171 525 150 473.5 c 128,-1,42
 129 422 129 422 129 356 c 0,43,44
 129 247 129 247 215 152 c 1,45,46
 301 68 301 68 428 68 c 1,47,-1
 481 69 l 1,48,-1
 519 76 l 2,49,50
 562 84 562 84 591 108 c 1,51,-1
 612 89 l 1,52,-1
 616 81 l 1,53,-1
 623 68 l 1,54,-1
 621 57 l 1,0,1
EndSplineSet
Ligature2: "'clig' Contextual Ligatures lookup 7 subtable" u1004 u103C
Ligature2: "'clig' Contextual Ligatures lookup 5 subtable" u1004 u1031
MultipleSubs2: "Multiple Substitution lookup 2 subtable" guard u103C.nar u1004
MultipleSubs2: "Multiple Substitution lookup 1 subtable" guard u103C.nar.udia u1004
MultipleSubs2: "Multiple Substitution lookup 0 subtable" guard u1031 u1004
EndChar

StartChar: u1010
Encoding: 4112 4112 5
Width: 1497
GlyphClass: 3
Flags: W
AnchorPoint: "Anchor-3" 1084 694 basechar 0
AnchorPoint: "Anchor-2" 744 0 basechar 0
AnchorPoint: "Anchor-1" 1144 0 basechar 0
LayerCount: 2
Fore
SplineSet
1024 8 m 1,0,-1
 997 18 l 1,1,-1
 977 51 l 2,2,3
 969 65 969 65 969 86 c 0,4,5
 969 97 969 97 978 115.5 c 128,-1,6
 987 134 987 134 1009 158 c 1,7,8
 1018 164 1018 164 1031 167 c 1,9,-1
 1051 170 l 1,10,11
 1073 170 1073 170 1087 159 c 1,12,13
 1102 150 1102 150 1115 131 c 1,14,-1
 1118 116 l 1,15,-1
 1120 90 l 1,16,-1
 1120 73 l 1,17,-1
 1119 63 l 1,18,19
 1149 63 1149 63 1180.5 75 c 128,-1,20
 1212 87 1212 87 1280 154 c 0,21,22
 1370 241 1370 241 1370 365 c 0,23,24
 1370 488 1370 488 1280 569 c 1,25,26
 1197 657 1197 657 1075 657 c 0,27,28
 958 657 958 657 870 569 c 128,-1,29
 782 481 782 481 782 358 c 0,30,31
 782 193 782 193 662 88 c 1,32,-1
 616 59 l 1,33,-1
 550 23 l 1,34,-1
 524 14 l 1,35,-1
 484 5 l 1,36,-1
 448 0 l 1,37,-1
 426 0 l 2,38,39
 285 0 285 0 172 102.5 c 128,-1,40
 59 205 59 205 59 358 c 0,41,42
 59 489 59 489 164 607 c 128,-1,43
 269 725 269 725 420 725 c 0,44,45
 516 725 516 725 602.5 670.5 c 128,-1,46
 689 616 689 616 750 516 c 1,47,48
 761 544 761 544 798 593 c 1,49,50
 817 615 817 615 877 664 c 1,51,52
 978 725 978 725 1075 725 c 0,53,54
 1213 725 1213 725 1325.5 622.5 c 128,-1,55
 1438 520 1438 520 1438 365 c 0,56,57
 1438 224 1438 224 1335 112 c 128,-1,58
 1232 0 1232 0 1079 0 c 1,59,-1
 1057 2 l 1,60,-1
 1024 8 l 1,0,-1
715 365 m 0,61,62
 715 481 715 481 627 569 c 0,63,64
 581 615 581 615 532 635 c 1,65,-1
 479 651 l 1,66,67
 452 657 452 657 420 657 c 0,68,69
 303 657 303 657 215 569 c 0,70,71
 208 562 208 562 162 493 c 1,72,73
 135 442 135 442 129 408 c 1,74,75
 177 468 177 468 231 468 c 0,76,77
 268 468 268 468 297 443 c 1,78,79
 335 413 335 413 335 358 c 0,80,81
 335 310 335 310 297 276 c 0,82,83
 291 270 291 270 264 254 c 1,84,-1
 230 247 l 1,85,86
 185 247 185 247 170 256 c 1,87,-1
 134 289 l 1,88,-1
 167 222 l 1,89,-1
 190 185 l 1,90,-1
 215 154 l 1,91,92
 296 68 296 68 426 68 c 0,93,94
 543 68 543 68 629 154 c 128,-1,95
 715 240 715 240 715 365 c 0,61,62
EndSplineSet
Ligature2: "'clig' Contextual Ligatures lookup 7 subtable" u1010 u103C
Ligature2: "'clig' Contextual Ligatures lookup 5 subtable" u1010 u1031
MultipleSubs2: "Multiple Substitution lookup 2 subtable" guard u103C u1010
MultipleSubs2: "Multiple Substitution lookup 1 subtable" guard u103C.udia u1010
MultipleSubs2: "Multiple Substitution lookup 0 subtable" guard u1031 u1010
EndChar

StartChar: u1011
Encoding: 4113 4113 6
Width: 1497
GlyphClass: 3
Flags: W
AnchorPoint: "Anchor-3" 1080 694 basechar 0
AnchorPoint: "Anchor-2" 744 0 basechar 0
AnchorPoint: "Anchor-1" 1080 0 basechar 0
LayerCount: 2
Fore
SplineSet
1370 365 m 0,0,1
 1370 488 1370 488 1280 569 c 1,2,3
 1197 657 1197 657 1075 657 c 0,4,5
 958 657 958 657 870 569 c 128,-1,6
 782 481 782 481 782 358 c 0,7,8
 782 236 782 236 870 154 c 1,9,10
 953 68 953 68 1079 68 c 0,11,12
 1191 68 1191 68 1280.5 154.5 c 128,-1,13
 1370 241 1370 241 1370 365 c 0,0,1
750 516 m 1,14,15
 761 544 761 544 798 593 c 1,16,17
 817 615 817 615 877 664 c 1,18,19
 978 725 978 725 1075 725 c 0,20,21
 1213 725 1213 725 1325.5 622.5 c 128,-1,22
 1438 520 1438 520 1438 365 c 0,23,24
 1438 224 1438 224 1335 112 c 128,-1,25
 1232 0 1232 0 1079 0 c 0,26,27
 1031 0 1031 0 976.5 12 c 128,-1,28
 922 24 922 24 881 53 c 1,29,30
 815 94 815 94 750 207 c 1,31,32
 708 120 708 120 614 57 c 1,33,34
 521 0 521 0 426 0 c 0,35,36
 285 0 285 0 172 102.5 c 128,-1,37
 59 205 59 205 59 358 c 0,38,39
 59 489 59 489 164 607 c 128,-1,40
 269 725 269 725 420 725 c 0,41,42
 516 725 516 725 602.5 670.5 c 128,-1,43
 689 616 689 616 750 516 c 1,14,15
141 444 m 1,44,-1
 176 472 l 1,45,46
 198 486 198 486 225 486 c 0,47,48
 255 486 255 486 295.5 449.5 c 128,-1,49
 336 413 336 413 336 360 c 0,50,51
 336 311 336 311 299.5 272.5 c 128,-1,52
 263 234 263 234 228 234 c 0,53,54
 182 234 182 234 174 242 c 2,55,-1
 144 273 l 1,56,-1
 162 230 l 1,57,58
 194 174 194 174 215 154 c 1,59,60
 296 68 296 68 426 68 c 0,61,62
 543 68 543 68 629 154 c 128,-1,63
 715 240 715 240 715 365 c 0,64,65
 715 481 715 481 627 569 c 0,66,67
 581 615 581 615 532 635 c 1,68,-1
 479 651 l 1,69,70
 452 657 452 657 420 657 c 0,71,72
 303 657 303 657 215 569 c 0,73,74
 171 525 171 525 141 444 c 1,44,-1
EndSplineSet
Ligature2: "'clig' Contextual Ligatures lookup 7 subtable" u1011 u103C
Ligature2: "'clig' Contextual Ligatures lookup 5 subtable" u1011 u1031
MultipleSubs2: "Multiple Substitution lookup 2 subtable" guard u103C u1011
MultipleSubs2: "Multiple Substitution lookup 1 subtable" guard u103C.udia u1011
MultipleSubs2: "Multiple Substitution lookup 0 subtable" guard u1031 u1011
EndChar

StartChar: u1015
Encoding: 4117 4117 7
Width: 928
GlyphClass: 3
Flags: W
AnchorPoint: "Anchor-3" 468 694 basechar 0
AnchorPoint: "Anchor-2" 471 0 basechar 0
AnchorPoint: "Anchor-1" 471 0 basechar 0
AnchorPoint: "Anchor-0" 753 0 basechar 0
LayerCount: 2
Fore
SplineSet
231 678 m 1,0,-1
 265 688 l 1,1,2
 293 688 293 688 332 667 c 1,3,4
 370 640 370 640 370 591 c 0,5,6
 370 555 370 555 333 517 c 1,7,8
 301 491 301 491 265 491 c 0,9,10
 222 491 222 491 214 499 c 2,11,-1
 185 528 l 1,12,13
 144 449 144 449 144 358 c 0,14,15
 144 291 144 291 163.5 243 c 128,-1,16
 183 195 183 195 234 152 c 1,17,-1
 283 120 l 1,18,-1
 342 90 l 1,19,-1
 412 76 l 1,20,21
 448 70 448 70 471 70 c 0,22,23
 538 70 538 70 589 89 c 0,24,25
 620 100 620 100 641 114 c 1,26,-1
 692 154 l 1,27,28
 731 190 731 190 759 240 c 1,29,-1
 781 292 l 1,30,-1
 787 321 l 1,31,-1
 789 354 l 1,32,33
 789 459 789 459 739 537 c 1,34,35
 723 571 723 571 701 588 c 1,36,-1
 651 631 l 1,37,-1
 636 645 l 1,38,-1
 626 666 l 1,39,-1
 628 676 l 1,40,41
 636 688 636 688 651 694 c 1,42,-1
 683 694 l 1,43,-1
 744 641 l 1,44,-1
 768 613 l 1,45,-1
 802 573 l 1,46,-1
 823 530 l 1,47,-1
 849 467 l 1,48,-1
 860 412 l 1,49,-1
 864 373 l 1,50,-1
 865 354 l 1,51,52
 865 222 865 222 746 106 c 0,53,54
 695 56 695 56 625 28 c 1,55,56
 592 16 592 16 553 7 c 1,57,-1
 515 2 l 1,58,-1
 471 0 l 1,59,60
 388 0 388 0 322 25 c 1,61,62
 279 37 279 37 256 53 c 1,63,-1
 228 71 l 1,64,-1
 194 96 l 1,65,-1
 144 145 l 1,66,-1
 101 209 l 1,67,-1
 75 281 l 1,68,-1
 65 358 l 1,69,70
 65 418 65 418 74 468.5 c 128,-1,71
 83 519 83 519 114 560 c 2,72,-1
 180 650 l 1,73,-1
 231 678 l 1,0,-1
EndSplineSet
Ligature2: "'clig' Contextual Ligatures lookup 7 subtable" u1015 u103C
Ligature2: "'clig' Contextual Ligatures lookup 5 subtable" u1015 u1031
MultipleSubs2: "Multiple Substitution lookup 2 subtable" guard u103C.nar u1015
MultipleSubs2: "Multiple Substitution lookup 1 subtable" guard u103C.nar.udia u1015
MultipleSubs2: "Multiple Substitution lookup 0 subtable" guard u1031 u1015
EndChar

StartChar: u101A
Encoding: 4122 4122 8
Width: 1497
GlyphClass: 3
Flags: W
AnchorPoint: "Anchor-3" 1036 694 basechar 0
AnchorPoint: "Anchor-2" 752 0 basechar 0
AnchorPoint: "Anchor-1" 1076 0 basechar 0
LayerCount: 2
Fore
SplineSet
1276 717 m 1,0,1
 1249 727 1249 727 1215 727 c 128,-1,2
 1181 727 1181 727 1148 698 c 0,3,4
 1110 665 1110 665 1110 616 c 0,5,6
 1110 561 1110 561 1148 532 c 0,7,8
 1178 508 1178 508 1215 508 c 1,9,-1
 1245 511 l 1,10,11
 1261 514 1261 514 1270 522 c 1,12,13
 1284 529 1284 529 1314 565 c 1,14,15
 1338 523 1338 523 1350 475 c 1,16,-1
 1358 436 l 1,17,-1
 1358 369 l 2,18,19
 1358 246 1358 246 1270 158 c 128,-1,20
 1182 70 1182 70 1067 70 c 0,21,22
 1013 70 1013 70 968 88 c 1,23,-1
 922 112 l 1,24,-1
 867 148 l 1,25,26
 805 195 805 195 783 345 c 0,27,28
 771 426 771 426 771 562 c 1,29,-1
 736 562 l 1,30,-1
 739 561 l 1,31,-1
 729 559 l 1,32,-1
 726 446 l 1,33,-1
 725 410 l 1,34,-1
 716 353 l 2,35,36
 692 204 692 204 624 148 c 0,37,38
 583 113 583 113 529 83 c 1,39,40
 500 72 500 72 473 65 c 1,41,42
 457 62 457 62 445 60 c 128,-1,43
 433 58 433 58 420 58 c 0,44,45
 313 58 313 58 217 145 c 1,46,47
 175 189 175 189 151 241 c 1,48,-1
 136 294 l 1,49,50
 133 311 133 311 131 326 c 128,-1,51
 129 341 129 341 129 357 c 2,52,-1
 129 424 l 1,53,-1
 137 463 l 1,54,-1
 152 500 l 1,55,-1
 177 538 l 1,56,-1
 219 510 l 1,57,58
 244 496 244 496 261 496 c 0,59,60
 287 496 287 496 328 520 c 1,61,62
 366 550 366 550 366 604 c 0,63,64
 366 652 366 652 328 686 c 0,65,66
 313 700 313 700 295 707 c 1,67,-1
 278 711 l 1,68,-1
 261 715 l 1,69,70
 216 715 216 715 201 706 c 1,71,-1
 165 673 l 1,72,73
 156 667 156 667 138 637 c 2,74,-1
 117 602 l 1,75,76
 93 567 93 567 74 486 c 1,77,-1
 63 420 l 1,78,-1
 59 357 l 1,79,80
 59 225 59 225 164 107.5 c 128,-1,81
 269 -10 269 -10 420 -10 c 0,82,83
 516 -10 516 -10 603.5 44.5 c 128,-1,84
 691 99 691 99 750 199 c 1,85,86
 753 191 753 191 758.5 178.5 c 128,-1,87
 764 166 764 166 769 157 c 0,88,89
 778 140 778 140 797 120 c 1,90,-1
 832 86 l 1,91,-1
 877 51 l 1,92,-1
 975 15 l 1,93,94
 995 11 995 11 1025 6.5 c 128,-1,95
 1055 2 1055 2 1067 2 c 0,96,97
 1211 2 1211 2 1319 116 c 128,-1,98
 1427 230 1427 230 1427 369 c 1,99,-1
 1423 432 l 1,100,-1
 1413 498 l 1,101,102
 1396 571 1396 571 1370 615 c 1,103,104
 1337 666 1337 666 1313 684 c 1,105,-1
 1276 717 l 1,0,1
EndSplineSet
Ligature2: "'clig' Contextual Ligatures lookup 7 subtable" u101A u103C
Ligature2: "'clig' Contextual Ligatures lookup 5 subtable" u101A u1031
MultipleSubs2: "Multiple Substitution lookup 2 subtable" guard u103C u101A
MultipleSubs2: "Multiple Substitution lookup 1 subtable" guard u103C.udia u101A
MultipleSubs2: "Multiple Substitution lookup 0 subtable" guard u1031 u101A
EndChar

StartChar: u101C
Encoding: 4124 4124 9
Width: 1497
GlyphClass: 3
Flags: W
AnchorPoint: "Anchor-3" 1092 694 basechar 0
AnchorPoint: "Anchor-2" 744 0 basechar 0
AnchorPoint: "Anchor-1" 1080 0 basechar 0
LayerCount: 2
Fore
SplineSet
1154 648 m 1,0,-1
 1163 616 l 1,1,2
 1163 606 1163 606 1159.5 595 c 128,-1,3
 1156 584 1156 584 1142 566 c 1,4,5
 1130 548 1130 548 1104 532 c 1,6,7
 1078 518 1078 518 1047 518 c 0,8,9
 1020 518 1020 518 993.5 533 c 128,-1,10
 967 548 967 548 954 571 c 1,11,-1
 946 590 l 1,12,-1
 941 621 l 1,13,-1
 944 649 l 1,14,15
 947 665 947 665 955 674 c 1,16,17
 961 685 961 685 996 701 c 2,18,-1
 1048 726 l 1,19,-1
 1075 725 l 1,20,21
 1213 725 1213 725 1325.5 622.5 c 128,-1,22
 1438 520 1438 520 1438 365 c 0,23,24
 1438 224 1438 224 1335 112 c 128,-1,25
 1232 0 1232 0 1079 0 c 0,26,27
 953 0 953 0 846 88 c 0,28,29
 788 135 788 135 753.5 202.5 c 128,-1,30
 719 270 719 270 719 350 c 0,31,32
 719 477 719 477 631 567 c 128,-1,33
 543 657 543 657 420 657 c 0,34,35
 304 657 304 657 216.5 569.5 c 128,-1,36
 129 482 129 482 129 358 c 0,37,38
 129 307 129 307 147 250 c 1,39,40
 166 201 166 201 215 154 c 0,41,42
 225 145 225 145 287 107 c 1,43,44
 321 95 321 95 370 86 c 1,45,46
 370 129 370 129 390 158 c 1,47,48
 404 181 404 181 425.5 195 c 128,-1,49
 447 209 447 209 479 209 c 0,50,51
 503 209 503 209 527 197 c 1,52,-1
 565 156 l 1,53,-1
 575 129 l 1,54,-1
 578 103 l 1,55,56
 578 72 578 72 564 48 c 1,57,58
 552 24 552 24 534 12 c 1,59,-1
 517 3 l 1,60,-1
 495 -5 l 1,61,-1
 481 -7 l 1,62,-1
 462 -10 l 1,63,-1
 435 -7 l 1,64,-1
 416 -4 l 1,65,-1
 384 -3 l 2,66,67
 368 -3 368 -3 355 1 c 1,68,-1
 315 9 l 1,69,-1
 284 22 l 2,70,71
 269 28 269 28 225 55 c 1,72,-1
 197 76 l 1,73,-1
 168 102 l 1,74,75
 59 205 59 205 59 358 c 0,76,77
 59 489 59 489 164 607 c 128,-1,78
 269 725 269 725 420 725 c 0,79,80
 536 725 536 725 655 641 c 1,81,82
 782 535 782 535 782 358 c 0,83,84
 782 245 782 245 870 154 c 1,85,86
 962 68 962 68 1079 68 c 0,87,88
 1191 68 1191 68 1280.5 154.5 c 128,-1,89
 1370 241 1370 241 1370 365 c 0,90,91
 1370 488 1370 488 1280 569 c 1,92,93
 1259 593 1259 593 1222 615 c 1,94,95
 1190 637 1190 637 1154 648 c 1,0,-1
EndSplineSet
Ligature2: "'clig' Contextual Ligatures lookup 7 subtable" u101C u103C
Ligature2: "'clig' Contextual Ligatures lookup 5 subtable" u101C u1031
MultipleSubs2: "Multiple Substitution lookup 2 subtable" guard u103C u101C
MultipleSubs2: "Multiple Substitution lookup 1 subtable" guard u103C.udia u101C
MultipleSubs2: "Multiple Substitution lookup 0 subtable" guard u1031 u101C
EndChar

StartChar: u101D
Encoding: 4125 4125 10
Width: 844
GlyphClass: 3
Flags: W
AnchorPoint: "Anchor-3" 426 694 basechar 0
AnchorPoint: "Anchor-2" 428 0 basechar 0
AnchorPoint: "Anchor-1" 426 0 basechar 0
LayerCount: 2
Fore
SplineSet
788 365 m 0,0,1
 788 290 788 290 764 227 c 128,-1,2
 740 164 740 164 682 106 c 1,3,4
 573 0 573 0 424 0 c 0,5,6
 278 0 278 0 169.5 106.5 c 128,-1,7
 61 213 61 213 61 365 c 0,8,9
 61 513 61 513 167.5 620 c 128,-1,10
 274 727 274 727 424 727 c 0,11,12
 568 727 568 727 678 621.5 c 128,-1,13
 788 516 788 516 788 365 c 0,0,1
141 435 m 1,14,-1
 186 467 l 1,15,16
 199 475 199 475 231 486 c 1,17,18
 267 486 267 486 307 455 c 1,19,20
 354 417 354 417 354 363 c 0,21,22
 354 327 354 327 309 280 c 1,23,24
 294 268 294 268 270 256 c 1,25,-1
 233 246 l 1,26,27
 220 246 220 246 218 244 c 1,28,-1
 208 244 l 1,29,-1
 185 250 l 1,30,-1
 144 273 l 1,31,-1
 156 242 l 1,32,-1
 173 213 l 2,33,34
 192 182 192 182 217 158 c 1,35,36
 298 72 298 72 424 72 c 0,37,38
 542 72 542 72 629.5 158 c 128,-1,39
 717 244 717 244 717 365 c 0,40,41
 717 480 717 480 631 567.5 c 128,-1,42
 545 655 545 655 424 655 c 256,43,44
 303 655 303 655 217 569 c 1,45,-1
 198 545 l 1,46,-1
 173 506 l 1,47,-1
 157 476 l 1,48,-1
 141 435 l 1,14,-1
EndSplineSet
Ligature2: "'clig' Contextual Ligatures lookup 7 subtable" u101D u103C
Ligature2: "'clig' Contextual Ligatures lookup 5 subtable" u101D u1031
MultipleSubs2: "Multiple Substitution lookup 2 subtable" guard u103C.nar u101D
MultipleSubs2: "Multiple Substitution lookup 1 subtable" guard u103C.nar.udia u101D
MultipleSubs2: "Multiple Substitution lookup 0 subtable" guard u1031 u101D
EndChar

StartChar: u1022
Encoding: 4130 4130 11
Width: 1800
GlyphClass: 3
Flags: W
AnchorPoint: "Anchor-3" 1388 694 basechar 0
AnchorPoint: "Anchor-2" 908 0 basechar 0
AnchorPoint: "Anchor-1" 1492 0 basechar 0
LayerCount: 2
Fore
SplineSet
1514 2 m 1,0,1
 1495 2 1495 2 1486 7 c 2,2,-1
 1468 15 l 1,3,-1
 1453 28 l 2,4,5
 1418 58 1418 58 1418 101 c 0,6,7
 1418 149 1418 149 1452 176 c 0,8,9
 1480 198 1480 198 1513 198 c 1,10,-1
 1553 194 l 2,11,12
 1575 191 1575 191 1586 184 c 2,13,-1
 1601 176 l 2,14,15
 1615 169 1615 169 1622 162 c 1,16,17
 1648 211 1648 211 1664.5 270 c 128,-1,18
 1681 329 1681 329 1681 367 c 0,19,20
 1681 484 1681 484 1590 571.5 c 128,-1,21
 1499 659 1499 659 1386 659 c 0,22,23
 1294 659 1294 659 1217 602 c 128,-1,24
 1140 545 1140 545 1116 457 c 2,25,-1
 1085 348 l 1,26,-1
 1079 281 l 1,27,-1
 1065 219 l 1,28,29
 1050 163 1050 163 1004 104 c 1,30,31
 945 23 945 23 850 -12 c 1,32,33
 811 -12 811 -12 811 20 c 1,34,35
 814 38 814 38 838 55 c 1,36,37
 919 96 919 96 969 170 c 1,38,39
 1018 274 1018 274 1018 354 c 0,40,41
 1018 471 1018 471 924 559 c 128,-1,42
 830 647 830 647 723 647 c 0,43,44
 632 647 632 647 556 590.5 c 128,-1,45
 480 534 480 534 453 444 c 2,46,-1
 450 434 l 1,47,-1
 449 412 l 1,48,49
 444 407 444 407 414 299 c 1,50,-1
 387 176 l 1,51,-1
 387 163 l 1,52,-1
 385 144 l 1,53,54
 385 132 385 132 376 117 c 1,55,56
 365 92 365 92 342 66 c 1,57,58
 296 8 296 8 223 8 c 1,59,60
 160 14 160 14 113 55 c 1,61,62
 61 110 61 110 61 168 c 0,63,64
 61 192 61 192 73 224.5 c 128,-1,65
 85 257 85 257 110 286 c 1,66,-1
 143 308 l 2,67,68
 161 319 161 319 177 320 c 1,69,70
 204 320 204 320 230 301 c 1,71,72
 261 276 261 276 261 234 c 0,73,74
 261 207 261 207 231 169 c 1,75,76
 205 145 205 145 178 145 c 1,77,-1
 150 154 l 1,78,-1
 129 174 l 1,79,80
 135 137 135 137 162 104 c 1,81,82
 185 78 185 78 227 78 c 0,83,84
 260 78 260 78 293 111 c 1,85,86
 313 146 313 146 313 172 c 1,87,88
 322 250 322 250 331 296 c 0,89,90
 349 379 349 379 371 406 c 1,91,-1
 374 416 l 1,92,-1
 375 438 l 1,93,-1
 381 461 l 1,94,95
 435 591 435 591 517 653 c 128,-1,96
 599 715 599 715 723 715 c 0,97,98
 835 715 835 715 922 659 c 1,99,100
 948 645 948 645 998 590 c 0,101,102
 1024 560 1024 560 1057 504 c 1,103,-1
 1067 522 l 1,104,105
 1088 568 1088 568 1104 596 c 1,106,-1
 1117 614 l 1,107,-1
 1131 628 l 1,108,-1
 1180 666 l 1,109,110
 1262 727 1262 727 1386 727 c 0,111,112
 1501 727 1501 727 1587.5 672.5 c 128,-1,113
 1674 618 1674 618 1716 518 c 1,114,115
 1737 476 1737 476 1743 442 c 1,116,-1
 1749 360 l 1,117,-1
 1743 293 l 1,118,-1
 1729 231 l 1,119,-1
 1717 194 l 1,120,-1
 1710 177 l 1,121,-1
 1703 161 l 2,122,123
 1691 132 1691 132 1663.5 94 c 128,-1,124
 1636 56 1636 56 1598 29 c 1,125,126
 1568 11 1568 11 1514 2 c 1,0,1
EndSplineSet
Ligature2: "'clig' Contextual Ligatures lookup 7 subtable" u1022 u103C
Ligature2: "'clig' Contextual Ligatures lookup 5 subtable" u1022 u1031
MultipleSubs2: "Multiple Substitution lookup 2 subtable" guard u103C u1022
MultipleSubs2: "Multiple Substitution lookup 1 subtable" guard u103C.udia u1022
MultipleSubs2: "Multiple Substitution lookup 0 subtable" guard u1031 u1022
EndChar

StartChar: u102D
Encoding: 4141 4141 12
Width: 1
GlyphClass: 4
Flags: W
AnchorPoint: "Anchor-3" -411 657 mark 0
LayerCount: 2
Fore
SplineSet
-116 1009 m 0,0,1
 -116 897 -116 897 -203 804.5 c 128,-1,2
 -290 712 -290 712 -413 712 c 256,3,4
 -536 712 -536 712 -622 798 c 128,-1,5
 -708 884 -708 884 -708 1009 c 0,6,7
 -708 1132 -708 1132 -623.5 1218 c 128,-1,8
 -539 1304 -539 1304 -413 1304 c 0,9,10
 -302 1304 -302 1304 -204 1217 c 1,11,12
 -160 1173 -160 1173 -138 1122 c 1,13,-1
 -122 1068 l 1,14,15
 -116 1041 -116 1041 -116 1009 c 0,0,1
-188 1009 m 0,16,17
 -188 1093 -188 1093 -254 1163 c 128,-1,18
 -320 1233 -320 1233 -413 1233 c 0,19,20
 -496 1233 -496 1233 -570 1167 c 1,21,22
 -592 1145 -592 1145 -620 1095 c 1,23,24
 -637 1055 -637 1055 -637 1009 c 0,25,26
 -637 930 -637 930 -571 852 c 1,27,28
 -541 819 -541 819 -499 801.5 c 128,-1,29
 -457 784 -457 784 -413 784 c 0,30,31
 -387 784 -387 784 -367 787 c 128,-1,32
 -347 790 -347 790 -328 798 c 0,33,34
 -294 813 -294 813 -254 850 c 1,35,36
 -188 919 -188 919 -188 1009 c 0,16,17
EndSplineSet
EndChar

StartChar: u102E
Encoding: 4142 4142 13
Width: 0
GlyphClass: 4
Flags: W
AnchorPoint: "Anchor-3" -414 657 mark 0
LayerCount: 2
Fore
SplineSet
-119 1009 m 0,0,1
 -119 885 -119 885 -205 798.5 c 128,-1,2
 -291 712 -291 712 -416 712 c 0,3,4
 -528 712 -528 712 -619.5 799.5 c 128,-1,5
 -711 887 -711 887 -711 1009 c 0,6,7
 -711 1132 -711 1132 -625 1218 c 128,-1,8
 -539 1304 -539 1304 -416 1304 c 0,9,10
 -303 1304 -303 1304 -207 1217 c 1,11,12
 -163 1173 -163 1173 -141 1122 c 1,13,-1
 -125 1068 l 1,14,15
 -119 1041 -119 1041 -119 1009 c 0,0,1
-217 905 m 1,16,-1
 -209 923 l 1,17,-1
 -197 956 l 1,18,-1
 -192 983 l 1,19,-1
 -190 1009 l 1,20,21
 -190 1093 -190 1093 -256 1163 c 128,-1,22
 -322 1233 -322 1233 -416 1233 c 0,23,24
 -503 1233 -503 1233 -572 1167 c 0,25,26
 -594 1145 -594 1145 -622 1095 c 1,27,28
 -639 1055 -639 1055 -639 1009 c 0,29,30
 -639 957 -639 957 -614 907 c 1,31,32
 -589 939 -589 939 -524 977 c 1,33,34
 -471 1001 -471 1001 -416 1001 c 1,35,-1
 -383 1000 l 2,36,37
 -367 1000 -367 1000 -355 996 c 1,38,39
 -331 993 -331 993 -304 978 c 1,40,41
 -255 955 -255 955 -217 905 c 1,16,-1
-584 862 m 1,42,43
 -515 784 -515 784 -416 784 c 0,44,45
 -318 784 -318 784 -248 860 c 1,46,47
 -307 950 -307 950 -416 950 c 0,48,49
 -454 950 -454 950 -464 945 c 1,50,51
 -471 943 -471 943 -483.5 938.5 c 128,-1,52
 -496 934 -496 934 -515 925 c 1,53,54
 -551 910 -551 910 -584 862 c 1,42,43
EndSplineSet
EndChar

StartChar: u102F
Encoding: 4143 4143 14
Width: 0
GlyphClass: 4
Flags: W
AnchorPoint: "Anchor-1" -272 0 mark 0
LayerCount: 2
Fore
SplineSet
-81 -639 m 2,0,-1
 -212 -639 l 2,1,2
 -244 -639 -244 -639 -278 -608 c 1,3,4
 -309 -577 -309 -577 -309 -541 c 2,5,-1
 -309 -33 l 2,6,7
 -309 2 -309 2 -272 2 c 0,8,9
 -237 2 -237 2 -237 -33 c 2,10,-1
 -238 -477 l 1,11,-1
 -234 -506 l 2,12,13
 -231 -531 -231 -531 -226 -537 c 2,14,-1
 -211 -553 l 1,15,-1
 -202 -560 l 1,16,-1
 -196 -564 l 1,17,-1
 -73 -564 l 1,18,-1
 -22 -552 l 1,19,20
 74 -528 74 -528 77 -531 c 1,21,-1
 79 -540 l 1,22,-1
 80 -552 l 1,23,24
 80 -567 80 -567 11 -603 c 128,-1,25
 -58 -639 -58 -639 -81 -639 c 2,0,-1
EndSplineSet
EndChar

StartChar: u1030
Encoding: 4144 4144 15
Width: 0
GlyphClass: 4
Flags: W
AnchorPoint: "Anchor-1" -348 0 mark 0
LayerCount: 2
Fore
SplineSet
99 -556 m 1,0,1
 99 -571 99 -571 30 -607 c 128,-1,2
 -39 -643 -39 -643 -62 -643 c 2,3,-1
 -193 -643 l 2,4,5
 -225 -643 -225 -643 -259 -612 c 1,6,7
 -290 -581 -290 -581 -290 -545 c 2,8,-1
 -290 -37 l 2,9,10
 -290 -2 -290 -2 -253 -2 c 0,11,12
 -218 -2 -218 -2 -218 -37 c 2,13,-1
 -219 -481 l 1,14,-1
 -215 -510 l 2,15,16
 -212 -535 -212 -535 -207 -541 c 2,17,-1
 -192 -557 l 1,18,-1
 -183 -564 l 1,19,-1
 -177 -568 l 1,20,-1
 -54 -568 l 1,21,-1
 -3 -556 l 1,22,23
 93 -532 93 -532 96 -535 c 1,24,-1
 98 -544 l 1,25,-1
 99 -556 l 1,0,1
-303 -583 m 1,26,-1
 -401 -581 l 2,27,28
 -418 -581 -418 -581 -426 -576 c 2,29,-1
 -449 -559 l 1,30,31
 -470 -535 -470 -535 -470 -510 c 2,32,-1
 -470 -67 l 2,33,34
 -470 -37 -470 -37 -437 -34 c 1,35,36
 -402 -34 -402 -34 -402 -67 c 2,37,-1
 -402 -472 l 1,38,-1
 -401 -489 l 1,39,-1
 -399 -500 l 1,40,41
 -390 -511 -390 -511 -386 -512 c 1,42,-1
 -345 -541 l 1,43,-1
 -303 -583 l 1,26,-1
EndSplineSet
EndChar

StartChar: u1031
Encoding: 4145 4145 16
Width: 673
GlyphClass: 3
Flags: W
LayerCount: 2
Fore
SplineSet
621 663 m 1,0,-1
 623 651 l 1,1,2
 623 642 623 642 612 631 c 1,3,4
 594 617 594 617 591 612 c 1,5,6
 572 623 572 623 518 643 c 1,7,8
 476 652 476 652 428 652 c 0,9,10
 302 652 302 652 215 568 c 1,11,12
 129 473 129 473 129 364 c 2,13,-1
 129 335 l 1,14,-1
 129 317 l 1,15,-1
 134 290 l 1,16,17
 134 281 134 281 149 246 c 0,18,19
 170 195 170 195 198 195 c 0,20,21
 204 195 204 195 224 218.5 c 128,-1,22
 244 242 244 242 264 248 c 128,-1,23
 284 254 284 254 306 254 c 0,24,25
 353 254 353 254 395 235.5 c 128,-1,26
 437 217 437 217 461 177 c 1,27,-1
 473 149 l 1,28,-1
 477 121 l 1,29,30
 477 76 477 76 440 40.5 c 128,-1,31
 403 5 403 5 360 5 c 1,32,-1
 325 4 l 1,33,-1
 293 4 l 1,34,-1
 259 5 l 1,35,36
 243 7 243 7 226 15 c 0,37,38
 201 26 201 26 165 65 c 0,39,40
 117 116 117 116 87 200 c 1,41,-1
 66 283 l 1,42,-1
 61 323 l 1,43,-1
 59 364 l 1,44,45
 59 507 59 507 170.5 613.5 c 128,-1,46
 282 720 282 720 428 720 c 1,47,-1
 483 716 l 1,48,-1
 530 706 l 1,49,-1
 584 693 l 1,50,51
 604 684 604 684 621 663 c 1,0,-1
EndSplineSet
Ligature2: "'clig' Contextual Ligatures lookup 8 subtable" guard u1031
EndChar

StartChar: u1036
Encoding: 4150 4150 17
Width: 32
GlyphClass: 4
Flags: W
AnchorPoint: "Anchor-3" -258 737 mark 0
LayerCount: 2
Fore
SplineSet
-125 965 m 1,0,1
 -125 953 -125 953 -134 924 c 1,2,3
 -144 905 -144 905 -165 882 c 1,4,-1
 -210 854 l 1,5,-1
 -258 844 l 1,6,7
 -272 844 -272 844 -299 853 c 1,8,9
 -310 859 -310 859 -343 884 c 1,10,11
 -359 906 -359 906 -367 928 c 1,12,-1
 -374 951 l 1,13,-1
 -377 977 l 1,14,15
 -377 1025 -377 1025 -337 1062 c 0,16,17
 -322 1076 -322 1076 -292 1086 c 1,18,19
 -264 1097 -264 1097 -246 1097 c 0,20,21
 -226 1097 -226 1097 -205 1087.5 c 128,-1,22
 -184 1078 -184 1078 -163 1060 c 1,23,-1
 -135 1014 l 1,24,-1
 -128 991 l 1,25,-1
 -125 965 l 1,0,1
-182 969 m 1,26,27
 -182 983 -182 983 -197 1013 c 1,28,-1
 -218 1028 l 1,29,-1
 -250 1041 l 1,30,31
 -258 1041 -258 1041 -290 1023 c 1,32,33
 -297 1016 -297 1016 -305 1001 c 2,34,-1
 -319 975 l 1,35,36
 -319 948 -319 948 -302 925 c 0,37,38
 -296 916 -296 916 -283 909 c 1,39,-1
 -255 903 l 1,40,41
 -245 903 -245 903 -228 910 c 2,42,-1
 -204 921 l 1,43,-1
 -190 945 l 1,44,-1
 -182 969 l 1,26,27
EndSplineSet
EndChar

StartChar: u103A
Encoding: 4154 4154 18
Width: 38
GlyphClass: 4
Flags: W
AnchorPoint: "Anchor-3" -250 657 mark 0
LayerCount: 2
Fore
SplineSet
118 1102 m 1,0,-1
 118 1090 l 1,1,-1
 111 1081 l 1,2,-1
 98 1083 l 1,3,-1
 84 1085 l 1,4,-1
 71 1088 l 1,5,-1
 59 1090 l 1,6,-1
 48 1092 l 1,7,-1
 14 1098 l 1,8,-1
 -23 1105 l 1,9,-1
 -34 1107 l 1,10,-1
 -79 1111 l 1,11,12
 -133 1111 -133 1111 -207 1078 c 1,13,14
 -285 1039 -285 1039 -318 960 c 1,15,-1
 -326 939 l 1,16,-1
 -335 917 l 1,17,-1
 -336 891 l 1,18,-1
 -339 878 l 1,19,-1
 -342 864 l 1,20,-1
 -344 847 l 1,21,22
 -346 841 -346 841 -340 831 c 1,23,-1
 -310 842 l 1,24,-1
 -288 845 l 1,25,26
 -264 842 -264 842 -249 824 c 1,27,28
 -233 808 -233 808 -233 782 c 1,29,-1
 -234 767 l 1,30,31
 -240 740 -240 740 -265 721 c 1,32,-1
 -288 712 l 1,33,-1
 -311 710 l 1,34,-1
 -333 715 l 1,35,-1
 -347 722 l 1,36,-1
 -364 744 l 1,37,-1
 -380 771 l 1,38,-1
 -390 807 l 1,39,-1
 -396 839 l 1,40,-1
 -397 886 l 1,41,-1
 -387 928 l 1,42,-1
 -375 970 l 1,43,44
 -356 1019 -356 1019 -322 1051 c 1,45,46
 -306 1070 -306 1070 -285 1084 c 2,47,-1
 -235 1117 l 1,48,49
 -213 1130 -213 1130 -188 1138 c 1,50,-1
 -159 1146 l 1,51,-1
 -130 1155 l 1,52,-1
 -79 1159 l 1,53,54
 -55 1159 -55 1159 -19 1153 c 2,55,-1
 30 1144 l 1,56,-1
 40 1141 l 1,57,58
 46 1141 46 1141 60 1134 c 1,59,60
 92 1125 92 1125 118 1102 c 1,0,-1
EndSplineSet
EndChar

StartChar: u103B
Encoding: 4155 4155 19
Width: 183
GlyphClass: 4
Flags: W
AnchorPoint: "Anchor-0" -87 18 mark 0
LayerCount: 2
Fore
SplineSet
-99 -501 m 1,0,-1
 -66 -516 l 1,1,2
 -21 -534 -21 -534 7 -534 c 0,3,4
 43 -534 43 -534 55 -505 c 1,5,-1
 60 -473 l 1,6,-1
 64 -435 l 1,7,-1
 65 -398 l 1,8,-1
 66 453 l 1,9,-1
 66 597 l 2,10,11
 66 636 66 636 104 636 c 0,12,13
 139 636 139 636 139 601 c 2,14,-1
 139 466 l 1,15,-1
 139 455 l 1,16,-1
 139 433 l 1,17,-1
 139 359 l 1,18,-1
 139 269 l 1,19,-1
 139 178 l 1,20,-1
 139 92 l 1,21,-1
 139 15 l 1,22,-1
 139 -51 l 1,23,-1
 139 -108 l 1,24,-1
 139 -155 l 1,25,-1
 139 -194 l 1,26,-1
 139 -226 l 1,27,-1
 139 -252 l 1,28,-1
 139 -273 l 1,29,-1
 139 -290 l 1,30,-1
 139 -304 l 1,31,-1
 139 -315 l 1,32,-1
 138 -343 l 1,33,-1
 138 -366 l 1,34,-1
 135 -468 l 1,35,36
 129 -529 129 -529 119.5 -550 c 128,-1,37
 110 -571 110 -571 90 -585 c 1,38,-1
 63 -595 l 1,39,-1
 25 -599 l 1,40,41
 -27 -599 -27 -599 -65 -586 c 1,42,43
 -114 -574 -114 -574 -159 -549 c 0,44,45
 -187 -533 -187 -533 -216.5 -503 c 128,-1,46
 -246 -473 -246 -473 -258 -449 c 1,47,-1
 -272 -410 l 1,48,-1
 -280 -329 l 1,49,-1
 -278 -217 l 1,50,-1
 -276 -104 l 1,51,-1
 -274 -43 l 1,52,-1
 -272 20 l 1,53,54
 -272 55 -272 55 -236 55 c 0,55,56
 -201 55 -201 55 -201 20 c 1,57,-1
 -210 -60 l 1,58,59
 -219 -156 -219 -156 -219 -236 c 1,60,-1
 -218 -290 l 1,61,-1
 -217 -318 l 1,62,-1
 -217 -330 l 1,63,-1
 -213 -351 l 1,64,-1
 -210 -381 l 1,65,-1
 -205 -398 l 1,66,-1
 -196 -420 l 1,67,68
 -184 -452 -184 -452 -149 -475 c 1,69,-1
 -99 -501 l 1,0,-1
EndSplineSet
Ligature2: "'clig' Contextual Ligatures lookup 7 subtable" u103B u103C
Ligature2: "'clig' Contextual Ligatures lookup 5 subtable" u103B u1031
EndChar

StartChar: u103C
Encoding: 4156 4156 20
Width: 205
GlyphClass: 3
Flags: W
LayerCount: 2
Fore
SplineSet
1163 -75 m 1,0,-1
 1169 -99 l 1,1,-1
 1171 -124 l 1,2,3
 1171 -165 1171 -165 1120 -222 c 1,4,5
 1097 -242 1097 -242 981 -316 c 1,6,-1
 918 -352 l 1,7,-1
 862 -381 l 1,8,9
 822 -400 822 -400 786 -411 c 2,10,-1
 707 -434 l 1,11,-1
 668 -439 l 1,12,-1
 625 -441 l 1,13,-1
 613 -441 l 1,14,-1
 574 -440 l 2,15,16
 554 -440 554 -440 538 -436 c 1,17,-1
 509 -432 l 1,18,19
 498 -432 498 -432 481 -426 c 1,20,-1
 462 -422 l 1,21,-1
 441 -415 l 1,22,23
 353 -389 353 -389 294 -329 c 2,24,-1
 226 -261 l 1,25,-1
 199 -233 l 1,26,-1
 178 -208 l 1,27,-1
 167 -191 l 1,28,-1
 154 -164 l 1,29,-1
 110 -67 l 2,30,31
 98 -40 98 -40 89 -4 c 2,32,-1
 81 31 l 1,33,-1
 73 74 l 1,34,35
 61 157 61 157 61 255 c 1,36,-1
 63 316 l 1,37,-1
 65 378 l 1,38,-1
 68 435 l 1,39,-1
 72 475 l 1,40,-1
 78 502 l 1,41,42
 95 624 95 624 117 688 c 1,43,44
 153 784 153 784 189 842 c 1,45,46
 231 896 231 896 332 958.5 c 128,-1,47
 433 1021 433 1021 574 1057 c 1,48,-1
 635 1069 l 1,49,-1
 709 1080 l 1,50,51
 739 1083 739 1083 841 1056 c 2,52,-1
 975 1020 l 1,53,54
 1008 1014 1008 1014 1027 1014 c 0,55,56
 1056 1014 1056 1014 1085 1040 c 0,57,58
 1103 1055 1103 1055 1107 1084 c 1,59,-1
 1116 1136 l 1,60,-1
 1146 1227 l 1,61,-1
 1206 1408 l 2,62,63
 1220 1453 1220 1453 1238 1473 c 1,64,65
 1253 1494 1253 1494 1267 1495 c 1,66,-1
 1273 1489 l 1,67,-1
 1281 1476 l 1,68,-1
 1283 1456 l 1,69,-1
 1283 1445 l 1,70,-1
 1281 1432 l 1,71,-1
 1278 1420 l 1,72,-1
 1274 1405 l 1,73,-1
 1225 1235 l 1,74,-1
 1209 1142 l 1,75,76
 1188 1043 1188 1043 1164 1004 c 128,-1,77
 1140 965 1140 965 1094 944 c 0,78,79
 1055 926 1055 926 1006 926 c 1,80,-1
 985 927 l 1,81,-1
 970 930 l 1,82,-1
 650 1000 l 1,83,84
 625 1000 625 1000 623 998 c 1,85,86
 513 975 513 975 415 922 c 0,87,88
 339 881 339 881 275 823 c 1,89,90
 254 798 254 798 195 685 c 1,91,92
 183 652 183 652 160 509 c 1,93,-1
 148 386 l 1,94,-1
 144 268 l 1,95,96
 144 156 144 156 156 59 c 128,-1,97
 168 -38 168 -38 195 -95 c 1,98,99
 240 -176 240 -176 290 -220 c 1,100,-1
 420 -308 l 1,101,102
 466 -337 466 -337 514.5 -353.5 c 128,-1,103
 563 -370 563 -370 605 -370 c 0,104,105
 659 -370 659 -370 722.5 -349.5 c 128,-1,106
 786 -329 786 -329 867 -285 c 1,107,-1
 951 -257 l 2,108,109
 998 -242 998 -242 1029 -205 c 1,110,111
 990 -205 990 -205 965 -177 c 128,-1,112
 940 -149 940 -149 940 -103 c 0,113,114
 940 -55 940 -55 984 -27 c 1,115,-1
 1018 -11 l 1,116,117
 1036 -5 1036 -5 1055 -5 c 1,118,119
 1078 -8 1078 -8 1113 -28.5 c 128,-1,120
 1148 -49 1148 -49 1163 -75 c 1,0,-1
EndSplineSet
Ligature2: "'clig' Contextual Ligatures lookup 8 subtable" guard u103C
Ligature2: "'clig' Contextual Ligatures lookup 5 subtable" u103C u1031
EndChar

StartChar: u103D
Encoding: 4157 4157 21
Width: 0
GlyphClass: 4
Flags: W
AnchorPoint: "Anchor-1" -320 0 mark 0
LayerCount: 2
Fore
SplineSet
-69 -335 m 2,0,-1
 -69 -377 l 1,1,-1
 -74 -414 l 1,2,-1
 -77 -437 l 1,3,-1
 -86 -464 l 1,4,5
 -104 -525 -104 -525 -141 -578 c 1,6,7
 -170 -614 -170 -614 -219 -650 c 1,8,9
 -261 -677 -261 -677 -318 -677 c 0,10,11
 -406 -677 -406 -677 -493 -578 c 1,12,13
 -524 -537 -524 -537 -544 -471 c 1,14,-1
 -552 -440 l 1,15,-1
 -560 -405 l 1,16,17
 -566 -373 -566 -373 -566 -335 c 0,18,19
 -566 -201 -566 -201 -496 -98 c 128,-1,20
 -426 5 -426 5 -318 5 c 0,21,22
 -223 5 -223 5 -146 -90 c 128,-1,23
 -69 -185 -69 -185 -69 -335 c 2,0,-1
-125 -335 m 0,24,25
 -125 -227 -125 -227 -180 -148 c 1,26,27
 -210 -112 -210 -112 -244 -90 c 1,28,29
 -290 -71 -290 -71 -318 -71 c 0,30,31
 -352 -71 -352 -71 -386 -88.5 c 128,-1,32
 -420 -106 -420 -106 -452 -146 c 1,33,34
 -510 -222 -510 -222 -510 -335 c 0,35,36
 -510 -441 -510 -441 -454 -522 c 1,37,38
 -404 -598 -404 -598 -318 -598 c 0,39,40
 -240 -598 -240 -598 -182.5 -522.5 c 128,-1,41
 -125 -447 -125 -447 -125 -335 c 0,24,25
EndSplineSet
EndChar

StartChar: u105E
Encoding: 4190 4190 22
Width: 33
GlyphClass: 4
Flags: W
AnchorPoint: "Anchor-1" -400 0 mark 0
LayerCount: 2
Fore
SplineSet
-638 -324 m 0,0,1
 -636 -335 -636 -335 -624 -342 c 1,2,-1
 -586 -357 l 1,3,-1
 -574 -358 l 1,4,-1
 -534 -355 l 1,5,-1
 -475 -345 l 1,6,7
 -382 -328 -382 -328 -382 -316 c 256,8,9
 -382 -304 -382 -304 -465 -282 c 1,10,-1
 -548 -264 l 1,11,-1
 -555 -263 l 1,12,-1
 -566 -263 l 1,13,-1
 -588 -264 l 2,14,15
 -597 -264 -597 -264 -605 -271 c 1,16,17
 -624 -282 -624 -282 -632.5 -294 c 128,-1,18
 -641 -306 -641 -306 -638 -324 c 0,0,1
-290 -336 m 1,19,-1
 -358 -358 l 1,20,-1
 -383 -367 l 1,21,-1
 -430 -382 l 1,22,23
 -499 -400 -499 -400 -563 -400 c 0,24,25
 -593 -400 -593 -400 -614 -394 c 2,26,-1
 -639 -386 l 2,27,28
 -652 -381 -652 -381 -660 -372 c 0,29,30
 -678 -354 -678 -354 -678 -328 c 0,31,32
 -678 -301 -678 -301 -660.5 -274.5 c 128,-1,33
 -643 -248 -643 -248 -616 -234 c 1,34,-1
 -594 -228 l 1,35,-1
 -568 -226 l 1,36,-1
 -550 -226 l 1,37,-1
 -537 -228 l 1,38,-1
 -430 -252 l 1,39,-1
 -335 -276 l 1,40,-1
 -314 -282 l 1,41,-1
 -296 -284 l 1,42,-1
 -266 -278 l 2,43,44
 -246 -273 -246 -273 -234 -264 c 0,45,46
 -198 -237 -198 -237 -185 -193 c 1,47,-1
 -184 -175 l 1,48,49
 -184 -142 -184 -142 -205 -109 c 2,50,-1
 -210 -101 l 1,51,-1
 -220 -93 l 1,52,53
 -223 -104 -223 -104 -231 -109.5 c 128,-1,54
 -239 -115 -239 -115 -260 -118 c 1,55,56
 -279 -118 -279 -118 -291 -110 c 0,57,58
 -307 -99 -307 -99 -307 -74 c 0,59,60
 -307 -24 -307 -24 -266 -24 c 1,61,-1
 -242 -26 l 2,62,63
 -237 -26 -237 -26 -208 -41 c 0,64,65
 -193 -49 -193 -49 -165.5 -88 c 128,-1,66
 -138 -127 -138 -127 -138 -173 c 1,67,-1
 -141 -202 l 2,68,69
 -144 -230 -144 -230 -169 -255 c 128,-1,70
 -194 -280 -194 -280 -234 -297 c 1,71,-1
 -93 -327 l 1,72,-1
 31 -360 l 1,73,-1
 63 -370 l 1,74,-1
 95 -388 l 1,75,-1
 102 -400 l 1,76,77
 108 -416 108 -416 91 -416 c 0,78,79
 78 -416 78 -416 74 -414 c 2,80,-1
 52 -408 l 1,81,-1
 5 -393 l 1,82,-1
 -56 -380 l 1,83,-1
 -96 -372 l 1,84,-1
 -206 -353 l 1,85,-1
 -255 -345 l 1,86,-1
 -290 -336 l 1,19,-1
EndSplineSet
Ligature2: "'clig' Contextual Ligatures lookup 7 subtable" u105E u103C
Ligature2: "'clig' Contextual Ligatures lookup 5 subtable" u105E u1031
EndChar

StartChar: u1075
Encoding: 4213 4213 23
Width: 1176
GlyphClass: 3
Flags: W
AnchorPoint: "Anchor-3" 770 694 basechar 0
AnchorPoint: "Anchor-2" 537 0 basechar 0
AnchorPoint: "Anchor-1" 879 0 basechar 0
AnchorPoint: "Anchor-0" 1033 0 basechar 0
LayerCount: 2
Fore
SplineSet
907 -6 m 2,0,-1
 896 -6 l 2,1,2
 880 -6 880 -6 862 0 c 1,3,4
 854 4 854 4 830 34 c 1,5,6
 822 48 822 48 822 69 c 0,7,8
 822 83 822 83 831 105 c 128,-1,9
 840 127 840 127 863 144 c 1,10,-1
 882 152 l 1,11,-1
 902 155 l 1,12,13
 923 155 923 155 947 140 c 1,14,15
 964 127 964 127 971 114 c 1,16,-1
 993 141 l 1,17,-1
 1014 170 l 1,18,19
 1063 274 1063 274 1063 354 c 0,20,21
 1063 471 1063 471 969 559 c 128,-1,22
 875 647 875 647 768 647 c 0,23,24
 677 647 677 647 601 590.5 c 128,-1,25
 525 534 525 534 498 444 c 2,26,-1
 495 434 l 1,27,-1
 494 412 l 1,28,29
 489 407 489 407 459 299 c 1,30,-1
 432 176 l 1,31,-1
 432 163 l 1,32,-1
 430 144 l 1,33,34
 430 132 430 132 421 117 c 1,35,36
 410 92 410 92 387 66 c 1,37,38
 341 8 341 8 268 8 c 1,39,-1
 247 11 l 1,40,-1
 228 20 l 1,41,-1
 175 65 l 1,42,-1
 146 98 l 1,43,-1
 119 132 l 2,44,45
 74 189 74 189 55 245 c 1,46,-1
 46 277 l 1,47,-1
 38 315 l 1,48,-1
 33 359 l 1,49,-1
 32 396 l 1,50,-1
 33 437 l 1,51,-1
 33 458 l 2,52,53
 33 468 33 468 38 476 c 1,54,55
 43 501 43 501 67 527 c 2,56,-1
 98 561 l 1,57,58
 116 576 116 576 144 576 c 0,59,60
 174 576 174 576 191 566.5 c 128,-1,61
 208 557 208 557 224 522 c 1,62,-1
 227 501 l 1,63,-1
 227 490 l 2,64,65
 227 482 227 482 225 480 c 1,66,67
 225 470 225 470 215 453 c 2,68,-1
 206 437 l 1,69,-1
 195 426 l 1,70,-1
 177 415 l 1,71,-1
 154 411 l 1,72,-1
 138 413 l 1,73,-1
 116 415 l 1,74,75
 101 415 101 415 101 389 c 0,76,77
 101 361 101 361 103 357 c 1,78,-1
 112 316 l 1,79,-1
 126 257 l 1,80,-1
 138 224 l 1,81,-1
 158 189 l 1,82,83
 167 170 167 170 210 130 c 1,84,-1
 236 98 l 1,85,86
 254 78 254 78 272 78 c 0,87,88
 305 78 305 78 338 111 c 1,89,90
 358 146 358 146 358 172 c 1,91,92
 367 250 367 250 376 296 c 0,93,94
 394 379 394 379 416 406 c 1,95,-1
 419 416 l 1,96,-1
 420 438 l 1,97,-1
 426 461 l 1,98,99
 480 591 480 591 562 653 c 128,-1,100
 644 715 644 715 768 715 c 0,101,102
 880 715 880 715 966.5 660.5 c 128,-1,103
 1053 606 1053 606 1098 506 c 1,104,-1
 1113 467 l 1,105,-1
 1124 430 l 1,106,-1
 1130 348 l 1,107,-1
 1124 281 l 1,108,-1
 1110 219 l 1,109,110
 1094 166 1094 166 1054 109.5 c 128,-1,111
 1014 53 1014 53 983 26 c 0,112,113
 946 -6 946 -6 907 -6 c 2,0,-1
EndSplineSet
Ligature2: "'clig' Contextual Ligatures lookup 7 subtable" u1075 u103C
Ligature2: "'clig' Contextual Ligatures lookup 5 subtable" u1075 u1031
MultipleSubs2: "Multiple Substitution lookup 2 subtable" guard u103C.nar u1075
MultipleSubs2: "Multiple Substitution lookup 1 subtable" guard u103C.nar.udia u1075
MultipleSubs2: "Multiple Substitution lookup 0 subtable" guard u1031 u1075
EndChar

StartChar: u1078
Encoding: 4216 4216 24
Width: 1497
GlyphClass: 3
Flags: W
AnchorPoint: "Anchor-3" 1056 694 basechar 0
AnchorPoint: "Anchor-2" 712 0 basechar 0
AnchorPoint: "Anchor-1" 1068 0 basechar 0
AnchorPoint: "Anchor-0" 1288 0 basechar 0
LayerCount: 2
Fore
SplineSet
768 471 m 1,0,-1
 803 496 l 2,1,2
 823 510 823 510 862 510 c 256,3,4
 901 510 901 510 946 471 c 1,5,6
 995 424 995 424 995 359 c 0,7,8
 995 301 995 301 951 254.5 c 128,-1,9
 907 208 907 208 865 208 c 0,10,11
 811 208 811 208 801 218 c 2,12,-1
 765 255 l 1,13,-1
 768 226 l 1,14,15
 782 193 782 193 801 175 c 1,16,-1
 837 150 l 1,17,-1
 895 113 l 1,18,-1
 957 82 l 1,19,-1
 1006 68 l 1,20,-1
 1046 63 l 1,21,22
 1102 63 1102 63 1189.5 107 c 128,-1,23
 1277 151 1277 151 1303 195 c 1,24,-1
 1321 235 l 1,25,-1
 1338 284 l 1,26,-1
 1347 333 l 1,27,-1
 1351 377 l 1,28,29
 1351 494 1351 494 1260 581.5 c 128,-1,30
 1169 669 1169 669 1056 669 c 0,31,32
 959 669 959 669 882 610 c 0,33,34
 860 594 860 594 846 576 c 1,35,-1
 828 559 l 1,36,-1
 808 536 l 1,37,-1
 793 513 l 1,38,-1
 768 471 l 1,0,-1
688 364 m 1,39,-1
 687 394 l 2,40,41
 687 404 687 404 680 431 c 1,42,43
 677 453 677 453 659 492 c 1,44,45
 630 562 630 562 597 595 c 1,46,47
 585 609 585 609 561 622 c 1,48,49
 546 634 546 634 514 641 c 1,50,-1
 488 644 l 1,51,-1
 478 644 l 1,52,-1
 439 644 l 1,53,-1
 406 639 l 1,54,55
 396 639 396 639 383 635 c 2,56,-1
 348 624 l 1,57,58
 279 606 279 606 242 569 c 1,59,60
 207 540 207 540 174 478 c 1,61,-1
 158 424 l 1,62,63
 152 397 152 397 152 365 c 0,64,65
 152 269 152 269 160.5 240 c 128,-1,66
 169 211 169 211 210 170 c 1,67,-1
 250 200 l 1,68,69
 258 208 258 208 290 220 c 1,70,71
 324 220 324 220 348 200 c 0,72,73
 380 174 380 174 380 125 c 2,74,-1
 380 89 l 2,75,76
 380 50 380 50 370 36 c 0,77,78
 355 15 355 15 310 15 c 0,79,80
 285 15 285 15 259 21 c 128,-1,81
 233 27 233 27 195 65 c 1,82,83
 138 104 138 104 107 201 c 1,84,-1
 98 234 l 1,85,-1
 89 288 l 1,86,-1
 85 324 l 1,87,-1
 84 365 l 1,88,89
 84 508 84 508 195 621 c 1,90,91
 246 669 246 669 334 696 c 0,92,93
 380 710 380 710 420 717 c 1,94,-1
 461 722 l 1,95,-1
 504 724 l 1,96,-1
 528 723 l 2,97,98
 541 723 541 723 554 718 c 2,99,-1
 570 712 l 1,100,101
 583 709 583 709 591 701 c 1,102,103
 619 686 619 686 639 661 c 1,104,105
 667 629 667 629 696 573 c 2,106,-1
 727 514 l 1,107,-1
 737 532 l 1,108,109
 761 596 761 596 775 607 c 1,110,-1
 802 638 l 1,111,-1
 850 676 l 1,112,113
 932 737 932 737 1056 737 c 0,114,115
 1171 737 1171 737 1257.5 682.5 c 128,-1,116
 1344 628 1344 628 1386 528 c 1,117,118
 1407 486 1407 486 1413 452 c 1,119,-1
 1419 370 l 1,120,-1
 1413 303 l 1,121,-1
 1399 241 l 2,122,123
 1395 225 1395 225 1375 185 c 1,124,-1
 1366 169 l 1,125,-1
 1358 155 l 1,126,-1
 1337 127 l 1,127,128
 1305 86 1305 86 1224.5 45 c 128,-1,129
 1144 4 1144 4 1071 4 c 2,130,-1
 1059 4 l 2,131,132
 1014 4 1014 4 992.5 7 c 128,-1,133
 971 10 971 10 956.5 13 c 128,-1,134
 942 16 942 16 922 24 c 1,135,136
 840 48 840 48 790 98 c 1,137,-1
 764 125 l 1,138,-1
 743 152 l 1,139,-1
 714 190 l 1,140,-1
 701 253 l 1,141,-1
 693 312 l 1,142,-1
 688 364 l 1,39,-1
EndSplineSet
Ligature2: "'clig' Contextual Ligatures lookup 7 subtable" u1078 u103C
Ligature2: "'clig' Contextual Ligatures lookup 5 subtable" u1078 u1031
MultipleSubs2: "Multiple Substitution lookup 2 subtable" guard u103C u1078
MultipleSubs2: "Multiple Substitution lookup 1 subtable" guard u103C.udia u1078
MultipleSubs2: "Multiple Substitution lookup 0 subtable" guard u1031 u1078
EndChar

StartChar: u107A
Encoding: 4218 4218 25
Width: 1551
GlyphClass: 3
Flags: W
AnchorPoint: "Anchor-3" 1164 694 basechar 0
AnchorPoint: "Anchor-2" 824 0 basechar 0
AnchorPoint: "Anchor-1" 1268 0 basechar 0
LayerCount: 2
Fore
SplineSet
778 165 m 1,0,-1
 820 260 l 1,1,2
 840 315 840 315 840 354 c 0,3,4
 840 475 840 475 754 562.5 c 128,-1,5
 668 650 668 650 571 650 c 0,6,7
 551 650 551 650 527 638 c 1,8,-1
 499 610 l 1,9,10
 466 580 466 580 443 536.5 c 128,-1,11
 420 493 420 493 408 444 c 1,12,-1
 405 434 l 1,13,-1
 404 412 l 1,14,-1
 386 295 l 2,15,16
 380 255 380 255 371 224 c 1,17,-1
 356 188 l 1,18,-1
 348 164 l 1,19,20
 348 145 348 145 337 134 c 2,21,-1
 323 119 l 1,22,-1
 301 100 l 1,23,-1
 271 81 l 1,24,-1
 245 68 l 1,25,-1
 222 62 l 1,26,-1
 198 60 l 1,27,28
 178 60 178 60 145 69 c 1,29,-1
 99 90 l 2,30,31
 86 96 86 96 69 134 c 1,32,-1
 57 163 l 1,33,-1
 40 206 l 1,34,-1
 34 239 l 1,35,-1
 31 293 l 1,36,-1
 28 433 l 2,37,38
 28 467 28 467 38.5 493.5 c 128,-1,39
 49 520 49 520 72 551 c 1,40,-1
 102 573 l 2,41,42
 117 584 117 584 132 585 c 1,43,44
 157 585 157 585 180 566 c 1,45,46
 208 541 208 541 208 499 c 0,47,48
 208 472 208 472 181 434 c 1,49,50
 158 410 158 410 133 410 c 1,51,-1
 108 419 l 1,52,-1
 89 439 l 1,53,-1
 89 420 l 1,54,-1
 88 367 l 1,55,-1
 88 322 l 1,56,-1
 89 248 l 2,57,58
 89 219 89 219 94 209 c 1,59,60
 103 178 103 178 120 156 c 2,61,-1
 134 139 l 1,62,-1
 144 130 l 1,63,-1
 166 121 l 1,64,-1
 204 117 l 1,65,-1
 216 117 l 2,66,67
 244 117 244 117 255 121 c 1,68,69
 268 124 268 124 279 150 c 1,70,-1
 288 188 l 1,71,72
 294 218 294 218 298 223 c 1,73,-1
 318 350 l 2,74,75
 324 392 324 392 334 406 c 1,76,-1
 337 416 l 1,77,-1
 337 438 l 1,78,-1
 343 461 l 1,79,80
 367 530 367 530 394 578.5 c 128,-1,81
 421 627 421 627 459 660 c 2,82,-1
 507 703 l 1,83,84
 525 715 525 715 574 715 c 0,85,86
 675 715 675 715 753 659 c 1,87,88
 782 641 782 641 822 590 c 1,89,-1
 875 504 l 1,90,-1
 884 522 l 1,91,92
 894 559 894 559 917 596 c 1,93,-1
 929 614 l 1,94,-1
 941 628 l 1,95,-1
 985 666 l 2,96,97
 1020 695 1020 695 1070 711 c 1,98,-1
 1120 723 l 1,99,-1
 1171 727 l 1,100,101
 1273 727 1273 727 1351.5 673 c 128,-1,102
 1430 619 1430 619 1468 518 c 2,103,-1
 1483 478 l 1,104,-1
 1492 442 l 1,105,-1
 1498 360 l 1,106,-1
 1492 293 l 1,107,-1
 1480 231 l 1,108,-1
 1469 194 l 1,109,-1
 1462 174 l 1,110,-1
 1456 161 l 1,111,-1
 1440 126 l 1,112,-1
 1421 94 l 1,113,114
 1391 52 1391 52 1362 29 c 1,115,116
 1333 11 1333 11 1286 2 c 1,117,-1
 1258 8 l 1,118,-1
 1245 16 l 1,119,-1
 1231 28 l 1,120,121
 1200 59 1200 59 1200 101 c 0,122,123
 1200 149 1200 149 1230 176 c 0,124,125
 1255 198 1255 198 1285 198 c 1,126,-1
 1321 194 l 1,127,128
 1351 188 1351 188 1383 162 c 1,129,130
 1403 205 1403 205 1419.5 267 c 128,-1,131
 1436 329 1436 329 1436 367 c 0,132,133
 1436 486 1436 486 1354.5 572.5 c 128,-1,134
 1273 659 1273 659 1171 659 c 0,135,136
 1090 659 1090 659 1015 599 c 1,137,138
 946 542 946 542 928 457 c 1,139,-1
 900 348 l 1,140,-1
 895 281 l 1,141,-1
 882 219 l 1,142,143
 876 198 876 198 806.5 98.5 c 128,-1,144
 737 -1 737 -1 715 -20 c 1,145,-1
 684 -52 l 1,146,-1
 646 -96 l 1,147,148
 562 -198 562 -198 549 -205 c 1,149,150
 549 -217 549 -217 492 -275 c 128,-1,151
 435 -333 435 -333 409 -349 c 1,152,-1
 404 -354 l 1,153,-1
 374 -391 l 1,154,-1
 346 -437 l 1,155,-1
 347 -498 l 1,156,-1
 348 -519 l 1,157,-1
 354 -541 l 1,158,159
 357 -568 357 -568 371 -585 c 1,160,-1
 395 -593 l 1,161,-1
 417 -596 l 1,162,-1
 435 -601 l 1,163,-1
 436 -587 l 1,164,-1
 435 -575 l 1,165,-1
 429 -557 l 1,166,167
 429 -540 429 -540 436 -533 c 1,168,169
 451 -510 451 -510 473 -510 c 1,170,-1
 485 -509 l 1,171,-1
 505 -510 l 2,172,173
 517 -510 517 -510 526 -515 c 2,174,-1
 537 -520 l 1,175,-1
 553 -532 l 1,176,-1
 566 -555 l 1,177,-1
 574 -586 l 1,178,-1
 576 -610 l 1,179,-1
 570 -633 l 2,180,181
 568 -640 568 -640 565 -643 c 2,182,-1
 556 -657 l 1,183,-1
 544 -669 l 1,184,-1
 523 -683 l 1,185,-1
 505 -684 l 1,186,-1
 482 -685 l 1,187,-1
 470 -685 l 1,188,-1
 460 -685 l 1,189,-1
 450 -683 l 1,190,-1
 421 -679 l 1,191,-1
 387 -669 l 2,192,193
 368 -663 368 -663 355 -653 c 1,194,-1
 343 -637 l 1,195,-1
 331 -612 l 1,196,-1
 323 -592 l 1,197,-1
 317 -571 l 1,198,-1
 303 -517 l 1,199,-1
 295 -457 l 1,200,-1
 293 -386 l 1,201,-1
 371 -284 l 2,202,203
 387 -262 387 -262 423 -230 c 1,204,-1
 497 -171 l 1,205,206
 497 -165 497 -165 540 -113 c 1,207,-1
 625 -15 l 1,208,-1
 714 83 l 2,209,210
 757 130 757 130 778 165 c 1,0,-1
EndSplineSet
Ligature2: "'clig' Contextual Ligatures lookup 7 subtable" u107A u103C
Ligature2: "'clig' Contextual Ligatures lookup 5 subtable" u107A u1031
MultipleSubs2: "Multiple Substitution lookup 2 subtable" guard u103C u107A
MultipleSubs2: "Multiple Substitution lookup 1 subtable" guard u103C.udia u107A
MultipleSubs2: "Multiple Substitution lookup 0 subtable" guard u1031 u107A
EndChar

StartChar: u1083
Encoding: 4227 4227 26
Width: 633
GlyphClass: 2
Flags: W
LayerCount: 2
Fore
SplineSet
535 -556 m 1,0,-1
 519 -558 l 1,1,-1
 506 -558 l 2,2,3
 474 -558 474 -558 424 -540 c 1,4,5
 394 -528 394 -528 352 -495 c 1,6,7
 276 -446 276 -446 276 -335 c 2,8,-1
 276 564 l 2,9,10
 276 624 276 624 216 672 c 0,11,12
 190 692 190 692 154 705.5 c 128,-1,13
 118 719 118 719 86 719 c 0,14,15
 50 719 50 719 17 710 c 1,16,-1
 -15 697 l 2,17,18
 -31 691 -31 691 -49 678 c 1,19,20
 -70 660 -70 660 -86 623 c 1,21,-1
 -96 592 l 1,22,-1
 -104 560 l 1,23,24
 -104 523 -104 523 -143 523 c 0,25,26
 -176 523 -176 523 -176 560 c 0,27,28
 -176 600 -176 600 -154 644 c 1,29,30
 -139 681 -139 681 -100 720 c 1,31,32
 -64 749 -64 749 -15 765 c 1,33,-1
 33 777 l 1,34,-1
 86 781 l 1,35,36
 191 781 191 781 272 724 c 0,37,38
 311 697 311 697 330.5 656.5 c 128,-1,39
 350 616 350 616 350 564 c 2,40,-1
 348 -339 l 2,41,42
 348 -395 348 -395 408 -448 c 1,43,44
 431 -466 431 -466 496 -478 c 128,-1,45
 561 -490 561 -490 600 -490 c 2,46,-1
 633 -490 l 2,47,48
 653 -490 653 -490 666 -493 c 128,-1,49
 679 -496 679 -496 680 -510 c 1,50,-1
 674 -513 l 1,51,-1
 631 -533 l 1,52,-1
 588 -545 l 1,53,-1
 535 -556 l 1,0,-1
EndSplineSet
EndChar

StartChar: u109C
Encoding: 4252 4252 27
Width: 408
GlyphClass: 2
Flags: W
LayerCount: 2
Fore
SplineSet
63 492 m 1,0,1
 83 492 83 492 101 499 c 1,2,3
 123 505 123 505 131 516 c 1,4,5
 152 539 152 539 152 572 c 0,6,7
 152 588 152 588 145 599 c 0,8,9
 131 625 131 625 131 633 c 0,10,11
 131 639 131 639 140 645 c 128,-1,12
 149 651 149 651 160 651 c 0,13,14
 217 651 217 651 267.5 611.5 c 128,-1,15
 318 572 318 572 345 495 c 1,16,-1
 376 495 l 1,17,18
 337 607 337 607 273 658 c 128,-1,19
 209 709 209 709 139 709 c 0,20,21
 103 709 103 709 79 700 c 1,22,-1
 50 687 l 1,23,-1
 30 671 l 1,24,25
 -12 636 -12 636 -12 588 c 1,26,-1
 -11 564 l 2,27,28
 -11 551 -11 551 -7 539 c 1,29,-1
 3 520 l 1,30,31
 12 508 12 508 28 498 c 1,32,-1
 48 494 l 1,33,-1
 63 492 l 1,0,1
80 552 m 0,34,35
 77 549 77 549 71 549 c 1,36,-1
 55 553 l 1,37,38
 46 558 46 558 37 574 c 1,39,40
 34 583 34 583 45 600 c 1,41,42
 57 615 57 615 64 616 c 1,43,-1
 81 613 l 1,44,45
 87 613 87 613 100 597 c 0,46,47
 105 591 105 591 99 576.5 c 128,-1,48
 93 562 93 562 80 552 c 0,34,35
56 -6 m 1,49,-1
 74 -5 l 1,50,-1
 93 1 l 2,51,52
 115 7 115 7 123 18 c 1,53,54
 145 40 145 40 145 74 c 0,55,56
 145 91 145 91 138 101 c 1,57,58
 123 130 123 130 123 137 c 1,59,-1
 126 142 l 1,60,-1
 133 146 l 1,61,-1
 154 153 l 1,62,63
 209 153 209 153 258.5 114 c 128,-1,64
 308 75 308 75 338 -2 c 1,65,-1
 369 -2 l 1,66,67
 333 109 333 109 267 160 c 1,68,69
 206 212 206 212 132 212 c 0,70,71
 102 212 102 212 72.5 203 c 128,-1,72
 43 194 43 194 23 174 c 1,73,74
 -18 141 -18 141 -18 90 c 1,75,-1
 -19 67 l 2,76,77
 -19 54 -19 54 -14 45 c 2,78,-1
 -2 21 l 1,79,-1
 21 1 l 1,80,-1
 42 -4 l 1,81,-1
 56 -6 l 1,49,-1
73 55 m 0,82,83
 70 52 70 52 64 52 c 1,84,-1
 49 57 l 2,85,86
 37 60 37 60 30 77 c 1,87,88
 27 87 27 87 38 104 c 1,89,90
 50 119 50 119 58 120 c 1,91,92
 70 120 70 120 76 117 c 128,-1,93
 82 114 82 114 92 101 c 0,94,95
 97 95 97 95 91 82 c 1,96,97
 87 70 87 70 73 55 c 0,82,83
EndSplineSet
EndChar

StartChar: u109D
Encoding: 4253 4253 28
Width: 8
GlyphClass: 4
Flags: W
AnchorPoint: "Anchor-3" -405 657 mark 0
LayerCount: 2
Fore
SplineSet
-183 933 m 1,0,1
 -200 1047 -200 1047 -274 1110 c 1,2,-1
 -296 1128 l 1,3,-1
 -320 1144 l 2,4,5
 -339 1157 -339 1157 -367 1165 c 1,6,-1
 -394 1169 l 1,7,8
 -420 1169 -420 1169 -430 1164 c 1,9,10
 -445 1161 -445 1161 -450 1153 c 1,11,-1
 -450 1127 l 1,12,-1
 -447 1109 l 1,13,-1
 -448 1098 l 1,14,-1
 -451 1091 l 1,15,-1
 -467 1065 l 1,16,-1
 -491 1042 l 1,17,-1
 -522 1023 l 1,18,19
 -540 1014 -540 1014 -565 1014 c 1,20,-1
 -581 1015 l 1,21,22
 -594 1017 -594 1017 -602 1022 c 1,23,-1
 -611 1026 l 1,24,-1
 -620 1033 l 2,25,26
 -647 1054 -647 1054 -647 1090 c 0,27,28
 -647 1127 -647 1127 -630 1151 c 1,29,-1
 -614 1170 l 1,30,-1
 -599 1189 l 1,31,-1
 -583 1206 l 1,32,-1
 -573 1213 l 1,33,34
 -567 1219 -567 1219 -562 1220 c 1,35,-1
 -527 1238 l 1,36,-1
 -497 1245 l 1,37,-1
 -472 1245 l 1,38,-1
 -446 1246 l 1,39,-1
 -403 1243 l 1,40,-1
 -363 1234 l 1,41,42
 -327 1219 -327 1219 -294 1201 c 1,43,-1
 -263 1181 l 1,44,-1
 -233 1159 l 1,45,46
 -190 1122 -190 1122 -156 1052 c 0,47,48
 -150 1038 -150 1038 -143 1019 c 1,49,50
 -143 1019 -143 1019 -133 985 c 1,51,52
 -125 950 -125 950 -125 916 c 0,53,54
 -125 872 -125 872 -134 778 c 128,-1,55
 -143 684 -143 684 -158 634 c 0,56,57
 -164 616 -164 616 -176 598 c 0,58,59
 -193 574 -193 574 -203 580 c 0,60,61
 -208 583 -208 583 -208 615 c 0,62,63
 -208 675 -208 675 -201 734 c 1,64,-1
 -183 933 l 1,0,1
EndSplineSet
EndChar

StartChar: uAA61
Encoding: 43617 43617 29
Width: 1589
GlyphClass: 3
Flags: W
AnchorPoint: "Anchor-3" 1220 694 basechar 0
AnchorPoint: "Anchor-2" 840 0 basechar 0
AnchorPoint: "Anchor-1" 1192 0 basechar 0
AnchorPoint: "Anchor-0" 1433 0 basechar 0
LayerCount: 2
Fore
SplineSet
921 468 m 1,0,-1
 953 486 l 1,1,2
 975 500 975 500 1012 500 c 0,3,4
 1051 500 1051 500 1096 461 c 1,5,6
 1145 412 1145 412 1145 349 c 0,7,8
 1145 291 1145 291 1101 244.5 c 128,-1,9
 1057 198 1057 198 1015 198 c 0,10,11
 968 198 968 198 951 207 c 1,12,-1
 915 245 l 1,13,-1
 918 216 l 1,14,15
 925 197 925 197 954 166 c 1,16,-1
 989 139 l 1,17,18
 1073 53 1073 53 1196 53 c 0,19,20
 1252 53 1252 53 1339.5 97 c 128,-1,21
 1427 141 1427 141 1453 185 c 1,22,-1
 1471 225 l 1,23,-1
 1488 274 l 1,24,-1
 1497 323 l 1,25,-1
 1501 367 l 1,26,27
 1501 484 1501 484 1410 571.5 c 128,-1,28
 1319 659 1319 659 1206 659 c 0,29,30
 1109 659 1109 659 1032 600 c 0,31,32
 1010 584 1010 584 996 566 c 1,33,-1
 981 550 l 1,34,-1
 963 531 l 1,35,-1
 941 508 l 2,36,37
 936 503 936 503 921 468 c 1,0,-1
838 354 m 1,38,-1
 837 384 l 2,39,40
 837 394 837 394 830 421 c 1,41,42
 827 443 827 443 809 482 c 1,43,44
 780 552 780 552 747 585 c 0,45,46
 743 590 743 590 714 611 c 1,47,-1
 665 631 l 1,48,-1
 637 634 l 1,49,50
 604 634 604 634 586 616 c 128,-1,51
 568 598 568 598 559 565 c 1,52,-1
 551 513 l 1,53,-1
 549 473 l 1,54,-1
 546 427 l 1,55,-1
 534 369 l 1,56,57
 516 296 516 296 485 220 c 1,58,-1
 454 151 l 1,59,-1
 438 120 l 1,60,-1
 419 91 l 1,61,62
 403 64 403 64 359.5 36.5 c 128,-1,63
 316 9 316 9 288 9 c 0,64,65
 269 9 269 9 250 20 c 1,66,-1
 230 33 l 1,67,-1
 202 57 l 1,68,69
 148 105 148 105 120 175 c 0,70,71
 100 225 100 225 90 284 c 1,72,-1
 83 339 l 1,73,-1
 80 390 l 1,74,-1
 80 432 l 1,75,-1
 80 453 l 1,76,-1
 84 482 l 2,77,78
 89 515 89 515 116 544 c 1,79,-1
 137 558 l 1,80,-1
 163 563 l 1,81,-1
 185 561 l 1,82,-1
 200 560 l 2,83,84
 233 557 233 557 251.5 535 c 128,-1,85
 270 513 270 513 270 460 c 0,86,87
 270 421 270 421 255.5 403.5 c 128,-1,88
 241 386 241 386 211 386 c 2,89,-1
 190 386 l 1,90,-1
 175 390 l 1,91,-1
 174 343 l 1,92,-1
 174 327 l 1,93,-1
 174 314 l 1,94,-1
 172 300 l 1,95,-1
 173 263 l 1,96,-1
 180 230 l 2,97,98
 192 178 192 178 227.5 136.5 c 128,-1,99
 263 95 263 95 290 95 c 0,100,101
 322 95 322 95 384 191 c 1,102,103
 429 265 429 265 460 385 c 1,104,-1
 468 431 l 1,105,-1
 477 499 l 1,106,-1
 478 529 l 2,107,108
 478 550 478 550 483 565 c 1,109,110
 486 581 486 581 495 606 c 1,111,112
 504 645 504 645 550.5 679.5 c 128,-1,113
 597 714 597 714 644 714 c 2,114,-1
 654 714 l 1,115,-1
 678 713 l 2,116,117
 691 713 691 713 704 708 c 2,118,-1
 720 702 l 1,119,120
 733 699 733 699 741 691 c 1,121,122
 769 676 769 676 789 651 c 1,123,124
 817 619 817 619 846 563 c 2,125,-1
 877 504 l 1,126,-1
 887 522 l 1,127,128
 911 586 911 586 925 597 c 1,129,-1
 952 628 l 1,130,-1
 1000 666 l 1,131,132
 1082 727 1082 727 1206 727 c 0,133,134
 1321 727 1321 727 1407.5 672.5 c 128,-1,135
 1494 618 1494 618 1536 518 c 1,136,137
 1557 476 1557 476 1563 442 c 1,138,-1
 1569 360 l 1,139,-1
 1563 293 l 1,140,-1
 1549 231 l 2,141,142
 1545 215 1545 215 1525 175 c 1,143,-1
 1516 159 l 1,144,-1
 1508 145 l 1,145,-1
 1487 117 l 1,146,147
 1455 76 1455 76 1374.5 35 c 128,-1,148
 1294 -6 1294 -6 1221 -6 c 2,149,-1
 1209 -6 l 2,150,151
 1164 -6 1164 -6 1142.5 -3 c 128,-1,152
 1121 0 1121 0 1106.5 3 c 128,-1,153
 1092 6 1092 6 1072 14 c 1,154,155
 990 38 990 38 940 88 c 1,156,-1
 914 115 l 1,157,-1
 893 142 l 1,158,-1
 864 180 l 1,159,-1
 864 192 l 2,160,161
 864 200 864 200 862 208 c 1,162,163
 862 218 862 218 857 228 c 1,164,-1
 850 269 l 1,165,-1
 838 354 l 1,38,-1
EndSplineSet
Ligature2: "'clig' Contextual Ligatures lookup 7 subtable" uAA61 u103C
Ligature2: "'clig' Contextual Ligatures lookup 5 subtable" uAA61 u1031
MultipleSubs2: "Multiple Substitution lookup 2 subtable" guard u103C uAA61
MultipleSubs2: "Multiple Substitution lookup 1 subtable" guard u103C.udia uAA61
MultipleSubs2: "Multiple Substitution lookup 0 subtable" guard u1031 uAA61
EndChar

StartChar: uAA62
Encoding: 43618 43618 30
Width: 1497
GlyphClass: 3
Flags: W
AnchorPoint: "Anchor-3" 1096 694 basechar 0
AnchorPoint: "Anchor-2" 744 0 basechar 0
AnchorPoint: "Anchor-1" 1076 0 basechar 0
AnchorPoint: "Anchor-0" 1300 0 basechar 0
LayerCount: 2
Fore
SplineSet
205 689 m 2,0,1
 190 680 190 680 174 664 c 1,2,3
 162 655 162 655 147 637 c 1,4,-1
 117 594 l 1,5,-1
 95 544 l 1,6,-1
 74 477 l 1,7,-1
 63 412 l 1,8,-1
 59 348 l 1,9,10
 59 208 59 208 163.5 95 c 128,-1,11
 268 -18 268 -18 420 -18 c 0,12,13
 518 -18 518 -18 606 37 c 1,14,15
 651 61 651 61 664 77 c 1,16,17
 701 117 701 117 701 188 c 1,18,-1
 700 212 l 2,19,20
 700 228 700 228 695 248 c 1,21,22
 691 275 691 275 675 327 c 128,-1,23
 659 379 659 379 659 407 c 0,24,25
 659 485 659 485 748 494 c 1,26,27
 791 485 791 485 821 464 c 1,28,29
 844 446 844 446 844 413 c 2,30,-1
 844 394 l 1,31,-1
 840 377 l 1,32,-1
 836 359 l 1,33,-1
 829 334 l 2,34,35
 815 285 815 285 808.5 246 c 128,-1,36
 802 207 802 207 802 175 c 0,37,38
 802 127 802 127 818 96 c 0,39,40
 827 78 827 78 877 43 c 1,41,-1
 925 22 l 1,42,-1
 972 7 l 1,43,-1
 1019 -2 l 1,44,-1
 1067 -6 l 1,45,46
 1211 -6 1211 -6 1319 108 c 128,-1,47
 1427 222 1427 222 1427 360 c 1,48,-1
 1423 424 l 1,49,-1
 1413 489 l 1,50,51
 1407 521 1407 521 1395 549 c 2,52,-1
 1383 579 l 1,53,54
 1380 592 1380 592 1370 606 c 1,55,56
 1348 647 1348 647 1313 676 c 2,57,-1
 1300 687 l 1,58,-1
 1283 697 l 1,59,-1
 1265 706 l 1,60,-1
 1239 717 l 1,61,62
 1209 717 1209 717 1200 711 c 1,63,64
 1190 698 1190 698 1190 682 c 1,65,66
 1197 668 1197 668 1212 653 c 1,67,-1
 1249 633 l 1,68,-1
 1272 616 l 1,69,-1
 1296 585 l 1,70,-1
 1315 557 l 1,71,-1
 1327 532 l 1,72,-1
 1335 512 l 1,73,-1
 1350 467 l 1,74,-1
 1358 428 l 1,75,-1
 1358 360 l 2,76,77
 1358 237 1358 237 1270 149 c 128,-1,78
 1182 61 1182 61 1067 61 c 0,79,80
 1011 61 1011 61 964 76 c 128,-1,81
 917 91 917 91 870 137 c 0,82,83
 858 149 858 149 858 179 c 1,84,-1
 859 195 l 1,85,-1
 865 224 l 1,86,-1
 886 323 l 1,87,88
 901 386 901 386 901 419 c 0,89,90
 901 445 901 445 889 475 c 1,91,92
 876 500 876 500 848 520 c 1,93,94
 796 546 796 546 750 546 c 1,95,-1
 730 545 l 2,96,97
 719 545 719 545 708 541 c 2,98,-1
 677 532 l 1,99,-1
 652 520 l 1,100,101
 627 506 627 506 610 479 c 1,102,103
 598 453 598 453 598 416 c 0,104,105
 598 384 598 384 619 298.5 c 128,-1,106
 640 213 640 213 640 179 c 0,107,108
 640 151 640 151 627 137 c 0,109,110
 583 94 583 94 532 71 c 1,111,-1
 478 55 l 1,112,113
 451 49 451 49 420 49 c 0,114,115
 303 49 303 49 216 136 c 128,-1,116
 129 223 129 223 129 348 c 2,117,-1
 129 416 l 1,118,-1
 137 455 l 1,119,120
 140 491 140 491 148 500 c 1,121,-1
 154 516 l 1,122,-1
 171 546 l 1,123,-1
 198 502 l 1,124,125
 217 486 217 486 261 486 c 0,126,127
 295 486 295 486 328 515 c 0,128,129
 366 548 366 548 366 597 c 0,130,131
 366 649 366 649 337 678.5 c 128,-1,132
 308 708 308 708 265 708 c 0,133,134
 243 708 243 708 241 706 c 1,135,-1
 223 699 l 1,136,-1
 205 689 l 2,0,1
EndSplineSet
Ligature2: "'clig' Contextual Ligatures lookup 7 subtable" uAA62 u103C
Ligature2: "'clig' Contextual Ligatures lookup 5 subtable" uAA62 u1031
MultipleSubs2: "Multiple Substitution lookup 2 subtable" guard u103C uAA62
MultipleSubs2: "Multiple Substitution lookup 1 subtable" guard u103C.udia uAA62
MultipleSubs2: "Multiple Substitution lookup 0 subtable" guard u1031 uAA62
EndChar

StartChar: uAA6B
Encoding: 43627 43627 31
Width: 946
GlyphClass: 3
Flags: W
AnchorPoint: "Anchor-3" 495 694 basechar 0
AnchorPoint: "Anchor-2" 492 0 basechar 0
AnchorPoint: "Anchor-1" 642 0 basechar 0
LayerCount: 2
Fore
SplineSet
430 527 m 1,0,-1
 435 438 l 1,1,-1
 434 403 l 1,2,-1
 433 384 l 2,3,4
 433 375 433 375 429 364 c 1,5,6
 429 347 429 347 424 339 c 1,7,-1
 412 308 l 1,8,9
 373 229 373 229 321 165 c 1,10,-1
 307 151 l 1,11,-1
 285 126 l 1,12,-1
 255 100 l 1,13,-1
 182 78 l 1,14,-1
 142 71 l 1,15,-1
 148 75 l 1,16,-1
 166 86 l 1,17,-1
 249 124 l 1,18,-1
 284 116 l 1,19,20
 318 107 318 107 339.5 97.5 c 128,-1,21
 361 88 361 88 381.5 69.5 c 128,-1,22
 402 51 402 51 402 38 c 2,23,-1
 401 18 l 2,24,25
 401 12 401 12 393.5 4.5 c 128,-1,26
 386 -3 386 -3 363 -3 c 1,27,-1
 355 0 l 1,28,-1
 344 6 l 1,29,-1
 300 36 l 1,30,31
 279 48 279 48 213 69 c 2,32,-1
 157 87 l 1,33,-1
 146 96 l 1,34,-1
 140 101 l 1,35,-1
 136 107 l 1,36,37
 136 120 136 120 138 124 c 2,38,-1
 144 137 l 1,39,-1
 161 147 l 1,40,-1
 176 147 l 1,41,-1
 192 149 l 1,42,-1
 196 153 l 1,43,-1
 201 155 l 1,44,-1
 207 158 l 1,45,-1
 223 169 l 1,46,-1
 247 191 l 1,47,-1
 269 217 l 1,48,49
 288 236 288 236 313 270 c 1,50,-1
 328 297 l 1,51,-1
 338 320 l 1,52,-1
 348 339 l 1,53,54
 375 387 375 387 375 440 c 0,55,56
 375 465 375 465 363 513 c 1,57,-1
 349 547 l 1,58,-1
 344 557 l 1,59,-1
 332 574 l 1,60,61
 323 589 323 589 298.5 601 c 128,-1,62
 274 613 274 613 246 613 c 1,63,-1
 235 588 l 1,64,-1
 223 568 l 1,65,-1
 211 551 l 1,66,-1
 196 536 l 1,67,68
 184 530 184 530 161 530 c 2,69,-1
 138 531 l 2,70,71
 131 531 131 531 117 539 c 128,-1,72
 103 547 103 547 86 579 c 1,73,-1
 79 613 l 1,74,75
 79 635 79 635 91 659 c 1,76,77
 103 678 103 678 126 694 c 1,78,-1
 148 701 l 1,79,-1
 172 708 l 1,80,-1
 191 705 l 1,81,-1
 214 701 l 1,82,83
 226 701 226 701 282 689 c 0,84,85
 327 680 327 680 340 664 c 1,86,-1
 398 610 l 1,87,88
 415 589 415 589 430 527 c 1,0,-1
639 670 m 1,89,-1
 671 670 l 2,90,91
 689 670 689 670 695 667 c 2,92,-1
 710 662 l 1,93,94
 723 660 723 660 734 651 c 2,95,-1
 772 624 l 1,96,97
 789 609 789 609 804 592 c 1,98,-1
 825 555 l 1,99,-1
 833 535 l 1,100,-1
 844 504 l 1,101,-1
 860 448 l 1,102,-1
 871 401 l 1,103,-1
 874 372 l 1,104,-1
 875 342 l 1,105,-1
 875 322 l 1,106,-1
 875 310 l 2,107,108
 875 300 875 300 873 298 c 1,109,-1
 867 263 l 1,110,-1
 864 241 l 1,111,-1
 859 225 l 1,112,-1
 844 186 l 1,113,114
 836 155 836 155 822 128 c 1,115,116
 813 107 813 107 801 92 c 1,117,-1
 790 76 l 1,118,-1
 775 61 l 1,119,-1
 750 36 l 1,120,121
 728 20 728 20 683 20 c 0,122,123
 654 20 654 20 624 46 c 128,-1,124
 594 72 594 72 594 115 c 0,125,126
 594 160 594 160 626 186 c 0,127,128
 652 207 652 207 683 207 c 1,129,-1
 706 206 l 2,130,131
 712 206 712 206 726 199 c 1,132,133
 745 194 745 194 762 177 c 1,134,-1
 787 236 l 1,135,-1
 795 264 l 1,136,-1
 803 296 l 1,137,-1
 807 328 l 1,138,-1
 808 344 l 1,139,-1
 805 388 l 1,140,-1
 797 452 l 1,141,142
 791 489 791 489 777 510 c 1,143,-1
 764 537 l 2,144,145
 758 549 758 549 736 565 c 1,146,147
 726 575 726 575 690 594 c 2,148,-1
 680 599 l 1,149,-1
 665 603 l 1,150,-1
 643 603 l 1,151,-1
 628 599 l 1,152,-1
 600 504 l 1,153,-1
 592 529 l 1,154,-1
 582 561 l 1,155,-1
 582 578 l 2,156,157
 582 594 582 594 587 608 c 1,158,159
 591 624 591 624 603 640 c 0,160,161
 627 669 627 669 639 670 c 1,89,-1
EndSplineSet
Ligature2: "'clig' Contextual Ligatures lookup 7 subtable" uAA6B u103C
Ligature2: "'clig' Contextual Ligatures lookup 5 subtable" uAA6B u1031
MultipleSubs2: "Multiple Substitution lookup 2 subtable" guard u103C.nar uAA6B
MultipleSubs2: "Multiple Substitution lookup 1 subtable" guard u103C.nar.udia uAA6B
MultipleSubs2: "Multiple Substitution lookup 0 subtable" guard u1031 uAA6B
EndChar

StartChar: uAA6D
Encoding: 43629 43629 32
Width: 1116
GlyphClass: 3
Flags: W
AnchorPoint: "Anchor-3" 723 694 basechar 0
AnchorPoint: "Anchor-2" 561 0 basechar 0
AnchorPoint: "Anchor-1" 840 0 basechar 0
LayerCount: 2
Fore
SplineSet
387 176 m 1,0,-1
 387 163 l 1,1,-1
 385 144 l 1,2,3
 385 132 385 132 376 117 c 1,4,5
 365 92 365 92 342 66 c 1,6,-1
 387 176 l 1,0,-1
61 168 m 1,7,8
 61 111 61 111 113 55 c 0,9,10
 128 40 128 40 160 24 c 1,11,-1
 185 15 l 1,12,-1
 221 4 l 1,13,-1
 234 -40 l 1,14,15
 243 -75 243 -75 250 -84 c 1,16,-1
 256 -113 l 1,17,-1
 258 -145 l 1,18,19
 258 -182 258 -182 248.5 -211.5 c 128,-1,20
 239 -241 239 -241 215 -283 c 0,21,22
 174 -354 174 -354 96 -403 c 1,23,24
 75 -421 75 -421 28 -428 c 2,25,-1
 -12 -434 l 1,26,-1
 -59 -436 l 1,27,-1
 -69 -434 l 1,28,29
 -83 -434 -83 -434 -94 -451 c 1,30,-1
 -99 -465 l 1,31,32
 -99 -477 -99 -477 -80 -492 c 1,33,34
 -53 -498 -53 -498 -26 -498 c 0,35,36
 20 -498 20 -498 92 -471 c 1,37,-1
 120 -459 l 1,38,-1
 146 -445 l 2,39,40
 170 -433 170 -433 193 -410 c 1,41,-1
 231 -367 l 1,42,-1
 266 -317 l 1,43,-1
 297 -254 l 1,44,-1
 307 -221 l 1,45,-1
 311 -182 l 1,46,-1
 311 -168 l 1,47,-1
 311 -143 l 1,48,-1
 306 -116 l 1,49,50
 306 -106 306 -106 302 -94 c 2,51,-1
 291 -58 l 1,52,-1
 272 12 l 1,53,-1
 288 16 l 1,54,-1
 303 26 l 2,55,56
 318 35 318 35 341 64 c 1,57,-1
 358 87 l 1,58,-1
 376 118 l 1,59,-1
 384 143 l 1,60,-1
 387 176 l 1,61,62
 387 190 387 190 414 308 c 128,-1,63
 441 426 441 426 453 444 c 1,64,65
 471 528 471 528 548.5 587.5 c 128,-1,66
 626 647 626 647 723 647 c 0,67,68
 832 647 832 647 925 561 c 128,-1,69
 1018 475 1018 475 1018 354 c 1,70,-1
 1017 324 l 2,71,72
 1017 298 1017 298 1012 287 c 1,73,-1
 1006 258 l 1,74,-1
 1002 244 l 1,75,-1
 995 224 l 1,76,77
 968 137 968 137 930 118 c 1,78,-1
 915 133 l 1,79,-1
 897 150 l 1,80,-1
 882 156 l 1,81,-1
 852 164 l 1,82,83
 821 164 821 164 798 145 c 0,84,85
 767 120 767 120 767 77 c 0,86,87
 767 41 767 41 798 9 c 1,88,89
 826 -16 826 -16 854 -16 c 0,90,91
 883 -16 883 -16 928 11 c 1,92,93
 954 31 954 31 994 84 c 1,94,-1
 1035 150 l 1,95,96
 1056 191 1056 191 1065 219 c 1,97,-1
 1079 281 l 1,98,-1
 1085 348 l 1,99,-1
 1079 430 l 1,100,-1
 1070 465 l 1,101,-1
 1063 484 l 1,102,-1
 1053 506 l 2,103,104
 1008 604 1008 604 920 659.5 c 128,-1,105
 832 715 832 715 723 715 c 0,106,107
 603 715 603 715 522.5 655.5 c 128,-1,108
 442 596 442 596 381 461 c 1,109,-1
 352 344 l 1,110,-1
 315 186 l 1,111,112
 318 162 318 162 294 120 c 1,113,-1
 263 91 l 1,114,-1
 248 85 l 1,115,-1
 227 78 l 1,116,117
 185 78 185 78 162 104 c 1,118,-1
 61 168 l 1,7,8
227 78 m 1,119,120
 185 78 185 78 162 104 c 1,121,-1
 152 116 l 1,122,-1
 142 131 l 1,123,-1
 132 168 l 1,124,-1
 149 147 l 2,125,126
 159 134 159 134 176 134 c 1,127,-1
 186 135 l 2,128,129
 210 138 210 138 233 161 c 0,130,131
 260 188 260 188 260 224 c 0,132,133
 260 263 260 263 225 294 c 0,134,135
 195 321 195 321 168 321 c 1,136,-1
 153 318 l 2,137,138
 143 316 143 316 135 310 c 1,139,140
 116 300 116 300 102 288 c 0,141,142
 78 267 78 267 69 237 c 1,143,-1
 63 203 l 1,144,-1
 61 168 l 1,145,146
 61 111 61 111 113 55 c 1,147,-1
 227 78 l 1,119,120
EndSplineSet
Ligature2: "'clig' Contextual Ligatures lookup 7 subtable" uAA6D u103C
Ligature2: "'clig' Contextual Ligatures lookup 5 subtable" uAA6D u1031
MultipleSubs2: "Multiple Substitution lookup 2 subtable" guard u103C.nar uAA6D
MultipleSubs2: "Multiple Substitution lookup 1 subtable" guard u103C.nar.udia uAA6D
MultipleSubs2: "Multiple Substitution lookup 0 subtable" guard u1031 uAA6D
EndChar

StartChar: uAA77
Encoding: 43639 43639 33
Width: 1654
GlyphClass: 2
Flags: W
LayerCount: 2
Fore
SplineSet
1017 744 m 0,0,1
 1011 740 1011 740 988 713 c 1,2,-1
 962 679 l 1,3,4
 951 682 951 682 924 708 c 1,5,6
 899 735 899 735 873 771 c 1,7,8
 840 821 840 821 831 840 c 0,9,10
 828 847 828 847 825.5 856 c 128,-1,11
 823 865 823 865 820 879 c 1,12,-1
 818 906 l 1,13,-1
 818 920 l 2,14,15
 818 970 818 970 833 1015 c 128,-1,16
 848 1060 848 1060 872.5 1075 c 128,-1,17
 897 1090 897 1090 988 1108 c 2,18,-1
 1173 1143 l 1,19,20
 1229 1159 1229 1159 1334 1209 c 1,21,-1
 1419 1251 l 1,22,23
 1483 1299 1483 1299 1511 1353 c 1,24,25
 1527 1390 1527 1390 1527 1437 c 2,26,-1
 1527 1467 l 2,27,28
 1527 1508 1527 1508 1524 1534 c 1,29,30
 1524 1556 1524 1556 1512 1562 c 1,31,32
 1497 1571 1497 1571 1486 1542 c 1,33,-1
 1480 1500 l 1,34,35
 1472 1454 1472 1454 1458 1425 c 1,36,37
 1440 1383 1440 1383 1425 1362 c 0,38,39
 1407 1335 1407 1335 1376 1313 c 0,40,41
 1355 1299 1355 1299 1279 1260 c 128,-1,42
 1203 1221 1203 1221 1143 1200 c 1,43,-1
 995 1174 l 1,44,45
 890 1159 890 1159 834 1131 c 1,46,47
 795 1110 795 1110 773 1061 c 1,48,49
 754 1007 754 1007 754 946 c 1,50,-1
 755 909 l 2,51,52
 755 889 755 889 760 868 c 1,53,54
 763 845 763 845 767 837 c 2,55,-1
 780 803 l 1,56,57
 801 758 801 758 849 700 c 1,58,-1
 906 636 l 1,59,60
 879 636 879 636 834 642 c 2,61,-1
 795 648 l 1,62,-1
 702 629 l 2,63,64
 633 614 633 614 616 601 c 1,65,66
 536 550 536 550 464 422 c 1,67,-1
 456 400 l 1,68,-1
 454 378 l 1,69,-1
 450 368 l 1,70,71
 429 350 429 350 401 262 c 1,72,-1
 387 209 l 1,73,-1
 372 141 l 1,74,75
 367 108 367 108 346 81 c 1,76,77
 314 54 314 54 289 54 c 0,78,79
 259 54 259 54 203 132 c 1,80,-1
 157 211 l 1,81,-1
 139 305 l 1,82,-1
 133 347 l 1,83,-1
 135 378 l 1,84,85
 135 401 135 401 151 404 c 1,86,-1
 173 399 l 1,87,-1
 190 396 l 1,88,-1
 212 398 l 1,89,-1
 231 407 l 1,90,-1
 243 417 l 1,91,-1
 254 432 l 2,92,93
 266 450 266 450 266 459 c 1,94,95
 269 464 269 464 269 480 c 2,96,-1
 269 501 l 1,97,98
 257 533 257 533 241 548 c 1,99,100
 235 551 235 551 222 556 c 128,-1,101
 209 561 209 561 195 561 c 0,102,103
 172 561 172 561 166 559 c 1,104,105
 161 559 161 559 147 550 c 1,106,-1
 113 519 l 2,107,108
 91 499 91 499 79 471 c 1,109,-1
 73 453 l 1,110,-1
 71 432 l 1,111,-1
 66 391 l 1,112,-1
 65 355 l 1,113,-1
 65 310 l 1,114,-1
 70 272 l 1,115,-1
 86 221 l 1,116,117
 128 109 128 109 180 54 c 1,118,-1
 210 24 l 1,119,120
 225 12 225 12 243 3 c 1,121,122
 256 -2 256 -2 274.5 -6 c 128,-1,123
 293 -10 293 -10 306 -10 c 0,124,125
 327 -10 327 -10 337 -5 c 1,126,127
 365 4 365 4 391 32 c 1,128,129
 420 60 420 60 434 89 c 1,130,-1
 450 141 l 1,131,-1
 465 200 l 1,132,-1
 482 254 l 1,133,134
 518 355 518 355 528 367 c 1,135,-1
 531 389 l 1,136,-1
 534 399 l 1,137,138
 564 481 564 481 645 535 c 1,139,140
 719 578 719 578 794 578 c 1,141,-1
 840 575 l 2,142,143
 851 575 851 575 870.5 564 c 128,-1,144
 890 553 890 553 906 534 c 0,145,146
 947 485 947 485 987.5 404.5 c 128,-1,147
 1028 324 1028 324 1028 275 c 0,148,149
 1028 243 1028 243 1014 215 c 0,150,151
 1008 202 1008 202 994.5 179 c 128,-1,152
 981 156 981 156 956 119 c 1,153,154
 943 95 943 95 939 92 c 1,155,-1
 819 -47 l 2,156,157
 780 -92 780 -92 747 -137 c 1,158,159
 747 -137 747 -137 717 -182 c 0,160,161
 704 -203 704 -203 690 -229 c 0,162,163
 622 -353 622 -353 622 -450 c 0,164,165
 622 -524 622 -524 678 -624 c 1,166,-1
 701 -663 l 1,167,-1
 735 -715 l 1,168,169
 741 -739 741 -739 761 -756 c 1,170,171
 780 -775 780 -775 805 -786 c 2,172,-1
 851 -807 l 1,173,-1
 870 -811 l 1,174,-1
 890 -815 l 1,175,-1
 903 -814 l 1,176,177
 931 -808 931 -808 948 -791 c 1,178,179
 960 -781 960 -781 979 -751 c 0,180,181
 993 -730 993 -730 1000 -702 c 2,182,-1
 1006 -675 l 1,183,-1
 1008 -645 l 1,184,-1
 1008 -632 l 2,185,186
 1008 -623 1008 -623 1006 -615 c 1,187,188
 1006 -605 1006 -605 999 -590 c 1,189,190
 994 -575 994 -575 982 -565 c 1,191,-1
 964 -560 l 1,192,193
 939 -560 939 -560 939 -656 c 0,194,195
 939 -753 939 -753 895 -753 c 0,196,197
 868 -753 868 -753 832 -726 c 1,198,-1
 801 -699 l 1,199,-1
 786 -677 l 1,200,-1
 771 -652 l 1,201,-1
 738 -589 l 1,202,203
 693 -497 693 -497 693 -453 c 0,204,205
 693 -404 693 -404 729 -316 c 128,-1,206
 765 -228 765 -228 820 -161 c 1,207,-1
 914 -53 l 1,208,-1
 988 37 l 1,209,-1
 1025 94 l 1,210,-1
 1068 174 l 2,211,212
 1075 189 1075 189 1088 244 c 1,213,-1
 1094 280 l 1,214,-1
 1095 304 l 1,215,-1
 1092 330 l 1,216,-1
 1080 363 l 1,217,-1
 1064 402 l 2,218,219
 1059 416 1059 416 1056.5 421 c 128,-1,220
 1054 426 1054 426 1044 441 c 1,221,-1
 1002 518 l 1,222,223
 981 559 981 559 975 590 c 1,224,225
 972 613 972 613 1000.5 650.5 c 128,-1,226
 1029 688 1029 688 1048 688 c 1,227,-1
 1077 682 l 2,228,229
 1083 681 1083 681 1090 680 c 128,-1,230
 1097 679 1097 679 1108 674 c 1,231,232
 1175 656 1175 656 1205 633 c 1,233,234
 1230 616 1230 616 1255 585 c 0,235,236
 1270 565 1270 565 1295 520 c 1,237,-1
 1302 494 l 1,238,-1
 1304 454 l 1,239,-1
 1304 419 l 1,240,241
 1301 390 1301 390 1300 374 c 1,242,243
 1300 355 1300 355 1296.5 328.5 c 128,-1,244
 1293 302 1293 302 1287 267 c 1,245,-1
 1281 220 l 1,246,-1
 1270 160 l 1,247,248
 1270 -64 1270 -64 1279 -144.5 c 128,-1,249
 1288 -225 1288 -225 1325 -280 c 0,250,251
 1350 -317 1350 -317 1400 -347 c 1,252,253
 1430 -363 1430 -363 1497 -385 c 1,254,-1
 1574 -398 l 1,255,-1
 1678 -413 l 1,256,257
 1689 -413 1689 -413 1772 -384 c 1,258,-1
 1859 -348 l 1,259,260
 1841 -327 1841 -327 1814 -327 c 0,261,262
 1801 -327 1801 -327 1741 -346 c 1,263,264
 1721 -351 1721 -351 1709.5 -353 c 128,-1,265
 1698 -355 1698 -355 1687 -356 c 1,266,-1
 1675 -355 l 1,267,-1
 1620 -351 l 1,268,-1
 1595 -343 l 1,269,-1
 1514 -325 l 1,270,271
 1478 -319 1478 -319 1445 -296 c 1,272,273
 1403 -272 1403 -272 1374 -234 c 1,274,275
 1354 -206 1354 -206 1342 -126 c 1,276,277
 1338 -86 1338 -86 1336 -44 c 128,-1,278
 1334 -2 1334 -2 1334 53 c 2,279,-1
 1334 108 l 1,280,-1
 1335 160 l 2,281,282
 1335 187 1335 187 1337 209.5 c 128,-1,283
 1339 232 1339 232 1345 266 c 2,284,-1
 1361 368 l 1,285,-1
 1367 432 l 1,286,-1
 1364 488 l 2,287,288
 1363 500 1363 500 1360 516.5 c 128,-1,289
 1357 533 1357 533 1353 549 c 0,290,291
 1344 594 1344 594 1313 628 c 0,292,293
 1294 648 1294 648 1239 690 c 1,294,295
 1199 719 1199 719 1159 735.5 c 128,-1,296
 1119 752 1119 752 1086 752 c 2,297,-1
 1065 752 l 1,298,-1
 1043 750 l 1,299,300
 1028 750 1028 750 1017 744 c 0,0,1
EndSplineSet
EndChar

StartChar: uAA78
Encoding: 43640 43640 34
Width: 1045
GlyphClass: 2
Flags: W
LayerCount: 2
Fore
SplineSet
1076 954 m 1,0,1
 1070 930 1070 930 1050 921 c 1,2,-1
 1043 920 l 1,3,-1
 1040 919 l 1,4,5
 1034 919 1034 919 1025 925 c 2,6,-1
 998 942 l 1,7,-1
 972 954 l 1,8,-1
 955 950 l 1,9,-1
 936 944 l 1,10,-1
 928 941 l 1,11,-1
 923 938 l 2,12,13
 917 935 917 935 913 930 c 1,14,15
 899 921 899 921 895 902 c 1,16,-1
 883 868 l 1,17,-1
 885 865 l 1,18,-1
 856 802 l 1,19,-1
 805 682 l 1,20,-1
 765 559 l 1,21,-1
 718 379 l 1,22,23
 693 262 693 262 664 107 c 1,24,-1
 645 -17 l 1,25,-1
 641 -17 l 1,26,27
 629 -9 629 -9 622 -8 c 2,28,-1
 593 -4 l 1,29,-1
 579 -6 l 1,30,-1
 571 8 l 1,31,-1
 566 26 l 1,32,33
 571 65 571 65 542 107 c 1,34,35
 512 140 512 140 447 156 c 1,36,-1
 417 159 l 1,37,38
 392 159 392 159 381 155 c 1,39,40
 366 152 366 152 347 139 c 1,41,-1
 316 121 l 1,42,-1
 304 108 l 1,43,-1
 298 101 l 1,44,45
 290 95 290 95 282 81 c 2,46,-1
 272 61 l 1,47,-1
 276 52 l 1,48,-1
 279 28 l 1,49,-1
 274 3 l 1,50,-1
 253 -6 l 1,51,-1
 235 -7 l 1,52,-1
 227 -1 l 1,53,-1
 217 9 l 1,54,-1
 207 23 l 1,55,-1
 201 49 l 1,56,-1
 203 64 l 1,57,-1
 204 83 l 1,58,59
 206 93 206 93 215 106 c 1,60,61
 221 121 221 121 236 136 c 1,62,-1
 252 156 l 1,63,-1
 277 174 l 1,64,-1
 306 192 l 1,65,66
 355 221 355 221 421 221 c 2,67,-1
 438 221 l 1,68,-1
 458 219 l 1,69,70
 498 213 498 213 528 190 c 0,71,72
 534 186 534 186 590 130 c 1,73,-1
 602 159 l 2,74,75
 617 197 617 197 620 215 c 0,76,77
 628 265 628 265 644 332 c 2,78,-1
 671 441 l 1,79,-1
 682 499 l 1,80,-1
 700 577 l 2,81,82
 710 617 710 617 733 680 c 2,83,-1
 773 787 l 1,84,-1
 817 893 l 1,85,-1
 829 930 l 1,86,-1
 847 965 l 1,87,-1
 855 974 l 1,88,-1
 870 986 l 1,89,-1
 904 1005 l 1,90,-1
 940 1018 l 1,91,-1
 978 1022 l 1,92,93
 993 1022 993 1022 1005 1016 c 2,94,-1
 1025 1005 l 1,95,-1
 1046 995 l 1,96,97
 1055 992 1055 992 1061 986 c 1,98,99
 1076 975 1076 975 1076 954 c 1,0,1
649 663 m 1,100,101
 649 636 649 636 637 612 c 1,102,103
 631 594 631 594 612 569 c 128,-1,104
 593 544 593 544 550 515 c 0,105,106
 525 497 525 497 473 487 c 1,107,-1
 453 484 l 1,108,-1
 439 484 l 2,109,110
 410 484 410 484 379 490 c 128,-1,111
 348 496 348 496 322 512 c 1,112,-1
 293 528 l 1,113,-1
 266 548 l 1,114,-1
 247 571 l 1,115,-1
 229 596 l 1,116,-1
 219 620 l 1,117,-1
 217 639 l 1,118,-1
 214 658 l 1,119,-1
 218 676 l 2,120,121
 221 685 221 685 228 692 c 2,122,-1
 237 702 l 1,123,-1
 247 709 l 1,124,-1
 264 709 l 1,125,-1
 287 705 l 1,126,-1
 289 687 l 1,127,-1
 291 676 l 1,128,-1
 289 652 l 1,129,-1
 287 640 l 1,130,-1
 296 623 l 1,131,132
 296 614 296 614 308 605 c 1,133,-1
 311 602 l 1,134,-1
 319 595 l 1,135,-1
 332 583 l 1,136,-1
 349 573 l 1,137,-1
 360 565 l 1,138,-1
 375 556 l 1,139,-1
 398 549 l 2,140,141
 410 546 410 546 432 546 c 1,142,-1
 462 549 l 1,143,144
 522 563 522 563 556 602 c 1,145,146
 580 637 580 637 580 675 c 2,147,-1
 580 687 l 1,148,-1
 583 698 l 1,149,-1
 591 714 l 1,150,-1
 608 703 l 1,151,-1
 632 697 l 1,152,-1
 649 663 l 1,100,101
273 355 m 1,153,154
 273 299 273 299 243 240 c 1,155,-1
 227 214 l 1,156,-1
 205 189 l 1,157,-1
 180 166 l 1,158,-1
 154 148 l 1,159,-1
 132 138 l 1,160,-1
 113 136 l 1,161,-1
 98 136 l 1,162,-1
 77 140 l 1,163,-1
 72 143 l 1,164,-1
 58 152 l 1,165,-1
 47 162 l 1,166,-1
 44 169 l 1,167,-1
 44 186 l 1,168,-1
 49 208 l 1,169,-1
 66 210 l 1,170,-1
 78 213 l 1,171,-1
 101 210 l 1,172,-1
 112 206 l 1,173,-1
 133 218 l 1,174,175
 142 221 142 221 149 228 c 2,176,-1
 158 239 l 1,177,-1
 173 252 l 1,178,-1
 191 281 l 1,179,-1
 204 316 l 1,180,-1
 211 354 l 1,181,-1
 208 382 l 1,182,183
 193 436 193 436 157 477 c 1,184,185
 122 503 122 503 86 503 c 1,186,-1
 74 502 l 1,187,-1
 58 506 l 2,188,189
 53 508 53 508 48 514 c 1,190,-1
 57 532 l 1,191,-1
 63 552 l 1,192,-1
 97 571 l 1,193,-1
 118 568 l 1,194,-1
 150 556 l 1,195,-1
 175 544 l 1,196,-1
 194 530 l 1,197,198
 244 486 244 486 271 392 c 1,199,-1
 272 372 l 1,200,-1
 273 355 l 1,153,154
EndSplineSet
EndChar

StartChar: uAA79
Encoding: 43641 43641 35
Width: 844
GlyphClass: 2
Flags: W
AnchorPoint: "Anchor-3" 423 694 basechar 0
LayerCount: 2
Fore
SplineSet
502 6 m 1,0,-1
 428 2 l 1,1,2
 360 2 360 2 293.5 26 c 128,-1,3
 227 50 227 50 168 104 c 1,4,5
 156 117 156 117 146 129 c 2,6,-1
 124 158 l 1,7,8
 105 188 105 188 88 221 c 1,9,-1
 70 287 l 1,10,-1
 61 358 l 1,11,12
 61 505 61 505 166 616 c 128,-1,13
 271 727 271 727 422 727 c 0,14,15
 566 727 566 727 675 627 c 128,-1,16
 784 527 784 527 784 377 c 2,17,-1
 786 -494 l 1,18,-1
 786 -510 l 1,19,-1
 790 -522 l 1,20,-1
 805 -553 l 1,21,22
 814 -562 814 -562 831 -565 c 1,23,-1
 874 -567 l 2,24,25
 895 -567 895 -567 895 -602 c 0,26,27
 895 -639 895 -639 874 -639 c 1,28,-1
 811 -633 l 1,29,-1
 764 -608 l 1,30,31
 717 -566 717 -566 717 -500 c 2,32,-1
 717 367 l 2,33,34
 717 483 717 483 629 571 c 0,35,36
 583 617 583 617 534 637 c 0,37,38
 510 647 510 647 481.5 653 c 128,-1,39
 453 659 453 659 422 659 c 0,40,41
 306 659 306 659 218.5 571.5 c 128,-1,42
 131 484 131 484 131 358 c 1,43,-1
 133 309 l 1,44,-1
 139 287 l 1,45,-1
 152 256 l 1,46,-1
 182 274 l 1,47,-1
 207 285 l 1,48,-1
 266 293 l 1,49,50
 342 293 342 293 434 219 c 1,51,52
 471 184 471 184 489 141 c 1,53,54
 508 105 508 105 508 51 c 1,55,-1
 502 6 l 1,0,-1
172 213 m 1,56,57
 182 198 182 198 206 174 c 0,58,59
 216 164 216 164 244 139 c 2,60,-1
 276 111 l 1,61,62
 345 68 345 68 426 68 c 1,63,-1
 457 70 l 1,64,65
 451 134 451 134 391 188 c 1,66,67
 338 244 338 244 264 244 c 1,68,-1
 217 238 l 1,69,-1
 172 213 l 1,56,57
EndSplineSet
EndChar

StartChar: uAA7A
Encoding: 43642 43642 36
Width: 1695
GlyphClass: 3
Flags: W
AnchorPoint: "Anchor-3" 1404 754 basechar 0
AnchorPoint: "Anchor-1" 1300 0 basechar 0
LayerCount: 2
Fore
SplineSet
1020 75 m 1,0,1
 972 123 972 123 938 203 c 1,2,3
 923 243 923 243 914 282 c 1,4,-1
 908 320 l 1,5,-1
 906 361 l 1,6,7
 906 488 906 488 818 578 c 128,-1,8
 730 668 730 668 607 668 c 0,9,10
 491 668 491 668 403.5 580.5 c 128,-1,11
 316 493 316 493 316 369 c 0,12,13
 316 318 316 318 334 261 c 1,14,15
 353 212 353 212 402 165 c 0,16,17
 412 156 412 156 474 118 c 1,18,19
 508 106 508 106 557 97 c 1,20,21
 557 140 557 140 577 169 c 1,22,23
 591 192 591 192 612.5 206 c 128,-1,24
 634 220 634 220 666 220 c 0,25,26
 690 220 690 220 714 208 c 1,27,-1
 752 167 l 1,28,-1
 762 140 l 1,29,-1
 765 114 l 1,30,31
 765 83 765 83 751 59 c 0,32,33
 748 52 748 52 718 21 c 1,34,-1
 682 5 l 1,35,-1
 649 1 l 1,36,-1
 622 4 l 1,37,-1
 603 7 l 1,38,-1
 571 8 l 2,39,40
 555 8 555 8 542 12 c 1,41,-1
 502 20 l 1,42,-1
 471 33 l 2,43,44
 456 39 456 39 412 66 c 1,45,-1
 384 87 l 1,46,-1
 355 113 l 1,47,48
 246 216 246 216 246 369 c 0,49,50
 246 500 246 500 351 618 c 128,-1,51
 456 736 456 736 607 736 c 0,52,53
 723 736 723 736 842 652 c 1,54,55
 969 546 969 546 969 369 c 0,56,57
 969 256 969 256 1057 165 c 1,58,59
 1149 79 1149 79 1266 79 c 0,60,61
 1378 79 1378 79 1467.5 165.5 c 128,-1,62
 1557 252 1557 252 1557 376 c 0,63,64
 1557 446 1557 446 1546 469 c 1,65,66
 1544 480 1544 480 1541 485 c 2,67,-1
 1532 505 l 1,68,69
 1523 528 1523 528 1505 553 c 1,70,71
 1481 595 1481 595 1435 638 c 1,72,-1
 1405 663 l 1,73,-1
 1365 695 l 1,74,-1
 1364 682 l 1,75,-1
 1364 671 l 2,76,77
 1364 661 1364 661 1362 659 c 0,78,79
 1356 646 1356 646 1325 623 c 0,80,81
 1300 604 1300 604 1261 604 c 0,82,83
 1230 604 1230 604 1215.5 611.5 c 128,-1,84
 1201 619 1201 619 1177 640 c 1,85,86
 1162 658 1162 658 1156 674.5 c 128,-1,87
 1150 691 1150 691 1150 709 c 0,88,89
 1150 726 1150 726 1159 748 c 128,-1,90
 1168 770 1168 770 1187 789 c 0,91,92
 1193 795 1193 795 1240 799 c 1,93,-1
 1293 805 l 1,94,-1
 1318 795 l 1,95,96
 1427 753 1427 753 1486 704 c 1,97,98
 1536 665 1536 665 1561 616 c 0,99,100
 1593 552 1593 552 1609 495 c 0,101,102
 1617 464 1617 464 1621 436.5 c 128,-1,103
 1625 409 1625 409 1625 376 c 0,104,105
 1625 235 1625 235 1522 123 c 128,-1,106
 1419 11 1419 11 1266 11 c 0,107,108
 1244 11 1244 11 1182 20 c 128,-1,109
 1120 29 1120 29 1080 45 c 1,110,-1
 1047 -100 l 2,111,112
 1023 -207 1023 -207 1000 -249 c 1,113,114
 979 -304 979 -304 893 -376 c 1,115,116
 798 -457 798 -457 731 -457 c 0,117,118
 561 -457 561 -457 490 -445 c 1,119,120
 385 -424 385 -424 299 -341 c 128,-1,121
 213 -258 213 -258 185 -219 c 1,122,-1
 173 -199 l 1,123,-1
 156 -167 l 1,124,-1
 110 -67 l 2,125,126
 98 -40 98 -40 89 -4 c 2,127,-1
 81 31 l 1,128,-1
 73 74 l 1,129,130
 61 157 61 157 61 255 c 1,131,-1
 63 316 l 1,132,-1
 65 378 l 1,133,-1
 68 435 l 1,134,-1
 72 475 l 1,135,-1
 78 502 l 1,136,137
 95 624 95 624 117 688 c 1,138,139
 153 784 153 784 189 842 c 1,140,141
 234 902 234 902 335 963 c 1,142,143
 428 1017 428 1017 503 1026 c 1,144,-1
 545 1027 l 1,145,-1
 584 1028 l 1,146,-1
 680 1036 l 1,147,-1
 735 1039 l 1,148,-1
 789 1047 l 1,149,-1
 831 1054 l 2,150,151
 854 1057 854 1057 875 1064 c 1,152,153
 997 1088 997 1088 1049 1132 c 1,154,155
 1115 1173 1115 1173 1141 1267 c 1,156,157
 1147 1301 1147 1301 1156 1329 c 0,158,159
 1162 1347 1162 1347 1172 1350 c 1,160,161
 1178 1350 1178 1350 1185 1322 c 1,162,-1
 1190 1292 l 1,163,-1
 1192 1258 l 1,164,-1
 1192 1233 l 1,165,-1
 1190 1218 l 1,166,167
 1190 1164 1190 1164 1141.5 1116 c 128,-1,168
 1093 1068 1093 1068 994 1026 c 1,169,-1
 918 998 l 1,170,-1
 838 976 l 1,171,172
 753 959 753 959 686 959 c 1,173,-1
 626 960 l 1,174,-1
 576 961 l 2,175,176
 531 961 531 961 489 952 c 1,177,178
 467 949 467 949 447 939 c 1,179,-1
 426 930 l 1,180,-1
 399 917 l 2,181,182
 368 902 368 902 323 872 c 1,183,184
 300 858 300 858 273 826 c 1,185,-1
 255 801 l 1,186,-1
 235 769 l 1,187,-1
 222 742 l 1,188,-1
 194 683 l 1,189,190
 173 632 173 632 158.5 497 c 128,-1,191
 144 362 144 362 144 268 c 0,192,193
 144 156 144 156 156 59 c 128,-1,194
 168 -38 168 -38 195 -95 c 1,195,196
 249 -194 249 -194 283 -231 c 0,197,198
 322 -273 322 -273 410 -325 c 2,199,-1
 453 -350 l 1,200,-1
 487 -364 l 1,201,202
 518 -375 518 -375 552 -375 c 1,203,-1
 627 -372 l 1,204,-1
 715 -370 l 1,205,206
 831 -370 831 -370 893 -275 c 1,207,-1
 935 -195 l 1,208,-1
 962 -135 l 1,209,-1
 985 -74 l 1,210,-1
 1001 -13 l 1,211,-1
 1020 75 l 1,0,1
EndSplineSet
Ligature2: "'clig' Contextual Ligatures lookup 7 subtable" uAA7A u103C
Ligature2: "'clig' Contextual Ligatures lookup 5 subtable" uAA7A u1031
MultipleSubs2: "Multiple Substitution lookup 2 subtable" guard u103C uAA7A
MultipleSubs2: "Multiple Substitution lookup 1 subtable" guard u103C.udia uAA7A
MultipleSubs2: "Multiple Substitution lookup 0 subtable" guard u1031 uAA7A
EndChar

StartChar: u1019
Encoding: 4121 4121 37
Width: 844
GlyphClass: 3
Flags: W
AnchorPoint: "Anchor-3" 454 694 basechar 0
AnchorPoint: "Anchor-2" 432 0 basechar 0
AnchorPoint: "Anchor-1" 432 0 basechar 0
AnchorPoint: "Anchor-0" 700 0 basechar 0
LayerCount: 2
Fore
SplineSet
793 354 m 1,0,1
 793 283 793 283 768.5 224 c 128,-1,2
 744 165 744 165 683 101 c 1,3,4
 583 -8 583 -8 428 -8 c 0,5,6
 386 -8 386 -8 352.5 -2 c 128,-1,7
 319 4 319 4 290 18 c 1,8,-1
 258 31 l 1,9,-1
 229 47 l 1,10,-1
 196 70 l 1,11,-1
 171 90 l 1,12,-1
 147 113 l 1,13,-1
 125 141 l 1,14,15
 108 161 108 161 85 207 c 1,16,-1
 61 280 l 1,17,-1
 52 358 l 1,18,19
 52 418 52 418 56 446 c 1,20,-1
 59 484 l 2,21,22
 59 494 59 494 63 506 c 2,23,-1
 70 533 l 2,24,25
 78 560 78 560 88.5 584 c 128,-1,26
 99 608 99 608 115 629 c 1,27,-1
 128 649 l 1,28,-1
 141 665 l 1,29,-1
 163 688 l 1,30,31
 199 715 199 715 252 715 c 0,32,33
 290 715 290 715 320 692 c 1,34,35
 359 659 359 659 359 606 c 0,36,37
 359 558 359 558 320 522 c 0,38,39
 288 493 288 493 251 493 c 1,40,-1
 230 492 l 1,41,-1
 202 493 l 1,42,-1
 185 500 l 1,43,-1
 168 514 l 1,44,-1
 153 490 l 1,45,-1
 143 444 l 1,46,-1
 139 422 l 1,47,-1
 138 396 l 1,48,-1
 138 377 l 1,49,-1
 139 358 l 1,50,-1
 139 319 l 1,51,-1
 143 291 l 1,52,-1
 147 269 l 2,53,54
 149 260 149 260 157 243 c 2,55,-1
 164 227 l 1,56,57
 201 268 201 268 277 310 c 1,58,-1
 310 323 l 1,59,-1
 350 336 l 1,60,61
 386 345 386 345 426 345 c 0,62,63
 576 345 576 345 677 229 c 1,64,-1
 685 245 l 1,65,66
 710 301 710 301 710 354 c 0,67,68
 710 447 710 447 665 534 c 1,69,70
 657 552 657 552 632 583 c 1,71,-1
 587 626 l 1,72,-1
 572 640 l 1,73,-1
 565 653 l 1,74,-1
 563 675 l 1,75,-1
 564 679 l 1,76,77
 570 691 570 691 590 701 c 1,78,-1
 623 700 l 1,79,-1
 680 647 l 1,80,81
 685 645 685 645 704 618 c 1,82,-1
 735 577 l 1,83,-1
 759 529 l 1,84,-1
 779 469 l 1,85,-1
 789 411 l 1,86,-1
 793 354 l 1,0,1
638 173 m 1,87,88
 608 217 608 217 545.5 248.5 c 128,-1,89
 483 280 483 280 428 280 c 0,90,91
 355 280 355 280 298 252 c 0,92,93
 247 228 247 228 204 173 c 1,94,-1
 220 158 l 1,95,-1
 264 124 l 1,96,-1
 294 107 l 1,97,-1
 313 97 l 1,98,-1
 375 83 l 1,99,100
 408 77 408 77 428 77 c 0,101,102
 485 77 485 77 533 98 c 128,-1,103
 581 119 581 119 624 159 c 1,104,-1
 638 173 l 1,87,88
EndSplineSet
Ligature2: "'clig' Contextual Ligatures lookup 7 subtable" u1019 u103C
Ligature2: "'clig' Contextual Ligatures lookup 5 subtable" u1019 u1031
MultipleSubs2: "Multiple Substitution lookup 2 subtable" guard u103C.nar u1019
MultipleSubs2: "Multiple Substitution lookup 1 subtable" guard u103C.nar.udia u1019
MultipleSubs2: "Multiple Substitution lookup 0 subtable" guard u1031 u1019
EndChar

StartChar: u1000.sub
Encoding: 65539 -1 38
Width: 2
GlyphClass: 4
Flags: W
AnchorPoint: "Anchor-2" -750 0 mark 0
LayerCount: 2
Fore
SplineSet
-750 -594 m 0,0,1
 -768 -594 -768 -594 -777 -551 c 1,2,-1
 -789 -483 l 1,3,-1
 -786 -411 l 1,4,-1
 -787 -392 l 1,5,-1
 -788 -366 l 1,6,-1
 -784 -332 l 1,7,8
 -784 -233 -784 -233 -854 -162.5 c 128,-1,9
 -924 -92 -924 -92 -1024 -92 c 0,10,11
 -1108 -92 -1108 -92 -1194 -160 c 1,12,13
 -1263 -235 -1263 -235 -1263 -332 c 0,14,15
 -1263 -393 -1263 -393 -1226 -471 c 1,16,17
 -1191 -528 -1191 -528 -1122 -571 c 1,18,-1
 -1052 -586 l 1,19,20
 -1031 -592 -1031 -592 -1026 -600 c 1,21,-1
 -1025 -624 l 1,22,23
 -1027 -634 -1027 -634 -1036 -642 c 0,24,25
 -1039 -645 -1039 -645 -1066 -648 c 2,26,-1
 -1098 -651 l 1,27,-1
 -1150 -639 l 1,28,29
 -1231 -603 -1231 -603 -1286 -512 c 1,30,31
 -1333 -423 -1333 -423 -1333 -332 c 0,32,33
 -1333 -209 -1333 -209 -1246 -116 c 128,-1,34
 -1159 -23 -1159 -23 -1024 -23 c 0,35,36
 -989 -23 -989 -23 -941 -32 c 0,37,38
 -923 -35 -923 -35 -902 -44 c 1,39,40
 -877 -52 -877 -52 -860 -63 c 0,41,42
 -800 -104 -800 -104 -749 -186 c 1,43,44
 -720 -122 -720 -122 -636 -66 c 1,45,-1
 -559 -33 l 1,46,-1
 -501 -23 l 1,47,-1
 -475 -23 l 2,48,49
 -354 -23 -354 -23 -258.5 -110 c 128,-1,50
 -163 -197 -163 -197 -163 -332 c 0,51,52
 -163 -458 -163 -458 -253 -551 c 2,53,-1
 -310 -610 l 1,54,55
 -354 -654 -354 -654 -387 -654 c 1,56,-1
 -450 -657 l 1,57,-1
 -491 -645 l 1,58,59
 -503 -640 -503 -640 -517 -612 c 1,60,61
 -517 -593 -517 -593 -507 -579 c 1,62,-1
 -481 -575 l 1,63,-1
 -399 -586 l 1,64,65
 -375 -580 -375 -580 -344 -546 c 2,66,-1
 -302 -501 l 1,67,68
 -233 -432 -233 -432 -233 -332 c 0,69,70
 -233 -236 -233 -236 -303 -162 c 1,71,72
 -379 -92 -379 -92 -475 -92 c 0,73,74
 -510 -92 -510 -92 -558 -107 c 0,75,76
 -583 -115 -583 -115 -600 -126 c 1,77,-1
 -643 -160 l 1,78,79
 -712 -235 -712 -235 -712 -332 c 1,80,-1
 -711 -382 l 1,81,-1
 -710 -419 l 1,82,-1
 -711 -449 l 1,83,-1
 -717 -486 l 1,84,-1
 -719 -503 l 1,85,-1
 -719 -519 l 1,86,-1
 -719 -537 l 1,87,-1
 -720 -568 l 1,88,89
 -725 -594 -725 -594 -750 -594 c 0,0,1
EndSplineSet
Ligature2: "'clig' Contextual Ligatures lookup 7 subtable" u1000.sub u103C
Ligature2: "'clig' Contextual Ligatures lookup 5 subtable" u1000.sub u1031
Ligature2: "'clig' Contextual Ligatures lookup 3 subtable" u1039 u1000
EndChar

StartChar: u1010.sub
Encoding: 65540 -1 39
Width: 2
GlyphClass: 4
Flags: W
AnchorPoint: "Anchor-2" -772 0 mark 0
LayerCount: 2
Fore
SplineSet
-806 -370 m 1,0,-1
 -808 -321 l 1,1,-1
 -811 -294 l 1,2,3
 -811 -284 -811 -284 -816 -273 c 1,4,5
 -819 -261 -819 -261 -832 -235.5 c 128,-1,6
 -845 -210 -845 -210 -886 -172 c 1,7,8
 -959 -114 -959 -114 -1048 -114 c 0,9,10
 -1146 -114 -1146 -114 -1216 -184 c 0,11,12
 -1253 -221 -1253 -221 -1270.5 -261.5 c 128,-1,13
 -1288 -302 -1288 -302 -1288 -354 c 0,14,15
 -1288 -447 -1288 -447 -1218.5 -521 c 128,-1,16
 -1149 -595 -1149 -595 -1048 -595 c 0,17,18
 -1000 -595 -1000 -595 -959.5 -579.5 c 128,-1,19
 -919 -564 -919 -564 -878 -530 c 1,20,21
 -806 -467 -806 -467 -806 -370 c 1,0,-1
-772 -206 m 1,22,23
 -736 -134 -736 -134 -660.5 -88.5 c 128,-1,24
 -585 -43 -585 -43 -499 -43 c 0,25,26
 -366 -43 -366 -43 -276 -132.5 c 128,-1,27
 -186 -222 -186 -222 -186 -354 c 0,28,29
 -186 -483 -186 -483 -278 -575 c 128,-1,30
 -370 -667 -370 -667 -499 -667 c 1,31,-1
 -517 -666 l 1,32,-1
 -535 -663 l 1,33,-1
 -554 -659 l 1,34,35
 -564 -659 -564 -659 -572.5 -655.5 c 128,-1,36
 -581 -652 -581 -652 -593 -622 c 1,37,38
 -593 -615 -593 -615 -581 -591 c 1,39,-1
 -563 -586 l 1,40,-1
 -548 -587 l 1,41,-1
 -499 -595 l 1,42,43
 -466 -595 -466 -595 -447 -592 c 128,-1,44
 -428 -589 -428 -589 -408 -579 c 0,45,46
 -375 -564 -375 -564 -329 -524 c 1,47,48
 -258 -453 -258 -453 -258 -354 c 0,49,50
 -258 -257 -258 -257 -329 -186 c 0,51,52
 -355 -160 -355 -160 -407 -131 c 1,53,54
 -450 -114 -450 -114 -499 -114 c 0,55,56
 -588 -114 -588 -114 -656.5 -173.5 c 128,-1,57
 -725 -233 -725 -233 -737 -321 c 1,58,-1
 -735 -354 l 1,59,60
 -735 -483 -735 -483 -827 -575 c 128,-1,61
 -919 -667 -919 -667 -1048 -667 c 0,62,63
 -1172 -667 -1172 -667 -1265.5 -575.5 c 128,-1,64
 -1359 -484 -1359 -484 -1359 -354 c 0,65,66
 -1359 -225 -1359 -225 -1268 -134 c 128,-1,67
 -1177 -43 -1177 -43 -1048 -43 c 0,68,69
 -961 -43 -961 -43 -886 -88 c 1,70,71
 -814 -129 -814 -129 -772 -206 c 1,22,23
EndSplineSet
Ligature2: "'clig' Contextual Ligatures lookup 7 subtable" u1010.sub u103C
Ligature2: "'clig' Contextual Ligatures lookup 5 subtable" u1010.sub u1031
Ligature2: "'clig' Contextual Ligatures lookup 3 subtable" u1039 u1010
EndChar

StartChar: uAA61.sub
Encoding: 65541 -1 40
Width: 1
GlyphClass: 4
Flags: W
AnchorPoint: "Anchor-2" -720 0 mark 0
LayerCount: 2
Fore
SplineSet
-661 -224 m 1,0,-1
 -632 -210 l 2,1,2
 -612 -200 -612 -200 -579 -200 c 0,3,4
 -545 -200 -545 -200 -504 -229 c 1,5,6
 -460 -265 -460 -265 -460 -313 c 0,7,8
 -460 -357 -460 -357 -499.5 -391.5 c 128,-1,9
 -539 -426 -539 -426 -577 -426 c 0,10,11
 -619 -426 -619 -426 -634 -420 c 1,12,-1
 -667 -391 l 1,13,-1
 -664 -413 l 1,14,15
 -656 -429 -656 -429 -631 -450 c 1,16,-1
 -600 -471 l 1,17,18
 -524 -535 -524 -535 -414 -535 c 0,19,20
 -361 -535 -361 -535 -284 -502 c 0,21,22
 -249 -488 -249 -488 -236 -481 c 0,23,24
 -205 -466 -205 -466 -182 -436 c 0,25,26
 -163 -412 -163 -412 -156 -391.5 c 128,-1,27
 -149 -371 -149 -371 -143 -333 c 1,28,29
 -140 -322 -140 -322 -139.5 -316.5 c 128,-1,30
 -139 -311 -139 -311 -139 -300 c 0,31,32
 -139 -251 -139 -251 -158.5 -216 c 128,-1,33
 -178 -181 -178 -181 -221 -147 c 0,34,35
 -302 -81 -302 -81 -405 -81 c 0,36,37
 -492 -81 -492 -81 -561 -125 c 1,38,39
 -573 -131 -573 -131 -578 -135 c 128,-1,40
 -583 -139 -583 -139 -594 -150 c 2,41,-1
 -607 -162 l 1,42,-1
 -623 -177 l 1,43,-1
 -643 -194 l 2,44,45
 -647 -197 -647 -197 -661 -224 c 1,0,-1
-736 -309 m 1,46,-1
 -737 -287 l 1,47,-1
 -743 -259 l 2,48,49
 -746 -242 -746 -242 -762 -213 c 1,50,51
 -789 -160 -789 -160 -818 -136 c 1,52,53
 -821 -131 -821 -131 -847 -117 c 1,54,-1
 -892 -102 l 1,55,-1
 -917 -99 l 1,56,57
 -946 -99 -946 -99 -963 -113.5 c 128,-1,58
 -980 -128 -980 -128 -987 -151 c 1,59,-1
 -994 -190 l 1,60,-1
 -996 -220 l 1,61,-1
 -999 -255 l 1,62,-1
 -1009 -298 l 1,63,64
 -1025 -351 -1025 -351 -1054 -410 c 1,65,-1
 -1081 -462 l 1,66,-1
 -1096 -485 l 1,67,-1
 -1113 -507 l 2,68,69
 -1121 -517 -1121 -517 -1133 -526.5 c 128,-1,70
 -1145 -536 -1145 -536 -1166 -547 c 0,71,72
 -1204 -568 -1204 -568 -1231 -568 c 0,73,74
 -1248 -568 -1248 -568 -1265 -560 c 1,75,-1
 -1283 -550 l 1,76,-1
 -1308 -532 l 2,77,78
 -1356 -497 -1356 -497 -1382 -444 c 0,79,80
 -1400 -406 -1400 -406 -1409 -362 c 1,81,-1
 -1415 -321 l 1,82,-1
 -1418 -282 l 1,83,-1
 -1418 -251 l 1,84,-1
 -1418 -235 l 1,85,-1
 -1414 -213 l 1,86,87
 -1411 -189 -1411 -189 -1386 -167 c 1,88,-1
 -1367 -156 l 1,89,-1
 -1343 -153 l 1,90,-1
 -1324 -154 l 1,91,-1
 -1310 -155 l 1,92,93
 -1281 -155 -1281 -155 -1264 -174 c 1,94,95
 -1247 -189 -1247 -189 -1247 -230 c 0,96,97
 -1247 -259 -1247 -259 -1260 -272 c 128,-1,98
 -1273 -285 -1273 -285 -1300 -285 c 2,99,-1
 -1319 -285 l 1,100,-1
 -1333 -282 l 1,101,-1
 -1333 -318 l 1,102,-1
 -1333 -330 l 1,103,-1
 -1333 -339 l 1,104,-1
 -1335 -350 l 1,105,-1
 -1334 -378 l 1,106,-1
 -1328 -402 l 2,107,108
 -1318 -440 -1318 -440 -1286 -473 c 1,109,110
 -1252 -504 -1252 -504 -1229 -504 c 0,111,112
 -1200 -504 -1200 -504 -1144 -432 c 1,113,114
 -1105 -377 -1105 -377 -1076 -286 c 1,115,-1
 -1069 -252 l 1,116,-1
 -1061 -201 l 1,117,-1
 -1060 -178 l 2,118,119
 -1060 -162 -1060 -162 -1055 -151 c 1,120,121
 -1054 -141 -1054 -141 -1045 -120 c 1,122,123
 -1036 -91 -1036 -91 -994.5 -65 c 128,-1,124
 -953 -39 -953 -39 -910 -39 c 2,125,-1
 -901 -39 l 1,126,-1
 -880 -40 l 2,127,128
 -868 -40 -868 -40 -856 -44 c 2,129,-1
 -842 -48 l 2,130,131
 -830 -52 -830 -52 -823 -57 c 1,132,133
 -800 -67 -800 -67 -778 -88.5 c 128,-1,134
 -756 -110 -756 -110 -729 -153 c 2,135,-1
 -701 -197 l 1,136,-1
 -692 -183 l 1,137,138
 -680 -158 -680 -158 -672.5 -144.5 c 128,-1,139
 -665 -131 -665 -131 -658 -127 c 1,140,-1
 -633 -104 l 1,141,-1
 -590 -75 l 1,142,143
 -516 -30 -516 -30 -405 -30 c 0,144,145
 -300 -30 -300 -30 -222.5 -71 c 128,-1,146
 -145 -112 -145 -112 -108 -186 c 1,147,148
 -89 -216 -89 -216 -83 -243 c 1,149,150
 -81 -257 -81 -257 -79.5 -277 c 128,-1,151
 -78 -297 -78 -297 -78 -305 c 0,152,153
 -78 -330 -78 -330 -81.5 -348.5 c 128,-1,154
 -85 -367 -85 -367 -87.5 -376.5 c 128,-1,155
 -90 -386 -90 -386 -96.5 -402.5 c 128,-1,156
 -103 -419 -103 -419 -118 -444 c 1,157,-1
 -126 -456 l 1,158,-1
 -133 -466 l 1,159,-1
 -152 -487 l 1,160,161
 -174 -509 -174 -509 -196 -522 c 0,162,163
 -212 -531 -212 -531 -253 -549 c 0,164,165
 -327 -580 -327 -580 -391 -580 c 2,166,-1
 -402 -580 l 1,167,-1
 -465 -577 l 1,168,169
 -497 -574 -497 -574 -525 -564 c 1,170,171
 -598 -546 -598 -546 -644 -509 c 1,172,-1
 -667 -489 l 1,173,-1
 -686 -468 l 1,174,-1
 -712 -440 l 1,175,176
 -712 -424 -712 -424 -714 -419 c 1,177,178
 -714 -412 -714 -412 -719 -404 c 1,179,-1
 -725 -373 l 1,180,-1
 -736 -309 l 1,46,-1
EndSplineSet
Ligature2: "'clig' Contextual Ligatures lookup 7 subtable" uAA61.sub u103C
Ligature2: "'clig' Contextual Ligatures lookup 5 subtable" uAA61.sub u1031
Ligature2: "'clig' Contextual Ligatures lookup 3 subtable" u1039 uAA61
EndChar

StartChar: u1015.sub
Encoding: 65542 -1 41
Width: 2
GlyphClass: 4
Flags: W
AnchorPoint: "Anchor-2" -448 0 mark 0
LayerCount: 2
Fore
SplineSet
-603 -141 m 2,0,-1
 -633 -172 l 1,1,-1
 -664 -219 l 1,2,-1
 -689 -274 l 1,3,-1
 -697 -332 l 1,4,5
 -697 -428 -697 -428 -627 -502 c 0,6,7
 -597 -535 -597 -535 -554.5 -553 c 128,-1,8
 -512 -571 -512 -571 -457 -571 c 0,9,10
 -358 -571 -358 -571 -287 -501.5 c 128,-1,11
 -216 -432 -216 -432 -216 -332 c 0,12,13
 -216 -295 -216 -295 -240 -223 c 1,14,15
 -260 -186 -260 -186 -314 -141 c 1,16,-1
 -326 -115 l 1,17,18
 -326 -109 -326 -109 -320 -100 c 1,19,20
 -320 -94 -320 -94 -308 -82 c 1,21,-1
 -273 -80 l 1,22,-1
 -246 -100 l 1,23,-1
 -222 -127 l 1,24,-1
 -179 -188 l 1,25,-1
 -152 -264 l 1,26,-1
 -146 -332 l 1,27,28
 -146 -398 -146 -398 -166.5 -449.5 c 128,-1,29
 -187 -501 -187 -501 -236 -553 c 1,30,31
 -260 -574 -260 -574 -334 -618 c 1,32,33
 -364 -629 -364 -629 -396 -636 c 0,34,35
 -414 -639 -414 -639 -428 -641 c 128,-1,36
 -442 -643 -442 -643 -457 -643 c 0,37,38
 -580 -643 -580 -643 -676 -553 c 1,39,40
 -712 -517 -712 -517 -740 -455 c 1,41,-1
 -750 -427 l 1,42,-1
 -759 -395 l 1,43,-1
 -765 -361 l 1,44,-1
 -767 -332 l 1,45,-1
 -760 -262 l 1,46,-1
 -759 -246 l 1,47,-1
 -757 -240 l 1,48,-1
 -752 -231 l 1,49,-1
 -738 -199 l 1,50,51
 -720 -144 -720 -144 -658 -94 c 1,52,-1
 -625 -80 l 1,53,54
 -595 -80 -595 -80 -595 -121 c 0,55,56
 -595 -133 -595 -133 -603 -141 c 2,0,-1
EndSplineSet
Ligature2: "'clig' Contextual Ligatures lookup 7 subtable" u1015.sub u103C
Ligature2: "'clig' Contextual Ligatures lookup 5 subtable" u1015.sub u1031
Ligature2: "'clig' Contextual Ligatures lookup 3 subtable" u1039 u1015
EndChar

StartChar: u101C.sub
Encoding: 65543 -1 42
Width: 5
GlyphClass: 4
Flags: W
AnchorPoint: "Anchor-2" -744 0 mark 0
LayerCount: 2
Fore
SplineSet
-368 -112 m 1,0,-1
 -360 -139 l 1,1,2
 -360 -148 -360 -148 -364 -156 c 1,3,4
 -367 -166 -367 -166 -379 -182 c 128,-1,5
 -391 -198 -391 -198 -413 -209 c 0,6,7
 -429 -217 -429 -217 -441 -219.5 c 128,-1,8
 -453 -222 -453 -222 -465 -222 c 0,9,10
 -487 -222 -487 -222 -511.5 -210 c 128,-1,11
 -536 -198 -536 -198 -548 -176 c 2,12,-1
 -556 -161 l 1,13,-1
 -560 -134 l 1,14,-1
 -557 -111 l 2,15,16
 -556 -99 -556 -99 -548 -90 c 1,17,18
 -543 -82 -543 -82 -511 -67 c 2,19,-1
 -464 -46 l 1,20,-1
 -440 -47 l 1,21,22
 -316 -47 -316 -47 -214.5 -133.5 c 128,-1,23
 -113 -220 -113 -220 -113 -350 c 0,24,25
 -113 -469 -113 -469 -205 -562.5 c 128,-1,26
 -297 -656 -297 -656 -436 -656 c 0,27,28
 -549 -656 -549 -656 -646 -583 c 0,29,30
 -698 -544 -698 -544 -729 -486.5 c 128,-1,31
 -760 -429 -760 -429 -760 -362 c 0,32,33
 -760 -256 -760 -256 -839 -180 c 128,-1,34
 -918 -104 -918 -104 -1029 -104 c 0,35,36
 -1133 -104 -1133 -104 -1212 -177.5 c 128,-1,37
 -1291 -251 -1291 -251 -1291 -356 c 0,38,39
 -1291 -401 -1291 -401 -1275 -446 c 1,40,41
 -1259 -486 -1259 -486 -1214 -527 c 1,42,43
 -1199 -538 -1199 -538 -1149 -566 c 1,44,45
 -1118 -577 -1118 -577 -1074 -584 c 1,46,47
 -1074 -548 -1074 -548 -1056 -524 c 1,48,49
 -1045 -506 -1045 -506 -1025 -492 c 1,50,51
 -1005 -481 -1005 -481 -976 -481 c 0,52,53
 -954 -481 -954 -481 -933 -490 c 1,54,-1
 -899 -525 l 1,55,-1
 -890 -548 l 1,56,-1
 -887 -570 l 1,57,58
 -887 -597 -887 -597 -899 -616.5 c 128,-1,59
 -911 -636 -911 -636 -926 -646 c 1,60,-1
 -942 -654 l 1,61,-1
 -962 -660 l 1,62,-1
 -974 -663 l 1,63,-1
 -991 -665 l 1,64,-1
 -1016 -663 l 1,65,-1
 -1033 -659 l 1,66,-1
 -1061 -658 l 2,67,68
 -1079 -658 -1079 -658 -1088 -655 c 1,69,-1
 -1124 -649 l 1,70,-1
 -1151 -637 l 2,71,72
 -1161 -633 -1161 -633 -1172.5 -627.5 c 128,-1,73
 -1184 -622 -1184 -622 -1205 -610 c 1,74,-1
 -1230 -592 l 1,75,-1
 -1256 -570 l 1,76,77
 -1354 -484 -1354 -484 -1354 -356 c 0,78,79
 -1354 -246 -1354 -246 -1259 -146.5 c 128,-1,80
 -1164 -47 -1164 -47 -1029 -47 c 0,81,82
 -975 -47 -975 -47 -923.5 -64 c 128,-1,83
 -872 -81 -872 -81 -818 -118 c 1,84,85
 -703 -206 -703 -206 -703 -356 c 0,86,87
 -703 -451 -703 -451 -624 -527 c 1,88,89
 -583 -562 -583 -562 -536 -581 c 128,-1,90
 -489 -600 -489 -600 -436 -600 c 0,91,92
 -337 -600 -337 -600 -255.5 -526.5 c 128,-1,93
 -174 -453 -174 -453 -174 -350 c 256,94,95
 -174 -247 -174 -247 -255 -179 c 1,96,97
 -275 -157 -275 -157 -307 -140 c 1,98,99
 -334 -123 -334 -123 -368 -112 c 1,0,-1
EndSplineSet
Ligature2: "'clig' Contextual Ligatures lookup 7 subtable" u101C.sub u103C
Ligature2: "'clig' Contextual Ligatures lookup 5 subtable" u101C.sub u1031
Ligature2: "'clig' Contextual Ligatures lookup 3 subtable" u1039 u101C
EndChar

StartChar: u101A.sub
Encoding: 65544 -1 43
Width: 8
GlyphClass: 4
Flags: W
AnchorPoint: "Anchor-2" -784 0 mark 0
LayerCount: 2
Fore
SplineSet
-311 -26 m 1,0,1
 -319 -24 -319 -24 -336 -21 c 128,-1,2
 -353 -18 -353 -18 -366 -18 c 0,3,4
 -396 -18 -396 -18 -426 -42 c 1,5,6
 -460 -67 -460 -67 -460 -107 c 0,7,8
 -460 -151 -460 -151 -426 -174 c 0,9,10
 -398 -194 -398 -194 -366 -194 c 1,11,-1
 -339 -191 l 2,12,13
 -327 -190 -327 -190 -316 -182 c 1,14,15
 -304 -177 -304 -177 -277 -148 c 1,16,17
 -266 -164 -266 -164 -258.5 -181.5 c 128,-1,18
 -251 -199 -251 -199 -244 -220 c 1,19,-1
 -237 -251 l 1,20,-1
 -237 -305 l 2,21,22
 -237 -402 -237 -402 -317 -473 c 128,-1,23
 -397 -544 -397 -544 -499 -544 c 0,24,25
 -546 -544 -546 -544 -588 -530 c 1,26,-1
 -630 -510 l 1,27,-1
 -679 -482 l 1,28,29
 -734 -445 -734 -445 -755 -324 c 0,30,31
 -760 -294 -760 -294 -763 -249.5 c 128,-1,32
 -766 -205 -766 -205 -766 -150 c 1,33,-1
 -797 -150 l 1,34,-1
 -794 -151 l 1,35,-1
 -803 -153 l 1,36,-1
 -806 -243 l 1,37,-1
 -807 -272 l 1,38,-1
 -815 -318 l 2,39,40
 -836 -436 -836 -436 -898 -482 c 0,41,42
 -935 -510 -935 -510 -983 -534 c 1,43,-1
 -1034 -548 l 1,44,-1
 -1081 -554 l 1,45,46
 -1177 -554 -1177 -554 -1264 -484 c 1,47,48
 -1301 -450 -1301 -450 -1324 -407 c 1,49,-1
 -1337 -365 l 1,50,51
 -1343 -339 -1343 -339 -1343 -314 c 2,52,-1
 -1343 -261 l 1,53,-1
 -1336 -230 l 1,54,-1
 -1323 -200 l 1,55,-1
 -1300 -170 l 1,56,-1
 -1262 -192 l 2,57,58
 -1252 -197 -1252 -197 -1243.5 -199.5 c 128,-1,59
 -1235 -202 -1235 -202 -1225 -203 c 1,60,61
 -1201 -203 -1201 -203 -1164 -184 c 1,62,63
 -1130 -159 -1130 -159 -1130 -117 c 0,64,65
 -1130 -79 -1130 -79 -1164 -51 c 1,66,67
 -1179 -40 -1179 -40 -1194 -34 c 1,68,-1
 -1209 -31 l 1,69,-1
 -1225 -28 l 1,70,71
 -1266 -28 -1266 -28 -1279 -35 c 1,72,-1
 -1311 -62 l 1,73,74
 -1319 -67 -1319 -67 -1335 -90 c 2,75,-1
 -1354 -118 l 1,76,77
 -1375 -146 -1375 -146 -1393 -211 c 1,78,-1
 -1403 -264 l 1,79,-1
 -1406 -314 l 1,80,81
 -1406 -421 -1406 -421 -1311.5 -514.5 c 128,-1,82
 -1217 -608 -1217 -608 -1081 -608 c 0,83,84
 -994 -608 -994 -608 -915.5 -564 c 128,-1,85
 -837 -520 -837 -520 -784 -441 c 1,86,-1
 -776 -462 l 2,87,88
 -774 -465 -774 -465 -767 -474 c 0,89,90
 -763 -480 -763 -480 -717 -520 c 1,91,-1
 -670 -559 l 1,92,-1
 -582 -588 l 1,93,-1
 -540 -594 l 2,94,95
 -516 -598 -516 -598 -499 -598 c 0,96,97
 -369 -598 -369 -598 -272 -506.5 c 128,-1,98
 -175 -415 -175 -415 -175 -305 c 1,99,-1
 -179 -254 l 1,100,-1
 -188 -202 l 1,101,102
 -203 -142 -203 -142 -226 -108 c 1,103,104
 -258 -65 -258 -65 -278 -53 c 1,105,-1
 -311 -26 l 1,0,1
EndSplineSet
Ligature2: "'clig' Contextual Ligatures lookup 7 subtable" u101A.sub u103C
Ligature2: "'clig' Contextual Ligatures lookup 5 subtable" u101A.sub u1031
Ligature2: "'clig' Contextual Ligatures lookup 3 subtable" u1039 u101A
EndChar

StartChar: u1040
Encoding: 4160 4160 44
Width: 844
GlyphClass: 2
Flags: W
LayerCount: 2
Fore
SplineSet
788 365 m 0,0,1
 788 290 788 290 764 227 c 128,-1,2
 740 164 740 164 682 106 c 1,3,4
 573 0 573 0 424 0 c 0,5,6
 278 0 278 0 169.5 106.5 c 128,-1,7
 61 213 61 213 61 365 c 0,8,9
 61 513 61 513 167.5 620 c 128,-1,10
 274 727 274 727 424 727 c 0,11,12
 568 727 568 727 678 621.5 c 128,-1,13
 788 516 788 516 788 365 c 0,0,1
717 365 m 0,14,15
 717 480 717 480 631 567.5 c 128,-1,16
 545 655 545 655 424 655 c 0,17,18
 304 655 304 655 218.5 570 c 128,-1,19
 133 485 133 485 133 365 c 0,20,21
 133 244 133 244 216 158 c 128,-1,22
 299 72 299 72 424 72 c 0,23,24
 542 72 542 72 629.5 158 c 128,-1,25
 717 244 717 244 717 365 c 0,14,15
EndSplineSet
EndChar

StartChar: u1041
Encoding: 4161 4161 45
Width: 813
GlyphClass: 2
Flags: W
LayerCount: 2
Fore
SplineSet
752 358 m 0,0,1
 752 211 752 211 643 106.5 c 128,-1,2
 534 2 534 2 383 2 c 0,3,4
 289 2 289 2 188 57 c 1,5,6
 104 116 104 116 59 213 c 1,7,-1
 59 236 l 1,8,-1
 66 242 l 1,9,-1
 84 258 l 1,10,-1
 113 254 l 1,11,-1
 125 242 l 1,12,13
 147 179 147 179 227 117 c 1,14,-1
 254 101 l 1,15,-1
 295 84 l 1,16,-1
 336 74 l 1,17,-1
 383 70 l 1,18,19
 508 70 508 70 594 152 c 1,20,21
 634 192 634 192 658 246 c 128,-1,22
 682 300 682 300 682 358 c 0,23,24
 682 473 682 473 601 566 c 128,-1,25
 520 659 520 659 395 659 c 0,26,27
 323 659 323 659 246 616 c 1,28,29
 196 585 196 585 137 502 c 1,30,-1
 125 489 l 1,31,-1
 100 481 l 1,32,-1
 88 483 l 1,33,34
 70 489 70 489 70 512 c 1,35,-1
 72 530 l 1,36,-1
 76 535 l 1,37,38
 96 571 96 571 127 604.5 c 128,-1,39
 158 638 158 638 204 667 c 1,40,41
 294 727 294 727 395 727 c 0,42,43
 530 727 530 727 641 615.5 c 128,-1,44
 752 504 752 504 752 358 c 0,0,1
EndSplineSet
EndChar

StartChar: u1042
Encoding: 4162 4162 46
Width: 844
GlyphClass: 2
Flags: W
LayerCount: 2
Fore
SplineSet
713 682 m 1,0,-1
 719 707 l 1,1,2
 725 719 725 719 748 719 c 0,3,4
 754 719 754 719 760 713 c 2,5,-1
 776 700 l 1,6,-1
 782 682 l 1,7,-1
 782 -272 l 2,8,9
 782 -326 782 -326 775 -350 c 1,10,11
 769 -379 769 -379 754 -416 c 1,12,-1
 723 -475 l 1,13,-1
 700 -504 l 1,14,-1
 676 -532 l 1,15,16
 573 -641 573 -641 424 -641 c 0,17,18
 289 -641 289 -641 164 -537 c 1,19,20
 130 -503 130 -503 84 -414 c 1,21,-1
 76 -390 l 1,22,-1
 64 -346 l 1,23,-1
 59 -313 l 1,24,-1
 57 -283 l 1,25,26
 57 -241 57 -241 90 -238 c 1,27,28
 127 -238 127 -238 127 -283 c 2,29,-1
 127 -310 l 1,30,-1
 127 -326 l 1,31,-1
 132 -350 l 1,32,-1
 136 -367 l 1,33,-1
 146 -393 l 1,34,-1
 157 -418 l 1,35,-1
 172 -443 l 1,36,37
 187 -464 187 -464 213 -487 c 1,38,39
 293 -571 293 -571 424 -571 c 0,40,41
 541 -571 541 -571 627 -486.5 c 128,-1,42
 713 -402 713 -402 713 -274 c 2,43,-1
 713 682 l 1,0,-1
EndSplineSet
EndChar

StartChar: u1043
Encoding: 4163 4163 47
Width: 813
GlyphClass: 2
Flags: W
LayerCount: 2
Fore
SplineSet
68 188 m 1,0,-1
 59 213 l 1,1,-1
 59 236 l 1,2,-1
 66 242 l 1,3,-1
 84 258 l 1,4,-1
 113 254 l 1,5,-1
 125 242 l 1,6,7
 147 179 147 179 227 117 c 1,8,-1
 254 101 l 1,9,-1
 295 84 l 1,10,-1
 336 74 l 1,11,-1
 383 70 l 1,12,13
 508 70 508 70 594 152 c 1,14,15
 634 192 634 192 658 246 c 128,-1,16
 682 300 682 300 682 358 c 0,17,18
 682 473 682 473 601 566 c 128,-1,19
 520 659 520 659 395 659 c 0,20,21
 323 659 323 659 246 616 c 1,22,23
 196 585 196 585 137 502 c 1,24,-1
 125 489 l 1,25,-1
 100 481 l 1,26,-1
 88 483 l 1,27,28
 70 489 70 489 70 512 c 1,29,-1
 72 530 l 1,30,-1
 76 535 l 1,31,32
 96 571 96 571 127 604.5 c 128,-1,33
 158 638 158 638 204 667 c 1,34,35
 294 727 294 727 395 727 c 0,36,37
 530 727 530 727 641 615.5 c 128,-1,38
 752 504 752 504 752 358 c 0,39,40
 752 211 752 211 643 106.5 c 128,-1,41
 534 2 534 2 383 2 c 1,42,-1
 330 4 l 1,43,-1
 305 7 l 1,44,45
 292 10 292 10 279 18 c 1,46,-1
 727 -594 l 1,47,-1
 727 -614 l 1,48,-1
 715 -643 l 1,49,50
 712 -646 712 -646 705 -646 c 1,51,-1
 686 -643 l 1,52,-1
 670 -635 l 1,53,-1
 68 188 l 1,0,-1
EndSplineSet
EndChar

StartChar: u1044
Encoding: 4164 4164 48
Width: 813
GlyphClass: 2
Flags: W
LayerCount: 2
Fore
SplineSet
752 215 m 1,0,-1
 741 193 l 1,1,-1
 141 -633 l 1,2,-1
 125 -641 l 1,3,-1
 112 -644 l 1,4,-1
 96 -641 l 1,5,6
 87 -635 87 -635 84 -612 c 1,7,-1
 84 -592 l 1,8,-1
 532 20 l 1,9,-1
 481 8 l 1,10,-1
 428 4 l 1,11,12
 291 4 291 4 175 106.5 c 128,-1,13
 59 209 59 209 59 358 c 0,14,15
 59 493 59 493 164 611 c 128,-1,16
 269 729 269 729 416 729 c 0,17,18
 477 729 477 729 515 716 c 1,19,20
 560 704 560 704 604 676 c 1,21,22
 639 661 639 661 676 616 c 1,23,-1
 705 582 l 1,24,-1
 735 537 l 1,25,-1
 741 512 l 1,26,27
 741 506 741 506 735 500 c 2,28,-1
 723 485 l 1,29,-1
 708 482 l 1,30,31
 699 482 699 482 688 489 c 1,32,-1
 674 504 l 1,33,34
 657 541 657 541 633 565 c 1,35,36
 610 591 610 591 571 614 c 1,37,38
 558 624 558 624 540 632 c 2,39,-1
 500 649 l 1,40,-1
 457 658 l 1,41,-1
 416 662 l 1,42,43
 302 662 302 662 215.5 574 c 128,-1,44
 129 486 129 486 129 358 c 0,45,46
 129 249 129 249 216 160 c 0,47,48
 260 116 260 116 312 94 c 128,-1,49
 364 72 364 72 428 72 c 0,50,51
 477 72 477 72 510 82 c 1,52,53
 547 91 547 91 582 119 c 1,54,55
 641 160 641 160 686 244 c 1,56,-1
 692 250 l 1,57,-1
 709 256 l 1,58,-1
 727 260 l 1,59,60
 748 254 748 254 752 229 c 1,61,-1
 752 215 l 1,0,-1
EndSplineSet
EndChar

StartChar: u1045
Encoding: 4165 4165 49
Width: 844
GlyphClass: 2
Flags: W
LayerCount: 2
Fore
SplineSet
133 399 m 1,0,-1
 133 371 l 2,1,2
 133 349 133 349 129 344 c 1,3,4
 135 316 135 316 163 282 c 1,5,6
 192 258 192 258 229 258 c 0,7,8
 256 258 256 258 296 289 c 128,-1,9
 336 320 336 320 336 360 c 0,10,11
 336 396 336 396 303 432 c 1,12,13
 273 467 273 467 233 467 c 0,14,15
 174 467 174 467 133 399 c 1,0,-1
66 416 m 1,16,17
 84 528 84 528 186 633 c 1,18,19
 236 677 236 677 299 702 c 128,-1,20
 362 727 362 727 422 727 c 0,21,22
 490 727 490 727 559 702 c 1,23,-1
 618 672 l 1,24,-1
 647 649 l 1,25,-1
 676 625 l 1,26,27
 784 523 784 523 784 367 c 2,28,-1
 784 -279 l 2,29,30
 784 -417 784 -417 679.5 -531 c 128,-1,31
 575 -645 575 -645 424 -645 c 0,32,33
 289 -645 289 -645 164 -541 c 1,34,35
 130 -507 130 -507 84 -418 c 1,36,-1
 76 -394 l 1,37,-1
 64 -350 l 1,38,-1
 59 -317 l 1,39,-1
 57 -287 l 1,40,41
 57 -238 57 -238 92 -238 c 256,42,43
 127 -238 127 -238 127 -287 c 2,44,-1
 127 -325 l 1,45,-1
 132 -354 l 1,46,-1
 135 -369 l 1,47,-1
 138 -380 l 1,48,-1
 146 -398 l 1,49,-1
 158 -424 l 1,50,-1
 173 -448 l 1,51,-1
 213 -492 l 1,52,53
 293 -575 293 -575 424 -575 c 0,54,55
 541 -575 541 -575 627 -490.5 c 128,-1,56
 713 -406 713 -406 713 -279 c 2,57,-1
 713 373 l 2,58,59
 713 483 713 483 625 571 c 128,-1,60
 537 659 537 659 422 659 c 0,61,62
 281 659 281 659 182 530 c 1,63,-1
 207 535 l 1,64,-1
 233 537 l 1,65,66
 292 537 292 537 347.5 479 c 128,-1,67
 403 421 403 421 403 360 c 0,68,69
 403 297 403 297 348 243.5 c 128,-1,70
 293 190 293 190 229 190 c 0,71,72
 162 190 162 190 109 242 c 1,73,-1
 71 300 l 1,74,75
 57 334 57 334 57 365 c 1,76,-1
 66 416 l 1,16,17
EndSplineSet
EndChar

StartChar: u1046
Encoding: 4166 4166 50
Width: 848
GlyphClass: 2
Flags: W
LayerCount: 2
Fore
SplineSet
647 492 m 1,0,1
 676 523 676 523 676 563 c 0,2,3
 676 599 676 599 645 631 c 1,4,5
 631 647 631 647 613.5 655.5 c 128,-1,6
 596 664 596 664 573 664 c 0,7,8
 551 664 551 664 504 633 c 1,9,10
 475 601 475 601 475 563 c 0,11,12
 475 533 475 533 506 492 c 1,13,-1
 557 463 l 1,14,-1
 578 461 l 1,15,16
 604 461 604 461 647 492 c 1,0,1
127 1004 m 2,17,-1
 129 356 l 2,18,19
 129 305 129 305 147 248 c 1,20,21
 166 199 166 199 215 152 c 1,22,23
 296 66 296 66 426 66 c 0,24,25
 538 66 538 66 621.5 137.5 c 128,-1,26
 705 209 705 209 705 279 c 1,27,-1
 707 299 l 1,28,29
 704 314 704 314 690 328 c 1,30,31
 678 344 678 344 653 358 c 1,32,-1
 559 393 l 1,33,-1
 520 399 l 1,34,-1
 481 418 l 1,35,36
 410 474 410 474 410 565 c 2,37,-1
 410 584 l 1,38,-1
 412 607 l 2,39,40
 414 621 414 621 419 633 c 1,41,-1
 432 656 l 1,42,-1
 441 667 l 1,43,-1
 453 679 l 1,44,-1
 478 697 l 1,45,-1
 506 715 l 1,46,-1
 575 731 l 1,47,48
 605 731 605 731 611 729 c 1,49,50
 619 729 619 729 639 720 c 1,51,52
 669 711 669 711 692 685 c 1,53,54
 717 662 717 662 731 629 c 1,55,-1
 745 563 l 1,56,-1
 744 527 l 1,57,-1
 743 517 l 1,58,-1
 736 497 l 2,59,60
 731 482 731 482 698 444 c 1,61,-1
 672 422 l 1,62,63
 703 408 703 408 752 362 c 1,64,65
 780 331 780 331 780 274 c 0,66,67
 780 184 780 184 674 90 c 0,68,69
 623 45 623 45 560 21 c 1,70,-1
 532 13 l 1,71,-1
 489 3 l 1,72,-1
 460 -1 l 1,73,-1
 426 -2 l 1,74,75
 285 -2 285 -2 172 100.5 c 128,-1,76
 59 203 59 203 59 356 c 2,77,-1
 59 1001 l 2,78,79
 59 1149 59 1149 163.5 1259.5 c 128,-1,80
 268 1370 268 1370 420 1370 c 0,81,82
 551 1370 551 1370 666.5 1265.5 c 128,-1,83
 782 1161 782 1161 782 1010 c 0,84,85
 782 973 782 973 752 973 c 0,86,87
 715 973 715 973 715 1010 c 0,88,89
 715 1127 715 1127 627 1212 c 1,90,91
 581 1258 581 1258 532 1278 c 1,92,-1
 479 1294 l 1,93,94
 452 1300 452 1300 420 1300 c 0,95,96
 294 1300 294 1300 210.5 1215 c 128,-1,97
 127 1130 127 1130 127 1004 c 2,17,-1
EndSplineSet
EndChar

StartChar: u1047
Encoding: 4167 4167 51
Width: 844
GlyphClass: 2
Flags: W
LayerCount: 2
Fore
SplineSet
793 -510 m 0,0,1
 793 -576 793 -576 733 -618 c 1,2,3
 686 -647 686 -647 623 -647 c 0,4,5
 573 -647 573 -647 520 -594 c 1,6,7
 457 -525 457 -525 457 -418 c 0,8,9
 457 -345 457 -345 573 -68 c 1,10,-1
 670 147 l 1,11,12
 719 273 719 273 719 365 c 0,13,14
 719 482 719 482 636 568.5 c 128,-1,15
 553 655 553 655 430 655 c 0,16,17
 310 655 310 655 222.5 567.5 c 128,-1,18
 135 480 135 480 135 356 c 1,19,-1
 137 305 l 2,20,21
 137 290 137 290 152 254 c 1,22,-1
 155 239 l 1,23,24
 155 230 155 230 147 219 c 1,25,-1
 117 205 l 1,26,27
 105 205 105 205 84 236 c 1,28,-1
 68 291 l 1,29,-1
 63 356 l 1,30,31
 63 497 63 497 168 612 c 128,-1,32
 273 727 273 727 430 727 c 0,33,34
 574 727 574 727 682.5 621.5 c 128,-1,35
 791 516 791 516 791 365 c 0,36,37
 791 230 791 230 721 78 c 1,38,-1
 639 -96 l 1,39,40
 528 -357 528 -357 528 -418 c 0,41,42
 528 -473 528 -473 558 -527 c 0,43,44
 565 -541 565 -541 589 -562 c 1,45,-1
 603 -570 l 1,46,-1
 623 -575 l 1,47,48
 668 -575 668 -575 690 -553 c 1,49,50
 714 -538 714 -538 721 -498 c 1,51,52
 721 -465 721 -465 756 -465 c 0,53,54
 793 -465 793 -465 793 -510 c 0,0,1
EndSplineSet
EndChar

StartChar: u1048
Encoding: 4168 4168 52
Width: 844
GlyphClass: 2
Flags: W
LayerCount: 2
Fore
SplineSet
782 367 m 0,0,1
 782 320 782 320 770 248 c 0,2,3
 764 208 764 208 731 145 c 1,4,5
 712 113 712 113 675 79 c 0,6,7
 642 48 642 48 584 2 c 1,8,-1
 565 2 l 1,9,-1
 555 7 l 1,10,-1
 537 20 l 1,11,-1
 534 34 l 1,12,13
 534 43 534 43 541 51 c 1,14,-1
 557 66 l 1,15,16
 587 84 587 84 612 109 c 1,17,-1
 664 172 l 1,18,19
 688 210 688 210 700 264 c 1,20,-1
 711 334 l 1,21,-1
 713 367 l 1,22,23
 713 469 713 469 628 560 c 128,-1,24
 543 651 543 651 428 651 c 0,25,26
 314 651 314 651 222.5 572 c 128,-1,27
 131 493 131 493 131 362 c 0,28,29
 131 283 131 283 168 193 c 1,30,31
 197 139 197 139 285 61 c 1,32,-1
 289 57 l 1,33,-1
 299 35 l 1,34,35
 299 22 299 22 291 14 c 1,36,-1
 262 0 l 1,37,-1
 246 2 l 1,38,-1
 242 6 l 1,39,40
 161 69 161 69 106 160 c 1,41,42
 92 189 92 189 72 256 c 1,43,44
 59 331 59 331 59 362 c 0,45,46
 59 512 59 512 164 623 c 1,47,48
 206 664 206 664 282 692.5 c 128,-1,49
 358 721 358 721 428 721 c 0,50,51
 581 721 581 721 681.5 621.5 c 128,-1,52
 782 522 782 522 782 367 c 0,0,1
EndSplineSet
EndChar

StartChar: u1049
Encoding: 4169 4169 53
Width: 848
GlyphClass: 2
Flags: W
LayerCount: 2
Fore
SplineSet
526 10 m 1,0,1
 539 23 539 23 539 45 c 1,2,-1
 536 65 l 2,3,4
 534 74 534 74 526 84 c 1,5,6
 508 96 508 96 487 96 c 2,7,-1
 479 96 l 1,8,-1
 455 84 l 1,9,10
 438 72 438 72 438 45 c 0,11,12
 438 26 438 26 440 24 c 2,13,-1
 453 10 l 2,14,15
 469 -6 469 -6 487 -6 c 0,16,17
 507 -6 507 -6 526 10 c 1,0,1
578 459 m 1,18,-1
 596 462 l 1,19,-1
 615 463 l 1,20,-1
 648 460 l 1,21,-1
 685 455 l 1,22,23
 697 455 697 455 700 463 c 1,24,-1
 696 474 l 1,25,-1
 692 485 l 1,26,-1
 683 507 l 1,27,28
 659 555 659 555 625 586 c 1,29,30
 533 664 533 664 424 664 c 0,31,32
 316 664 316 664 215 580 c 1,33,34
 173 538 173 538 149 486 c 1,35,-1
 133 432 l 1,36,37
 127 405 127 405 127 373 c 2,38,-1
 129 -274 l 2,39,40
 129 -398 129 -398 209 -484.5 c 128,-1,41
 289 -571 289 -571 418 -571 c 0,42,43
 529 -571 529 -571 621 -486.5 c 128,-1,44
 713 -402 713 -402 713 -281 c 0,45,46
 713 -246 713 -246 750 -246 c 0,47,48
 780 -246 780 -246 780 -281 c 0,49,50
 780 -427 780 -427 674 -537 c 1,51,52
 639 -571 639 -571 559 -610 c 1,53,-1
 493 -631 l 1,54,-1
 455 -638 l 1,55,-1
 418 -641 l 1,56,57
 280 -641 280 -641 168.5 -529.5 c 128,-1,58
 57 -418 57 -418 57 -272 c 2,59,-1
 57 373 l 2,60,61
 57 499 57 499 168 621 c 1,62,63
 222 675 222 675 287 703 c 0,64,65
 321 717 321 717 352 724 c 1,66,-1
 386 729 l 1,67,-1
 424 731 l 1,68,69
 558 731 558 731 674 637 c 1,70,71
 699 615 699 615 742 547 c 1,72,-1
 754 512 l 1,73,-1
 765 465 l 1,74,-1
 769 413 l 1,75,76
 769 393 769 393 750 365 c 0,77,78
 747 359 747 359 741 359 c 1,79,-1
 727 371 l 1,80,-1
 695 392 l 2,81,82
 669 409 669 409 636 409 c 1,83,-1
 606 406 l 1,84,85
 544 391 544 391 518 358 c 1,86,-1
 500 301 l 1,87,-1
 492 262 l 1,88,89
 489 241 489 241 489 209 c 0,90,91
 489 141 489 141 479 137 c 1,92,-1
 553 106 l 1,93,94
 563 93 563 93 578 45 c 1,95,96
 578 29 578 29 571.5 15 c 128,-1,97
 565 1 565 1 551 -14 c 0,98,99
 527 -41 527 -41 487 -41 c 0,100,101
 464 -41 464 -41 428 -14 c 1,102,-1
 421 -6 l 1,103,-1
 412 10 l 1,104,-1
 403 43 l 1,105,-1
 403 66 l 1,106,-1
 406 97 l 1,107,108
 409 109 409 109 426 123 c 1,109,-1
 427 169 l 1,110,-1
 428 219 l 1,111,-1
 431 270 l 1,112,-1
 439 326 l 1,113,114
 448 371 448 371 481 415 c 1,115,116
 495 429 495 429 578 459 c 1,18,-1
EndSplineSet
EndChar

StartChar: u104A
Encoding: 4170 4170 54
Width: 360
GlyphClass: 2
Flags: W
LayerCount: 2
Fore
SplineSet
174 33 m 1,0,-1
 168 16 l 1,1,2
 159 -2 159 -2 139 -2 c 0,3,4
 124 -2 124 -2 111 14 c 1,5,-1
 102 33 l 1,6,-1
 102 684 l 1,7,-1
 109 702 l 2,8,9
 112 707 112 707 139 723 c 1,10,11
 149 723 149 723 170 696 c 1,12,-1
 174 684 l 1,13,-1
 174 33 l 1,0,-1
EndSplineSet
EndChar

StartChar: u104B
Encoding: 4171 4171 55
Width: 465
GlyphClass: 2
Flags: W
LayerCount: 2
Fore
SplineSet
383 35 m 1,0,-1
 379 18 l 1,1,2
 370 0 370 0 350 0 c 0,3,4
 335 0 335 0 322 16 c 1,5,-1
 313 35 l 1,6,-1
 313 686 l 1,7,-1
 319 705 l 1,8,-1
 350 725 l 1,9,10
 360 725 360 725 381 698 c 1,11,-1
 383 686 l 1,12,-1
 383 35 l 1,0,-1
174 33 m 1,13,-1
 168 16 l 1,14,15
 159 -2 159 -2 139 -2 c 0,16,17
 124 -2 124 -2 111 14 c 1,18,-1
 102 33 l 1,19,-1
 102 684 l 1,20,-1
 109 702 l 2,21,22
 112 707 112 707 139 723 c 1,23,24
 149 723 149 723 170 696 c 1,25,-1
 174 684 l 1,26,-1
 174 33 l 1,13,-1
EndSplineSet
EndChar

StartChar: u1011.sub
Encoding: 65545 -1 56
Width: 8
GlyphClass: 4
Flags: W
AnchorPoint: "Anchor-2" -764 0 mark 0
LayerCount: 2
Fore
SplineSet
-196 -340 m 0,0,1
 -196 -239 -196 -239 -277 -171 c 1,2,3
 -316 -135 -316 -135 -360.5 -117 c 128,-1,4
 -405 -99 -405 -99 -462 -99 c 0,5,6
 -566 -99 -566 -99 -645.5 -172 c 128,-1,7
 -725 -245 -725 -245 -725 -345 c 0,8,9
 -725 -446 -725 -446 -646 -513 c 1,10,11
 -572 -585 -572 -585 -458 -585 c 0,12,13
 -406 -585 -406 -585 -362 -567.5 c 128,-1,14
 -318 -550 -318 -550 -277 -513 c 0,15,16
 -196 -442 -196 -442 -196 -340 c 0,0,1
-754 -215 m 1,17,18
 -750 -205 -750 -205 -738.5 -188 c 128,-1,19
 -727 -171 -727 -171 -711 -152 c 0,20,21
 -703 -143 -703 -143 -675 -121 c 2,22,-1
 -640 -93 l 1,23,24
 -549 -43 -549 -43 -462 -43 c 0,25,26
 -338 -43 -338 -43 -236.5 -127 c 128,-1,27
 -135 -211 -135 -211 -135 -340 c 0,28,29
 -135 -457 -135 -457 -228.5 -549 c 128,-1,30
 -322 -641 -322 -641 -458 -641 c 0,31,32
 -503 -641 -503 -641 -550.5 -631.5 c 128,-1,33
 -598 -622 -598 -622 -636 -597 c 1,34,35
 -694 -564 -694 -564 -754 -471 c 1,36,37
 -792 -543 -792 -543 -875 -592 c 128,-1,38
 -958 -641 -958 -641 -1046 -641 c 0,39,40
 -1172 -641 -1172 -641 -1274 -556.5 c 128,-1,41
 -1376 -472 -1376 -472 -1376 -345 c 0,42,43
 -1376 -237 -1376 -237 -1281 -140 c 128,-1,44
 -1186 -43 -1186 -43 -1051 -43 c 0,45,46
 -965 -43 -965 -43 -888 -86.5 c 128,-1,47
 -811 -130 -811 -130 -754 -215 c 1,17,18
-1239 -510 m 0,48,49
 -1197 -552 -1197 -552 -1152.5 -568.5 c 128,-1,50
 -1108 -585 -1108 -585 -1046 -585 c 0,51,52
 -992 -585 -992 -585 -947.5 -567.5 c 128,-1,53
 -903 -550 -903 -550 -863 -513 c 0,54,55
 -786 -444 -786 -444 -786 -340 c 0,56,57
 -786 -244 -786 -244 -865 -171 c 0,58,59
 -887 -151 -887 -151 -906.5 -138.5 c 128,-1,60
 -926 -126 -926 -126 -950 -117 c 1,61,-1
 -998 -104 l 1,62,63
 -1013 -101 -1013 -101 -1022.5 -100 c 128,-1,64
 -1032 -99 -1032 -99 -1051 -99 c 0,65,66
 -1155 -99 -1155 -99 -1236 -171 c 1,67,68
 -1262 -196 -1262 -196 -1285 -240 c 0,69,70
 -1314 -296 -1314 -296 -1314 -345 c 0,71,72
 -1314 -399 -1314 -399 -1297 -434 c 128,-1,73
 -1280 -469 -1280 -469 -1239 -510 c 0,48,49
EndSplineSet
Ligature2: "'clig' Contextual Ligatures lookup 7 subtable" u1011.sub u103C
Ligature2: "'clig' Contextual Ligatures lookup 5 subtable" u1011.sub u1031
Ligature2: "'clig' Contextual Ligatures lookup 3 subtable" u1039 u1011
EndChar

StartChar: uAA70
Encoding: 43632 43632 58
Width: 575
GlyphClass: 4
Flags: W
AnchorPoint: "Anchor-3" 240 657 mark 0
LayerCount: 2
Fore
SplineSet
444 1139 m 1,0,-1
 444 1153 l 1,1,-1
 445 1168 l 1,2,3
 445 1222 445 1222 405 1280 c 1,4,5
 377 1311 377 1311 343.5 1328.5 c 128,-1,6
 310 1346 310 1346 259 1358 c 1,7,-1
 214 1362 l 1,8,9
 154 1362 154 1362 101 1331 c 2,10,-1
 61 1307 l 1,11,-1
 51 1294 l 1,12,-1
 42 1286 l 1,13,-1
 22 1268 l 1,14,-1
 6 1244 l 1,15,-1
 -5 1218 l 1,16,-1
 -13 1198 l 1,17,-1
 -7 1182 l 1,18,-1
 -3 1153 l 1,19,-1
 -5 1148 l 1,20,-1
 -9 1132 l 1,21,-1
 -22 1129 l 1,22,-1
 -32 1130 l 1,23,-1
 -40 1136 l 1,24,-1
 -51 1148 l 1,25,-1
 -59 1163 l 1,26,-1
 -62 1178 l 1,27,-1
 -62 1192 l 1,28,-1
 -60 1202 l 1,29,30
 -60 1224 -60 1224 -58 1226 c 1,31,32
 -58 1236 -58 1236 -47 1251 c 2,33,-1
 -25 1284 l 1,34,-1
 1 1315 l 1,35,-1
 34 1341 l 1,36,-1
 71 1364 l 1,37,38
 136 1400 136 1400 216 1400 c 1,39,-1
 265 1397 l 1,40,41
 363 1379 363 1379 441 1300 c 0,42,43
 446 1296 446 1296 457 1279 c 1,44,-1
 476 1246 l 1,45,-1
 495 1184 l 1,46,-1
 480 1159 l 1,47,48
 474 1159 474 1159 460 1149 c 1,49,-1
 444 1139 l 1,0,-1
474 795 m 1,50,-1
 474 805 l 1,51,-1
 475 821 l 1,52,53
 475 870 475 870 433 936 c 1,54,55
 383 990 383 990 294 1014 c 1,56,-1
 243 1018 l 1,57,58
 181 1018 181 1018 134 987 c 1,59,-1
 111 976 l 1,60,-1
 93 965 l 1,61,-1
 83 952 l 1,62,-1
 75 944 l 1,63,-1
 53 923 l 1,64,-1
 40 897 l 1,65,-1
 29 880 l 1,66,-1
 20 854 l 1,67,-1
 28 838 l 1,68,-1
 26 811 l 1,69,-1
 25 801 l 1,70,-1
 20 790 l 1,71,72
 15 787 15 787 7 787 c 2,73,-1
 -4 788 l 1,74,-1
 -7 790 l 1,75,-1
 -19 804 l 1,76,-1
 -27 818 l 1,77,-1
 -34 836 l 1,78,79
 -31 839 -31 839 -31 846 c 2,80,-1
 -30 856 l 1,81,-1
 -27 880 l 2,82,83
 -25 890 -25 890 -22 893 c 2,84,-1
 -13 907 l 1,85,-1
 5 942 l 2,86,87
 10 952 10 952 16 957 c 2,88,-1
 34 973 l 1,89,-1
 67 995 l 1,90,-1
 101 1020 l 1,91,92
 165 1058 165 1058 242 1058 c 1,93,-1
 272 1057 l 1,94,-1
 309 1051 l 1,95,96
 362 1045 362 1045 393 1022 c 1,97,98
 432 1001 432 1001 473 954 c 0,99,100
 505 916 505 916 525 842 c 1,101,-1
 511 819 l 1,102,-1
 474 795 l 1,50,-1
EndSplineSet
EndChar

StartChar: u1092
Encoding: 4242 4242 60
Width: 934
GlyphClass: 2
Flags: W
LayerCount: 2
Fore
SplineSet
905 450 m 1,0,-1
 909 416 l 1,1,-1
 906 378 l 1,2,-1
 900 348 l 1,3,-1
 895 281 l 1,4,-1
 882 219 l 1,5,6
 876 198 876 198 806.5 98.5 c 128,-1,7
 737 -1 737 -1 715 -20 c 1,8,-1
 684 -52 l 1,9,-1
 646 -96 l 1,10,11
 562 -198 562 -198 549 -205 c 1,12,13
 549 -217 549 -217 492 -275 c 128,-1,14
 435 -333 435 -333 409 -349 c 1,15,-1
 404 -354 l 1,16,-1
 374 -391 l 1,17,-1
 346 -437 l 1,18,-1
 347 -498 l 1,19,-1
 348 -519 l 1,20,-1
 354 -541 l 1,21,22
 357 -568 357 -568 371 -585 c 1,23,-1
 395 -593 l 1,24,-1
 417 -596 l 1,25,-1
 435 -601 l 1,26,-1
 436 -587 l 1,27,-1
 435 -575 l 1,28,-1
 429 -557 l 1,29,30
 429 -540 429 -540 436 -533 c 1,31,32
 451 -510 451 -510 473 -510 c 1,33,-1
 485 -509 l 1,34,-1
 505 -510 l 2,35,36
 517 -510 517 -510 526 -515 c 2,37,-1
 537 -520 l 1,38,-1
 553 -532 l 1,39,-1
 566 -555 l 1,40,-1
 574 -586 l 1,41,-1
 576 -610 l 1,42,-1
 570 -633 l 2,43,44
 568 -640 568 -640 565 -643 c 2,45,-1
 556 -657 l 1,46,-1
 544 -669 l 1,47,-1
 523 -683 l 1,48,-1
 505 -684 l 1,49,-1
 482 -685 l 1,50,-1
 470 -685 l 1,51,-1
 460 -685 l 1,52,-1
 450 -683 l 1,53,-1
 421 -679 l 1,54,-1
 387 -669 l 2,55,56
 368 -663 368 -663 355 -653 c 1,57,-1
 343 -637 l 1,58,-1
 331 -612 l 1,59,-1
 323 -592 l 1,60,-1
 317 -571 l 1,61,-1
 303 -517 l 1,62,-1
 295 -457 l 1,63,-1
 293 -386 l 1,64,-1
 371 -284 l 2,65,66
 387 -262 387 -262 423 -230 c 1,67,-1
 497 -171 l 1,68,69
 497 -165 497 -165 540 -113 c 1,70,-1
 625 -15 l 1,71,-1
 714 83 l 2,72,73
 757 130 757 130 778 165 c 1,74,-1
 820 260 l 1,75,76
 840 315 840 315 840 354 c 0,77,78
 840 475 840 475 754 562.5 c 128,-1,79
 668 650 668 650 571 650 c 0,80,81
 551 650 551 650 527 638 c 1,82,-1
 499 610 l 2,83,84
 474 585 474 585 444 531 c 1,85,-1
 427 484 l 1,86,-1
 412 440 l 1,87,-1
 410 430 l 2,88,89
 407 417 407 417 391 384 c 2,90,-1
 366 330 l 1,91,-1
 354 298 l 1,92,-1
 351 283 l 1,93,94
 351 276 351 276 346 268 c 1,95,-1
 330 233 l 1,96,97
 318 213 318 213 296 200 c 1,98,99
 271 181 271 181 249 173 c 1,100,-1
 225 167 l 1,101,-1
 193 165 l 1,102,103
 173 165 173 165 140 174 c 1,104,-1
 94 195 l 2,105,106
 81 201 81 201 64 239 c 1,107,-1
 52 268 l 1,108,-1
 35 311 l 1,109,-1
 29 346 l 1,110,-1
 27 391 l 1,111,-1
 27 413 l 1,112,-1
 28 433 l 1,113,114
 28 467 28 467 38.5 493.5 c 128,-1,115
 49 520 49 520 72 551 c 1,116,-1
 102 573 l 2,117,118
 117 584 117 584 132 585 c 1,119,120
 157 585 157 585 180 566 c 1,121,122
 208 541 208 541 208 499 c 0,123,124
 208 472 208 472 181 434 c 1,125,126
 158 410 158 410 133 410 c 1,127,-1
 108 419 l 1,128,-1
 89 439 l 1,129,-1
 89 418 l 1,130,-1
 85 356 l 1,131,132
 85 325 85 325 89 314 c 0,133,134
 98 283 98 283 115 261 c 2,135,-1
 129 244 l 1,136,-1
 139 235 l 1,137,-1
 161 226 l 1,138,-1
 199 222 l 1,139,140
 226 222 226 222 242 228 c 128,-1,141
 258 234 258 234 265 248 c 1,142,-1
 278 284 l 1,143,-1
 294 331 l 1,144,-1
 312 371 l 1,145,-1
 328 410 l 1,146,-1
 343 461 l 1,147,148
 367 530 367 530 394 578.5 c 128,-1,149
 421 627 421 627 459 660 c 2,150,-1
 507 703 l 1,151,152
 525 715 525 715 574 715 c 0,153,154
 675 715 675 715 753 659 c 1,155,156
 782 641 782 641 822 590 c 1,157,-1
 875 504 l 1,158,-1
 887 486 l 2,159,160
 901 465 901 465 905 450 c 1,0,-1
EndSplineSet
EndChar

StartChar: u103C.udia
Encoding: 65548 -1 61
Width: 205
GlyphClass: 3
Flags: W
LayerCount: 2
Fore
SplineSet
1163 -75 m 1,0,-1
 1169 -99 l 1,1,-1
 1171 -124 l 1,2,3
 1171 -165 1171 -165 1120 -222 c 1,4,5
 1097 -242 1097 -242 981 -316 c 1,6,-1
 918 -352 l 1,7,-1
 862 -381 l 1,8,9
 822 -400 822 -400 786 -411 c 2,10,-1
 707 -434 l 1,11,-1
 668 -439 l 1,12,-1
 625 -441 l 1,13,-1
 613 -441 l 1,14,-1
 574 -440 l 2,15,16
 554 -440 554 -440 538 -436 c 1,17,-1
 509 -432 l 1,18,19
 498 -432 498 -432 481 -426 c 1,20,-1
 462 -422 l 1,21,-1
 441 -415 l 1,22,23
 353 -389 353 -389 294 -329 c 2,24,-1
 226 -261 l 1,25,-1
 199 -233 l 1,26,-1
 178 -208 l 1,27,-1
 167 -191 l 1,28,-1
 154 -164 l 1,29,-1
 110 -67 l 2,30,31
 98 -40 98 -40 89 -4 c 2,32,-1
 81 31 l 1,33,-1
 73 74 l 1,34,35
 61 157 61 157 61 255 c 1,36,-1
 63 316 l 1,37,-1
 65 378 l 1,38,-1
 68 435 l 1,39,-1
 72 475 l 1,40,-1
 78 502 l 1,41,42
 95 624 95 624 117 688 c 1,43,44
 153 784 153 784 189 842 c 1,45,46
 231 896 231 896 332 958.5 c 128,-1,47
 433 1021 433 1021 574 1057 c 1,48,-1
 635 1069 l 1,49,-1
 706 1079 l 1,50,-1
 779 1086 l 1,51,-1
 856 1088 l 1,52,53
 946 1088 946 1088 1036 1079 c 1,54,-1
 1055 1079 l 1,55,-1
 1075 1077 l 1,56,-1
 1131 1070 l 1,57,-1
 1175 1064 l 1,58,-1
 1198 1061 l 1,59,-1
 1222 1056 l 1,60,-1
 1411 1028 l 1,61,62
 1463 1022 1463 1022 1480 1008 c 1,63,64
 1504 996 1504 996 1507 983 c 1,65,-1
 1503 977 l 1,66,-1
 1491 966 l 1,67,-1
 1469 961 l 1,68,-1
 1447 959 l 1,69,-1
 1435 959 l 1,70,-1
 1419 961 l 1,71,-1
 1254 984 l 1,72,-1
 1039 1010 l 1,73,74
 925 1022 925 1022 859 1022 c 0,75,76
 789 1022 789 1022 733 1017 c 128,-1,77
 677 1012 677 1012 618 999 c 0,78,79
 507 976 507 976 415 922 c 1,80,81
 339 881 339 881 275 823 c 1,82,83
 254 798 254 798 195 685 c 1,84,85
 183 652 183 652 160 509 c 1,86,-1
 148 386 l 1,87,-1
 144 268 l 1,88,89
 144 156 144 156 156 59 c 128,-1,90
 168 -38 168 -38 195 -95 c 1,91,92
 240 -176 240 -176 290 -220 c 1,93,-1
 420 -308 l 1,94,95
 466 -337 466 -337 514.5 -353.5 c 128,-1,96
 563 -370 563 -370 605 -370 c 0,97,98
 659 -370 659 -370 722.5 -349.5 c 128,-1,99
 786 -329 786 -329 867 -285 c 1,100,-1
 951 -257 l 2,101,102
 998 -242 998 -242 1029 -205 c 1,103,104
 990 -205 990 -205 965 -177 c 128,-1,105
 940 -149 940 -149 940 -103 c 0,106,107
 940 -55 940 -55 984 -27 c 1,108,-1
 1018 -11 l 1,109,110
 1036 -5 1036 -5 1055 -5 c 1,111,112
 1078 -8 1078 -8 1113 -28.5 c 128,-1,113
 1148 -49 1148 -49 1163 -75 c 1,0,-1
EndSplineSet
Ligature2: "'clig' Contextual Ligatures lookup 8 subtable" guard u103C.udia
EndChar

StartChar: u103C.nar
Encoding: 65549 -1 62
Width: 195
GlyphClass: 3
Flags: W
LayerCount: 2
Fore
SplineSet
475 1000 m 1,0,1
 439 1000 439 1000 391.5 981 c 128,-1,2
 344 962 344 962 313 937 c 1,3,4
 286 919 286 919 264 894 c 128,-1,5
 242 869 242 869 218 830 c 1,6,-1
 192 753 l 1,7,-1
 170 640 l 1,8,-1
 161 572 l 1,9,-1
 156 514 l 1,10,-1
 153 439 l 1,11,-1
 151 380 l 1,12,-1
 152 218 l 2,13,14
 152 84 152 84 188 -90 c 0,15,16
 202 -158 202 -158 231.5 -220 c 128,-1,17
 261 -282 261 -282 291.5 -303.5 c 128,-1,18
 322 -325 322 -325 356.5 -340.5 c 128,-1,19
 391 -356 391 -356 423 -356 c 0,20,21
 483 -356 483 -356 548 -300 c 1,22,-1
 649 -192 l 1,23,24
 619 -163 619 -163 615 -157 c 0,25,26
 600 -134 600 -134 600 -93 c 0,27,28
 600 -59 600 -59 624 -29 c 1,29,30
 648 -3 648 -3 686 -3 c 0,31,32
 704 -3 704 -3 739 -36 c 1,33,34
 768 -70 768 -70 768 -97 c 2,35,-1
 767 -129 l 2,36,37
 767 -156 767 -156 758 -177 c 0,38,39
 746 -206 746 -206 697 -259 c 1,40,-1
 633 -325 l 1,41,42
 585 -376 585 -376 533 -404 c 1,43,-1
 508 -416 l 1,44,-1
 480 -426 l 1,45,-1
 452 -433 l 1,46,-1
 423 -435 l 1,47,48
 397 -435 397 -435 377 -432 c 128,-1,49
 357 -429 357 -429 338 -421 c 1,50,51
 310 -412 310 -412 278 -390 c 1,52,53
 216 -353 216 -353 178 -297 c 1,54,55
 130 -222 130 -222 103 -75 c 1,56,-1
 91 1 l 1,57,-1
 82 70 l 1,58,-1
 76 136 l 1,59,-1
 74 196 l 1,60,-1
 75 281 l 1,61,-1
 76 378 l 1,62,63
 76 504 76 504 97 634 c 128,-1,64
 118 764 118 764 148 842 c 0,65,66
 184 934 184 934 258 996 c 0,67,68
 312 1041 312 1041 359 1062 c 128,-1,69
 406 1083 406 1083 447 1083 c 1,70,-1
 529 1062 l 1,71,-1
 611 1046 l 1,72,73
 647 1040 647 1040 671 1040 c 1,74,-1
 690 1041 l 1,75,76
 746 1047 746 1047 778 1109 c 1,77,-1
 813 1182 l 1,78,79
 830 1213 830 1213 860.5 1349.5 c 128,-1,80
 891 1486 891 1486 898 1493 c 1,81,-1
 909 1508 l 2,82,83
 913 1512 913 1512 927 1515 c 1,84,85
 944 1515 944 1515 944 1487 c 1,86,-1
 943 1464 l 1,87,-1
 942 1449 l 1,88,89
 942 1431 942 1431 936.5 1398.5 c 128,-1,90
 931 1366 931 1366 927.5 1347.5 c 128,-1,91
 924 1329 924 1329 916 1300 c 1,92,93
 892 1191 892 1191 879 1164 c 1,94,95
 853 1100 853 1100 837 1072 c 0,96,97
 798 1007 798 1007 744 981 c 1,98,-1
 698 965 l 1,99,-1
 633 963 l 2,100,101
 612 963 612 963 596 965 c 128,-1,102
 580 967 580 967 558 974 c 2,103,-1
 475 1000 l 1,0,1
EndSplineSet
Ligature2: "'clig' Contextual Ligatures lookup 8 subtable" guard u103C.nar
EndChar

StartChar: u103C.nar.udia
Encoding: 65550 -1 63
Width: 240
GlyphClass: 3
Flags: W
LayerCount: 2
Fore
SplineSet
753 -97 m 2,0,-1
 752 -129 l 2,1,2
 752 -156 752 -156 743 -177 c 0,3,4
 731 -206 731 -206 682 -259 c 1,5,-1
 618 -325 l 1,6,7
 570 -376 570 -376 518 -404 c 1,8,-1
 493 -416 l 1,9,-1
 465 -426 l 1,10,-1
 437 -433 l 1,11,-1
 408 -435 l 1,12,13
 382 -435 382 -435 362 -432 c 128,-1,14
 342 -429 342 -429 323 -421 c 1,15,16
 295 -412 295 -412 263 -390 c 1,17,18
 201 -353 201 -353 163 -297 c 1,19,20
 115 -222 115 -222 88 -75 c 1,21,-1
 76 1 l 1,22,-1
 67 70 l 1,23,-1
 61 136 l 1,24,-1
 59 196 l 1,25,-1
 60 281 l 1,26,-1
 61 378 l 1,27,28
 61 505 61 505 82 640 c 1,29,-1
 98 756 l 2,30,31
 103 789 103 789 107.5 810 c 128,-1,32
 112 831 112 831 118 845 c 2,33,-1
 151 937 l 1,34,35
 172 984 172 984 205 1016 c 1,36,37
 226 1034 226 1034 265 1057 c 1,38,39
 298 1070 298 1070 348 1070 c 0,40,41
 372 1070 372 1070 393 1061 c 2,42,-1
 428 1045 l 1,43,-1
 452 1034 l 1,44,-1
 461 1028 l 1,45,46
 478 1018 478 1018 487 995 c 1,47,-1
 494 964 l 1,48,49
 494 953 494 953 489 947 c 128,-1,50
 484 941 484 941 472 941 c 1,51,-1
 449 945 l 1,52,-1
 418 952 l 2,53,54
 403 955 403 955 393 965 c 0,55,56
 366 989 366 989 334 989 c 0,57,58
 297 989 297 989 253 955 c 1,59,60
 235 943 235 943 222 903 c 1,61,62
 210 857 210 857 198 836 c 1,63,-1
 179 780 l 1,64,-1
 155 642 l 1,65,-1
 148 592 l 1,66,-1
 141 514 l 1,67,-1
 138 439 l 1,68,-1
 136 380 l 1,69,-1
 137 218 l 2,70,71
 137 84 137 84 173 -90 c 0,72,73
 187 -158 187 -158 216.5 -220 c 128,-1,74
 246 -282 246 -282 276.5 -303.5 c 128,-1,75
 307 -325 307 -325 341.5 -340.5 c 128,-1,76
 376 -356 376 -356 408 -356 c 0,77,78
 468 -356 468 -356 533 -300 c 1,79,-1
 634 -192 l 1,80,81
 604 -163 604 -163 600 -157 c 0,82,83
 585 -134 585 -134 585 -93 c 0,84,85
 585 -59 585 -59 609 -29 c 1,86,87
 633 -3 633 -3 671 -3 c 0,88,89
 689 -3 689 -3 724 -36 c 1,90,91
 753 -70 753 -70 753 -97 c 2,0,-1
EndSplineSet
Ligature2: "'clig' Contextual Ligatures lookup 8 subtable" guard u103C.nar.udia
EndChar

StartChar: uAA77.alt
Encoding: 65551 -1 64
Width: 1664
GlyphClass: 2
Flags: W
LayerCount: 2
Fore
SplineSet
770 -35 m 1,0,-1
 763 -10 l 1,1,2
 763 3 763 3 774 15 c 2,3,4
 774 15 774 15 782 24 c 1,5,6
 788 29 788 29 801 38 c 1,7,-1
 827 48 l 1,8,-1
 880 61 l 1,9,10
 933 70 933 70 966 98 c 0,11,12
 981 112 981 112 996 137 c 1,13,-1
 1014 170 l 1,14,15
 1063 274 1063 274 1063 354 c 0,16,17
 1063 471 1063 471 969 559 c 128,-1,18
 875 647 875 647 768 647 c 0,19,20
 677 647 677 647 601 590.5 c 128,-1,21
 525 534 525 534 498 444 c 2,22,-1
 495 434 l 1,23,-1
 494 412 l 1,24,25
 489 407 489 407 459 299 c 1,26,-1
 432 176 l 1,27,-1
 432 163 l 1,28,-1
 430 144 l 1,29,30
 430 132 430 132 421 117 c 1,31,32
 410 92 410 92 387 66 c 1,33,34
 341 8 341 8 268 8 c 1,35,-1
 247 11 l 1,36,-1
 228 20 l 1,37,-1
 175 65 l 1,38,-1
 146 98 l 1,39,-1
 119 132 l 2,40,41
 74 189 74 189 55 245 c 1,42,-1
 46 277 l 1,43,-1
 38 315 l 1,44,-1
 33 359 l 1,45,-1
 32 396 l 1,46,-1
 33 437 l 1,47,-1
 33 458 l 2,48,49
 33 468 33 468 38 476 c 1,50,51
 43 501 43 501 67 527 c 2,52,-1
 98 561 l 1,53,54
 116 576 116 576 144 576 c 0,55,56
 174 576 174 576 191 566.5 c 128,-1,57
 208 557 208 557 224 522 c 1,58,-1
 227 501 l 1,59,-1
 227 490 l 2,60,61
 227 482 227 482 225 480 c 1,62,63
 225 470 225 470 215 453 c 2,64,-1
 206 437 l 1,65,-1
 195 426 l 1,66,-1
 177 415 l 1,67,-1
 154 411 l 1,68,-1
 138 413 l 1,69,-1
 116 415 l 1,70,71
 101 415 101 415 101 389 c 0,72,73
 101 361 101 361 103 357 c 1,74,-1
 112 316 l 1,75,-1
 126 257 l 1,76,-1
 138 224 l 1,77,-1
 158 189 l 1,78,79
 167 170 167 170 210 130 c 1,80,-1
 236 98 l 1,81,82
 254 78 254 78 272 78 c 0,83,84
 305 78 305 78 338 111 c 1,85,86
 358 146 358 146 358 172 c 1,87,88
 367 250 367 250 376 296 c 0,89,90
 394 379 394 379 416 406 c 1,91,-1
 419 416 l 1,92,-1
 420 438 l 1,93,-1
 426 461 l 1,94,95
 480 590 480 590 561 653 c 0,96,97
 576 665 576 665 644 687 c 1,98,-1
 735 715 l 1,99,-1
 788 712 l 1,100,-1
 817 710 l 1,101,-1
 836 709 l 1,102,-1
 855 705 l 1,103,104
 756 783 756 783 707 868 c 1,105,106
 690 904 690 904 680 938.5 c 128,-1,107
 670 973 670 973 670 1001 c 0,108,109
 670 1106 670 1106 727 1187 c 0,110,111
 742 1210 742 1210 822 1243 c 1,112,113
 864 1255 864 1255 895 1270 c 2,114,-1
 1026 1333 l 1,115,-1
 1110 1370 l 1,116,-1
 1190 1403 l 1,117,-1
 1262 1432 l 2,118,119
 1286 1441 1286 1441 1321 1540 c 1,120,-1
 1336 1613 l 1,121,-1
 1346 1666 l 2,122,123
 1352 1696 1352 1696 1370 1688 c 0,124,125
 1379 1685 1379 1685 1385 1639.5 c 128,-1,126
 1391 1594 1391 1594 1391 1538 c 0,127,128
 1391 1497 1391 1497 1364 1443 c 0,129,130
 1355 1427 1355 1427 1298 1369 c 1,131,-1
 1213 1333 l 1,132,-1
 1115 1290 l 1,133,-1
 885 1195 l 1,134,-1
 826 1169 l 1,135,136
 806 1159 806 1159 777 1130 c 1,137,138
 732 1073 732 1073 732 1001 c 0,139,140
 732 965 732 965 741 932 c 1,141,-1
 753 900 l 1,142,-1
 773 866 l 1,143,144
 785 851 785 851 833 806 c 1,145,146
 877 767 877 767 900 759 c 1,147,-1
 905 770 l 1,148,-1
 890 857 l 1,149,-1
 883 933 l 1,150,151
 883 1038 883 1038 940 1119 c 0,152,153
 955 1140 955 1140 1079 1186 c 1,154,-1
 1299 1259 l 1,155,-1
 1414 1293 l 1,156,-1
 1473 1313 l 1,157,158
 1500 1325 1500 1325 1517.5 1345.5 c 128,-1,159
 1535 1366 1535 1366 1550 1438.5 c 128,-1,160
 1565 1511 1565 1511 1565 1545 c 2,161,-1
 1565 1578 l 1,162,-1
 1568 1611 l 1,163,164
 1571 1622 1571 1622 1585 1625 c 1,165,-1
 1588 1619 l 1,166,-1
 1608 1576 l 1,167,-1
 1620 1533 l 1,168,-1
 1631 1480 l 1,169,-1
 1633 1465 l 1,170,-1
 1633 1451 l 2,171,172
 1633 1419 1633 1419 1615 1369 c 1,173,174
 1603 1339 1603 1339 1570 1297 c 1,175,176
 1549 1267 1549 1267 1504 1249 c 1,177,-1
 1410 1221 l 1,178,-1
 1370 1210 l 1,179,-1
 1308 1189 l 1,180,-1
 1195 1151 l 1,181,-1
 1151 1137 l 1,182,-1
 1113 1122 l 1,183,184
 1005 1083 1005 1083 990 1062 c 1,185,186
 945 1005 945 1005 945 933 c 1,187,-1
 948 851 l 1,188,-1
 948 824 l 1,189,-1
 958 770 l 1,190,191
 978 649 978 649 1020 610 c 0,192,193
 1047 586 1047 586 1065 562 c 1,194,195
 1084 540 1084 540 1098 506 c 2,196,-1
 1113 467 l 1,197,-1
 1124 430 l 1,198,-1
 1130 348 l 1,199,-1
 1124 281 l 1,200,-1
 1110 219 l 1,201,202
 1095 163 1095 163 1049 104 c 2,203,-1
 1026 74 l 1,204,-1
 973 7 l 1,205,-1
 965 -19 l 1,206,207
 965 -47 965 -47 1009 -103 c 1,208,-1
 1050 -159 l 1,209,210
 1077 -207 1077 -207 1096 -229 c 2,211,-1
 1130 -267 l 1,212,-1
 1182 -320 l 1,213,214
 1202 -334 1202 -334 1249 -351 c 1,215,-1
 1261 -352 l 1,216,-1
 1291 -349 l 1,217,-1
 1308 -344 l 1,218,-1
 1324 -338 l 1,219,-1
 1357 -328 l 1,220,-1
 1363 -326 l 1,221,-1
 1365 -332 l 1,222,-1
 1366 -342 l 1,223,224
 1366 -355 1366 -355 1321.5 -382 c 128,-1,225
 1277 -409 1277 -409 1242 -409 c 2,226,-1
 1220 -409 l 1,227,-1
 1197 -404 l 1,228,229
 1190 -404 1190 -404 1166 -392 c 1,230,231
 1127 -377 1127 -377 1113 -354 c 2,232,-1
 1092 -319 l 1,233,-1
 1083 -305 l 1,234,-1
 1069 -288 l 1,235,-1
 1017 -219 l 1,236,-1
 971 -129 l 1,237,-1
 963 -112 l 1,238,-1
 942 -99 l 1,239,-1
 940 -114 l 1,240,-1
 939 -134 l 1,241,-1
 939 -146 l 2,242,243
 939 -156 939 -156 937 -158 c 1,244,-1
 935 -189 l 1,245,246
 935 -228 935 -228 947 -331.5 c 128,-1,247
 959 -435 959 -435 970 -454 c 1,248,249
 979 -480 979 -480 1007 -507 c 1,250,251
 1023 -519 1023 -519 1081 -536 c 1,252,-1
 1095 -537 l 1,253,-1
 1122 -534 l 1,254,-1
 1154 -524 l 1,255,-1
 1190 -513 l 1,256,-1
 1196 -511 l 1,257,-1
 1198 -517 l 1,258,-1
 1198 -527 l 2,259,260
 1198 -551 1198 -551 1140 -579 c 1,261,-1
 1108 -589 l 1,262,-1
 1076 -593 l 1,263,-1
 1033 -590 l 1,264,265
 1007 -587 1007 -587 997 -579 c 1,266,267
 964 -567 964 -567 946 -539 c 1,268,-1
 931 -509 l 1,269,-1
 916 -474 l 1,270,271
 903 -438 903 -438 882 -355 c 1,272,-1
 875 -296 l 1,273,-1
 872 -238 l 1,274,-1
 873 -201 l 2,275,276
 873 -182 873 -182 877 -171 c 1,277,-1
 884 -128 l 1,278,-1
 886 -95 l 1,279,280
 886 -70 886 -70 882.5 -58.5 c 128,-1,281
 879 -47 879 -47 874 -42 c 1,282,283
 869 -39 869 -39 858 -39 c 2,284,-1
 824 -41 l 1,285,-1
 796 -44 l 1,286,287
 785 -44 785 -44 770 -35 c 1,0,-1
EndSplineSet
EndChar

StartChar: u103c.sub.old1
Encoding: 65552 -1 65
Width: 0
GlyphClass: 4
Flags: W
AnchorPoint: "Anchor-1" -348 0 mark 0
LayerCount: 2
Fore
SplineSet
-1014 -834 m 1,0,1
 -1032 -795 -1032 -795 -1038 -758 c 128,-1,2
 -1044 -721 -1044 -721 -1044 -666 c 1,3,-1
 -1041 -625 l 2,4,5
 -1040 -616 -1040 -616 -1037.5 -606 c 128,-1,6
 -1035 -596 -1035 -596 -1030 -584 c 1,7,8
 -1018 -541 -1018 -541 -974 -481 c 0,9,10
 -959 -460 -959 -460 -835 -414 c 1,11,-1
 -615 -341 l 1,12,-1
 -500 -307 l 1,13,-1
 -441 -287 l 1,14,15
 -414 -275 -414 -275 -395 -253 c 1,16,17
 -380 -233 -380 -233 -364.5 -157.5 c 128,-1,18
 -349 -82 -349 -82 -349 -55 c 2,19,-1
 -349 -22 l 1,20,-1
 -346 11 l 1,21,22
 -343 22 -343 22 -329 25 c 1,23,-1
 -326 19 l 1,24,-1
 -306 -24 l 1,25,-1
 -294 -67 l 1,26,-1
 -283 -120 l 1,27,-1
 -281 -135 l 1,28,-1
 -281 -149 l 2,29,30
 -281 -181 -281 -181 -299 -231 c 1,31,32
 -311 -261 -311 -261 -344 -303 c 1,33,34
 -365 -333 -365 -333 -410 -351 c 1,35,-1
 -504 -379 l 1,36,-1
 -544 -390 l 1,37,-1
 -606 -411 l 1,38,-1
 -719 -449 l 1,39,-1
 -763 -463 l 1,40,-1
 -801 -478 l 2,41,42
 -846 -496 -846 -496 -881 -515 c 0,43,44
 -908 -530 -908 -530 -918 -540 c 0,45,46
 -943 -564 -943 -564 -958 -614 c 128,-1,47
 -973 -664 -973 -664 -973 -721 c 0,48,49
 -973 -779 -973 -779 -960 -840 c 0,50,51
 -957 -857 -957 -857 -929.5 -895.5 c 128,-1,52
 -902 -934 -902 -934 -902 -944 c 0,53,54
 -902 -953 -902 -953 -918 -954 c 1,55,56
 -947 -954 -947 -954 -983 -896 c 1,57,-1
 -1014 -834 l 1,0,1
EndSplineSet
EndChar

StartChar: u103c.sub.old2
Encoding: 65553 -1 66
Width: 0
GlyphClass: 4
Flags: W
AnchorPoint: "Anchor-1" -303 0 mark 0
LayerCount: 2
Fore
SplineSet
-594 -348 m 1,0,1
 -649 -380 -649 -380 -731 -408 c 128,-1,2
 -813 -436 -813 -436 -885 -436 c 2,3,-1
 -905 -436 l 2,4,5
 -917 -436 -917 -436 -927 -434 c 1,6,7
 -939 -434 -939 -434 -960 -428 c 1,8,9
 -998 -420 -998 -420 -1026 -402 c 1,10,11
 -1085 -370 -1085 -370 -1104 -346 c 1,12,13
 -1125 -322 -1125 -322 -1125 -297 c 0,14,15
 -1125 -282 -1125 -282 -1118.5 -268 c 128,-1,16
 -1112 -254 -1112 -254 -1095 -237 c 0,17,18
 -1087 -229 -1087 -229 -1043 -219.5 c 128,-1,19
 -999 -210 -999 -210 -1002 -186 c 0,20,21
 -1005 -163 -1005 -163 -1034 -163 c 0,22,23
 -1043 -163 -1043 -163 -1053.5 -164.5 c 128,-1,24
 -1064 -166 -1064 -166 -1082 -174 c 2,25,-1
 -1110 -186 l 1,26,27
 -1148 -204 -1148 -204 -1167 -236.5 c 128,-1,28
 -1186 -269 -1186 -269 -1186 -310 c 0,29,30
 -1186 -358 -1186 -358 -1146 -394 c 1,31,-1
 -1059 -453 l 2,32,33
 -1040 -466 -1040 -466 -1019 -474 c 2,34,-1
 -975 -491 l 1,35,-1
 -940 -498 l 2,36,37
 -914 -504 -914 -504 -889 -504 c 2,38,-1
 -853 -503 l 2,39,40
 -846 -503 -846 -503 -834.5 -502 c 128,-1,41
 -823 -501 -823 -501 -811 -498 c 1,42,43
 -788 -495 -788 -495 -732 -480 c 1,44,45
 -644 -459 -644 -459 -565 -415 c 0,46,47
 -502 -380 -502 -380 -435 -324 c 0,48,49
 -414 -306 -414 -306 -389 -269 c 0,50,51
 -374 -246 -374 -246 -342 -189 c 0,52,53
 -323 -156 -323 -156 -302 -108 c 1,54,-1
 -281 -45 l 1,55,-1
 -276 -27 l 1,56,-1
 -275 -4 l 1,57,58
 -278 22 -278 22 -291 25 c 1,59,-1
 -297 20 l 1,60,-1
 -304 13 l 1,61,-1
 -320 -5 l 1,62,-1
 -344 -54 l 1,63,-1
 -360 -88 l 1,64,-1
 -375 -114 l 1,65,66
 -420 -186 -420 -186 -478.5 -249.5 c 128,-1,67
 -537 -313 -537 -313 -594 -348 c 1,0,1
EndSplineSet
EndChar

StartChar: u1017
Encoding: 4119 4119 67
Width: 844
GlyphClass: 3
Flags: W
AnchorPoint: "Anchor-3" 417 694 basechar 0
AnchorPoint: "Anchor-2" 434 0 basechar 0
AnchorPoint: "Anchor-1" 432 0 basechar 0
LayerCount: 2
Fore
SplineSet
299 682 m 1,0,1
 299 634 299 634 330 596 c 1,2,3
 345 581 345 581 365 571 c 1,4,-1
 412 563 l 1,5,6
 426 563 426 563 450 569 c 128,-1,7
 474 575 474 575 494 592 c 0,8,9
 527 619 527 619 537 678 c 1,10,-1
 533 686 l 1,11,-1
 538 699 l 2,12,13
 543 711 543 711 557 717 c 1,14,-1
 584 717 l 1,15,16
 623 696 623 696 659 660 c 128,-1,17
 695 624 695 624 725 573 c 0,18,19
 782 474 782 474 782 352 c 0,20,21
 782 202 782 202 682 98 c 1,22,23
 637 56 637 56 568 26 c 1,24,25
 532 12 532 12 500 5 c 0,26,27
 483 2 483 2 465.5 0 c 128,-1,28
 448 -2 448 -2 428 -2 c 0,29,30
 262 -2 262 -2 160.5 92.5 c 128,-1,31
 59 187 59 187 59 356 c 0,32,33
 59 457 59 457 104 559 c 1,34,35
 130 606 130 606 162 641 c 1,36,-1
 197 674 l 1,37,-1
 242 713 l 1,38,-1
 264 719 l 1,39,-1
 274 715 l 1,40,-1
 291 707 l 1,41,-1
 299 682 l 1,0,1
580 641 m 1,42,43
 568 584 568 584 518 543 c 1,44,-1
 467 513 l 1,45,46
 444 504 444 504 416 504 c 0,47,48
 374 504 374 504 319 535 c 1,49,50
 282 562 282 562 256 633 c 1,51,52
 221 604 221 604 162 510 c 1,53,-1
 137 434 l 1,54,-1
 131 356 l 1,55,56
 131 229 131 229 211 145 c 1,57,58
 291 68 291 68 428 68 c 0,59,60
 536 68 536 68 625 147 c 0,61,62
 663 182 663 182 688 239.5 c 128,-1,63
 713 297 713 297 713 352 c 0,64,65
 713 446 713 446 678 522 c 1,66,67
 657 579 657 579 580 641 c 1,42,43
EndSplineSet
Ligature2: "'clig' Contextual Ligatures lookup 7 subtable" u1017 u103C
Ligature2: "'clig' Contextual Ligatures lookup 5 subtable" u1017 u1031
MultipleSubs2: "Multiple Substitution lookup 2 subtable" guard u103C.nar u1017
MultipleSubs2: "Multiple Substitution lookup 1 subtable" guard u103C.nar.udia u1017
MultipleSubs2: "Multiple Substitution lookup 0 subtable" guard u1031 u1017
EndChar

StartChar: u1012
Encoding: 4114 4114 68
Width: 844
GlyphClass: 3
Flags: W
AnchorPoint: "Anchor-3" 426 694 basechar 0
AnchorPoint: "Anchor-2" 432 0 basechar 0
AnchorPoint: "Anchor-1" 434 0 basechar 0
LayerCount: 2
Fore
SplineSet
782 238 m 0,0,1
 782 119 782 119 680 51 c 1,2,3
 588 2 588 2 434 2 c 0,4,5
 276 2 276 2 191 38 c 128,-1,6
 106 74 106 74 66 166 c 1,7,-1
 74 182 l 1,8,-1
 96 205 l 1,9,10
 116 202 116 202 121 197 c 2,11,-1
 135 186 l 1,12,13
 153 138 153 138 225 96 c 1,14,-1
 285 83 l 1,15,-1
 325 76 l 1,16,17
 376 70 376 70 434 70 c 0,18,19
 564 70 564 70 627 102 c 0,20,21
 713 146 713 146 713 238 c 0,22,23
 713 282 713 282 643 322 c 1,24,-1
 551 348 l 1,25,-1
 526 360 l 1,26,-1
 518 389 l 1,27,28
 518 407 518 407 537 414 c 1,29,-1
 555 416 l 1,30,-1
 588 417 l 1,31,-1
 605 418 l 1,32,-1
 621 425 l 1,33,34
 644 431 644 431 668 451 c 1,35,36
 709 475 709 475 709 547 c 0,37,38
 709 579 709 579 625 629 c 1,39,40
 531 664 531 664 430 664 c 2,41,-1
 395 664 l 2,42,43
 370 664 370 664 368 662 c 1,44,-1
 321 656 l 1,45,-1
 290 652 l 1,46,47
 273 652 273 652 263 647 c 1,48,-1
 244 643 l 1,49,-1
 219 633 l 1,50,51
 137 607 137 607 137 535 c 0,52,53
 137 516 137 516 142 508 c 2,54,-1
 160 479 l 1,55,-1
 197 442 l 1,56,-1
 199 420 l 1,57,-1
 193 399 l 1,58,-1
 168 391 l 1,59,-1
 154 391 l 1,60,-1
 98 453 l 1,61,62
 83 474 83 474 74.5 495.5 c 128,-1,63
 66 517 66 517 66 535 c 0,64,65
 66 634 66 634 168 682 c 1,66,-1
 222 702 l 1,67,-1
 286 720 l 1,68,69
 314 724 314 724 363 728.5 c 128,-1,70
 412 733 412 733 430 733 c 0,71,72
 532 733 532 733 571 722 c 1,73,74
 623 713 623 713 680 686 c 1,75,76
 778 645 778 645 778 547 c 0,77,78
 778 487 778 487 754 442 c 1,79,80
 742 424 742 424 723 408 c 1,81,-1
 676 379 l 1,82,83
 727 364 727 364 754.5 327 c 128,-1,84
 782 290 782 290 782 238 c 0,0,1
EndSplineSet
Ligature2: "'clig' Contextual Ligatures lookup 7 subtable" u1012 u103C
Ligature2: "'clig' Contextual Ligatures lookup 5 subtable" u1012 u1031
MultipleSubs2: "Multiple Substitution lookup 2 subtable" guard u103C.nar u1012
MultipleSubs2: "Multiple Substitution lookup 1 subtable" guard u103C.nar.udia u1012
MultipleSubs2: "Multiple Substitution lookup 0 subtable" guard u1031 u1012
EndChar

StartChar: u1002
Encoding: 4098 4098 69
Width: 844
GlyphClass: 3
Flags: W
AnchorPoint: "Anchor-3" 428 694 basechar 0
AnchorPoint: "Anchor-2" 422 0 basechar 0
AnchorPoint: "Anchor-1" 420 0 basechar 0
LayerCount: 2
Fore
SplineSet
782 367 m 0,0,1
 782 320 782 320 770 248 c 0,2,3
 764 208 764 208 731 145 c 1,4,5
 712 113 712 113 675 79 c 0,6,7
 642 48 642 48 584 2 c 1,8,-1
 565 2 l 1,9,-1
 555 7 l 1,10,-1
 537 20 l 1,11,-1
 534 34 l 1,12,13
 534 43 534 43 541 51 c 1,14,-1
 557 66 l 1,15,16
 587 84 587 84 612 109 c 1,17,-1
 664 172 l 1,18,19
 688 210 688 210 700 264 c 1,20,-1
 711 334 l 1,21,-1
 713 367 l 1,22,23
 713 469 713 469 628 560 c 128,-1,24
 543 651 543 651 428 651 c 0,25,26
 314 651 314 651 222.5 572 c 128,-1,27
 131 493 131 493 131 362 c 0,28,29
 131 283 131 283 168 193 c 1,30,31
 197 139 197 139 285 61 c 1,32,-1
 289 57 l 1,33,-1
 299 35 l 1,34,35
 299 22 299 22 291 14 c 1,36,-1
 262 0 l 1,37,-1
 246 2 l 1,38,-1
 242 6 l 1,39,40
 161 69 161 69 106 160 c 1,41,42
 92 189 92 189 72 256 c 1,43,44
 59 331 59 331 59 362 c 0,45,46
 59 512 59 512 164 623 c 1,47,48
 206 664 206 664 282 692.5 c 128,-1,49
 358 721 358 721 428 721 c 0,50,51
 581 721 581 721 681.5 621.5 c 128,-1,52
 782 522 782 522 782 367 c 0,0,1
EndSplineSet
Ligature2: "'clig' Contextual Ligatures lookup 7 subtable" u1002 u103C
Ligature2: "'clig' Contextual Ligatures lookup 5 subtable" u1002 u1031
MultipleSubs2: "Multiple Substitution lookup 2 subtable" guard u103C.nar u1002
MultipleSubs2: "Multiple Substitution lookup 1 subtable" guard u103C.nar.udia u1002
MultipleSubs2: "Multiple Substitution lookup 0 subtable" guard u1031 u1002
EndChar

StartChar: u103A_u1036
Encoding: 65554 -1 70
Width: 38
GlyphClass: 2
Flags: W
AnchorPoint: "Anchor-3" -327 694 basechar 0
LayerCount: 2
Fore
SplineSet
-102 1226 m 1,0,-1
 -100 1213 l 1,1,-1
 -105 1202 l 1,2,-1
 -121 1202 l 1,3,-1
 -136 1202 l 1,4,-1
 -150 1202 l 1,5,-1
 -163 1202 l 1,6,-1
 -176 1202 l 1,7,-1
 -214 1202 l 1,8,-1
 -256 1203 l 1,9,-1
 -268 1203 l 2,10,11
 -361 1203 -361 1203 -450 1138 c 0,12,13
 -525 1084 -525 1084 -547 989 c 1,14,-1
 -552 965 l 1,15,-1
 -557 939 l 1,16,-1
 -554 911 l 1,17,-1
 -554 896 l 1,18,-1
 -555 881 l 1,19,-1
 -554 862 l 2,20,21
 -554 854 -554 854 -546 845 c 1,22,-1
 -517 863 l 1,23,-1
 -492 871 l 1,24,25
 -465 871 -465 871 -446 855 c 1,26,27
 -420 835 -420 835 -420 796 c 0,28,29
 -420 773 -420 773 -444 741 c 1,30,31
 -473 720 -473 720 -492 720 c 0,32,33
 -523 720 -523 720 -533 725 c 1,34,-1
 -556 746 l 1,35,-1
 -578 773 l 1,36,-1
 -596 809 l 1,37,-1
 -609 843 l 1,38,-1
 -619 894 l 1,39,-1
 -616 941 l 1,40,-1
 -611 989 l 1,41,42
 -602 1036 -602 1036 -569 1087 c 1,43,-1
 -554 1109 l 1,44,-1
 -546 1119 l 1,45,-1
 -534 1130 l 1,46,-1
 -513 1151 l 1,47,-1
 -487 1175 l 1,48,49
 -440 1213 -440 1213 -380 1235 c 1,50,-1
 -319 1251 l 1,51,52
 -289 1257 -289 1257 -258 1257 c 0,53,54
 -200 1257 -200 1257 -171 1250 c 1,55,-1
 -158 1250 l 1,56,-1
 -141 1246 l 1,57,58
 -122 1243 -122 1243 -102 1226 c 1,0,-1
-75 905 m 1,59,60
 -75 893 -75 893 -84 864 c 1,61,62
 -94 845 -94 845 -115 822 c 1,63,-1
 -160 794 l 1,64,-1
 -208 784 l 1,65,66
 -222 784 -222 784 -249 793 c 1,67,68
 -260 799 -260 799 -293 824 c 1,69,70
 -309 846 -309 846 -317 868 c 1,71,-1
 -324 891 l 1,72,-1
 -327 917 l 1,73,74
 -327 965 -327 965 -287 1002 c 0,75,76
 -272 1016 -272 1016 -242 1026 c 1,77,78
 -214 1037 -214 1037 -196 1037 c 0,79,80
 -176 1037 -176 1037 -155 1027.5 c 128,-1,81
 -134 1018 -134 1018 -113 1000 c 1,82,-1
 -85 954 l 1,83,-1
 -78 931 l 1,84,-1
 -75 905 l 1,59,60
-132 909 m 1,85,86
 -132 923 -132 923 -147 953 c 1,87,-1
 -168 968 l 1,88,-1
 -200 981 l 1,89,90
 -208 981 -208 981 -240 963 c 1,91,92
 -247 956 -247 956 -255 941 c 2,93,-1
 -269 915 l 1,94,95
 -269 888 -269 888 -252 865 c 0,96,97
 -246 856 -246 856 -233 849 c 1,98,-1
 -205 843 l 1,99,100
 -195 843 -195 843 -178 850 c 2,101,-1
 -154 861 l 1,102,-1
 -140 885 l 1,103,-1
 -132 909 l 1,85,86
EndSplineSet
EndChar

StartChar: u1083_u103A
Encoding: 65555 -1 71
Width: 633
GlyphClass: 2
Flags: W
LayerCount: 2
Fore
SplineSet
535 -556 m 1,0,-1
 519 -558 l 1,1,-1
 506 -558 l 2,2,3
 474 -558 474 -558 424 -540 c 1,4,5
 394 -528 394 -528 352 -495 c 1,6,7
 276 -446 276 -446 276 -335 c 2,8,-1
 276 564 l 2,9,10
 276 624 276 624 216 672 c 0,11,12
 190 692 190 692 154 705.5 c 128,-1,13
 118 719 118 719 86 719 c 0,14,15
 50 719 50 719 17 710 c 1,16,-1
 -15 697 l 2,17,18
 -31 691 -31 691 -49 678 c 1,19,20
 -70 660 -70 660 -86 623 c 1,21,-1
 -96 592 l 1,22,-1
 -104 560 l 1,23,24
 -104 523 -104 523 -143 523 c 0,25,26
 -176 523 -176 523 -176 560 c 0,27,28
 -176 600 -176 600 -154 644 c 1,29,30
 -139 681 -139 681 -100 720 c 1,31,32
 -64 749 -64 749 -15 765 c 1,33,-1
 33 777 l 1,34,-1
 86 781 l 1,35,36
 191 781 191 781 272 724 c 0,37,38
 311 697 311 697 330.5 656.5 c 128,-1,39
 350 616 350 616 350 564 c 2,40,-1
 348 -339 l 2,41,42
 348 -395 348 -395 408 -448 c 1,43,44
 431 -466 431 -466 496 -478 c 128,-1,45
 561 -490 561 -490 600 -490 c 2,46,-1
 633 -490 l 2,47,48
 653 -490 653 -490 666 -493 c 128,-1,49
 679 -496 679 -496 680 -510 c 1,50,-1
 674 -513 l 1,51,-1
 631 -533 l 1,52,-1
 588 -545 l 1,53,-1
 535 -556 l 1,0,-1
515 1148 m 1,54,-1
 515 1136 l 1,55,-1
 508 1127 l 1,56,-1
 495 1129 l 1,57,-1
 481 1131 l 1,58,-1
 468 1134 l 1,59,-1
 456 1136 l 1,60,-1
 445 1138 l 1,61,-1
 411 1144 l 1,62,-1
 374 1151 l 1,63,-1
 363 1153 l 1,64,-1
 318 1157 l 1,65,66
 264 1157 264 1157 190 1124 c 1,67,68
 112 1085 112 1085 79 1006 c 1,69,-1
 71 985 l 1,70,-1
 62 963 l 1,71,-1
 61 937 l 1,72,-1
 58 924 l 1,73,-1
 55 910 l 1,74,-1
 53 893 l 1,75,76
 51 887 51 887 57 877 c 1,77,-1
 87 888 l 1,78,-1
 109 891 l 1,79,80
 133 888 133 888 148 870 c 1,81,82
 164 854 164 854 164 828 c 1,83,-1
 163 813 l 1,84,85
 157 786 157 786 132 767 c 1,86,-1
 109 758 l 1,87,-1
 86 756 l 1,88,-1
 64 761 l 1,89,-1
 50 768 l 1,90,-1
 33 790 l 1,91,-1
 17 817 l 1,92,-1
 7 853 l 1,93,-1
 1 885 l 1,94,-1
 0 932 l 1,95,-1
 10 974 l 1,96,-1
 22 1016 l 1,97,98
 41 1065 41 1065 75 1097 c 1,99,100
 90 1114 90 1114 111 1130 c 1,101,-1
 162 1163 l 1,102,-1
 185 1174 l 1,103,-1
 210 1185 l 1,104,-1
 267 1201 l 1,105,-1
 318 1205 l 1,106,107
 342 1205 342 1205 378 1199 c 2,108,-1
 427 1190 l 1,109,-1
 437 1187 l 1,110,111
 443 1187 443 1187 457 1180 c 1,112,113
 489 1171 489 1171 515 1148 c 1,54,-1
EndSplineSet
EndChar

StartChar: u25CC
Encoding: 9676 9676 72
Width: 636
GlyphClass: 2
Flags: W
LayerCount: 2
Fore
SplineSet
580 231 m 256,0,1
 580 207 580 207 556 207 c 256,2,3
 532 207 532 207 532 231 c 256,4,5
 532 255 532 255 556 255 c 256,6,7
 580 255 580 255 580 231 c 256,0,1
561 322 m 0,8,9
 561 298 561 298 538 298 c 0,10,11
 514 298 514 298 514 322 c 0,12,13
 514 345 514 345 538 345 c 0,14,15
 561 345 561 345 561 322 c 0,8,9
510 399 m 256,16,17
 510 375 510 375 486 375 c 256,18,19
 462 375 462 375 462 399 c 256,20,21
 462 423 462 423 486 423 c 256,22,23
 510 423 510 423 510 399 c 256,16,17
432 451 m 256,24,25
 432 427 432 427 408 427 c 0,26,27
 385 427 385 427 385 451 c 256,28,29
 385 475 385 475 408 475 c 0,30,31
 432 475 432 475 432 451 c 256,24,25
340 469 m 256,32,33
 340 445 340 445 318 445 c 0,34,35
 294 445 294 445 294 469 c 256,36,37
 294 493 294 493 318 493 c 0,38,39
 340 493 340 493 340 469 c 256,32,33
250 451 m 256,40,41
 250 427 250 427 226 427 c 256,42,43
 202 427 202 427 202 451 c 256,44,45
 202 475 202 475 226 475 c 256,46,47
 250 475 250 475 250 451 c 256,40,41
172 399 m 256,48,49
 172 375 172 375 148 375 c 256,50,51
 124 375 124 375 124 399 c 256,52,53
 124 423 124 423 148 423 c 256,54,55
 172 423 172 423 172 399 c 256,48,49
120 322 m 0,56,57
 120 298 120 298 97 298 c 0,58,59
 73 298 73 298 73 322 c 0,60,61
 73 345 73 345 97 345 c 0,62,63
 120 345 120 345 120 322 c 0,56,57
102 231 m 256,64,65
 102 207 102 207 78 207 c 0,66,67
 55 207 55 207 54 231 c 1,68,69
 55 255 55 255 78 255 c 0,70,71
 102 255 102 255 102 231 c 256,64,65
120 139 m 256,72,73
 120 115 120 115 97 115 c 0,74,75
 73 115 73 115 73 139 c 256,76,77
 73 163 73 163 97 163 c 0,78,79
 120 163 120 163 120 139 c 256,72,73
172 61 m 256,80,81
 172 37 172 37 148 37 c 256,82,83
 124 37 124 37 124 61 c 256,84,85
 124 85 124 85 148 85 c 256,86,87
 172 85 172 85 172 61 c 256,80,81
250 10 m 0,88,89
 250 -12 250 -12 226 -12 c 256,90,91
 202 -12 202 -12 202 10 c 0,92,93
 202 34 202 34 226 34 c 256,94,95
 250 34 250 34 250 10 c 0,88,89
340 -8 m 0,96,97
 340 -30 340 -30 318 -30 c 0,98,99
 294 -30 294 -30 294 -8 c 0,100,101
 294 15 294 15 318 15 c 0,102,103
 340 15 340 15 340 -8 c 0,96,97
432 10 m 0,104,105
 432 -12 432 -12 408 -12 c 0,106,107
 385 -12 385 -12 385 10 c 0,108,109
 385 34 385 34 408 34 c 0,110,111
 432 34 432 34 432 10 c 0,104,105
510 61 m 256,112,113
 510 37 510 37 486 37 c 256,114,115
 462 37 462 37 462 61 c 256,116,117
 462 85 462 85 486 85 c 256,118,119
 510 85 510 85 510 61 c 256,112,113
561 139 m 256,120,121
 561 115 561 115 538 115 c 0,122,123
 514 115 514 115 514 139 c 256,124,125
 514 163 514 163 538 163 c 0,126,127
 561 163 561 163 561 139 c 256,120,121
EndSplineSet
EndChar

StartChar: u1039
Encoding: 4153 4153 73
Width: 55
GlyphClass: 2
Flags: W
LayerCount: 2
Fore
SplineSet
0 -266 m 256,0,1
 0 -283 0 -283 -17 -283 c 256,2,3
 -34 -283 -34 -283 -34 -266 c 256,4,5
 -34 -249 -34 -249 -17 -249 c 256,6,7
 0 -249 0 -249 0 -266 c 256,0,1
-13 -203 m 0,8,9
 -13 -219 -13 -219 -29 -219 c 0,10,11
 -46 -219 -46 -219 -46 -203 c 0,12,13
 -46 -186 -46 -186 -29 -186 c 0,14,15
 -13 -186 -13 -186 -13 -203 c 0,8,9
-49 -149 m 256,16,17
 -49 -166 -49 -166 -66 -166 c 256,18,19
 -83 -166 -83 -166 -83 -149 c 256,20,21
 -83 -132 -83 -132 -66 -132 c 256,22,23
 -49 -132 -49 -132 -49 -149 c 256,16,17
-104 -112 m 256,24,25
 -104 -129 -104 -129 -120 -129 c 0,26,27
 -137 -129 -137 -129 -137 -112 c 256,28,29
 -137 -95 -137 -95 -120 -95 c 0,30,31
 -104 -95 -104 -95 -104 -112 c 256,24,25
-168 -100 m 0,32,33
 -168 -116 -168 -116 -183 -116 c 0,34,35
 -200 -116 -200 -116 -200 -100 c 0,36,37
 -200 -83 -200 -83 -183 -83 c 0,38,39
 -168 -83 -168 -83 -168 -100 c 0,32,33
-231 -112 m 256,40,41
 -231 -129 -231 -129 -248 -129 c 256,42,43
 -265 -129 -265 -129 -265 -112 c 256,44,45
 -265 -95 -265 -95 -248 -95 c 256,46,47
 -231 -95 -231 -95 -231 -112 c 256,40,41
-286 -149 m 256,48,49
 -286 -166 -286 -166 -302 -166 c 0,50,51
 -319 -166 -319 -166 -319 -149 c 256,52,53
 -319 -132 -319 -132 -302 -132 c 0,54,55
 -286 -132 -286 -132 -286 -149 c 256,48,49
-322 -203 m 0,56,57
 -322 -219 -322 -219 -338 -219 c 0,58,59
 -355 -219 -355 -219 -355 -203 c 0,60,61
 -355 -186 -355 -186 -338 -186 c 0,62,63
 -322 -186 -322 -186 -322 -203 c 0,56,57
-335 -266 m 256,64,65
 -335 -283 -335 -283 -351 -283 c 256,66,67
 -367 -283 -367 -283 -368 -266 c 1,68,69
 -366 -249 -366 -249 -351 -249 c 0,70,71
 -335 -249 -335 -249 -335 -266 c 256,64,65
-322 -331 m 0,72,73
 -322 -347 -322 -347 -338 -347 c 0,74,75
 -355 -347 -355 -347 -355 -331 c 0,76,77
 -355 -314 -355 -314 -338 -314 c 0,78,79
 -322 -314 -322 -314 -322 -331 c 0,72,73
-286 -385 m 256,80,81
 -286 -402 -286 -402 -302 -402 c 0,82,83
 -319 -402 -319 -402 -319 -385 c 256,84,85
 -319 -368 -319 -368 -302 -368 c 0,86,87
 -286 -368 -286 -368 -286 -385 c 256,80,81
-231 -421 m 0,88,89
 -231 -436 -231 -436 -248 -436 c 256,90,91
 -265 -436 -265 -436 -265 -421 c 0,92,93
 -265 -404 -265 -404 -248 -404 c 256,94,95
 -231 -404 -231 -404 -231 -421 c 0,88,89
-168 -434 m 0,96,97
 -168 -449 -168 -449 -183 -449 c 0,98,99
 -200 -449 -200 -449 -200 -434 c 0,100,101
 -200 -417 -200 -417 -183 -417 c 0,102,103
 -168 -417 -168 -417 -168 -434 c 0,96,97
-104 -421 m 0,104,105
 -104 -436 -104 -436 -120 -436 c 0,106,107
 -137 -436 -137 -436 -137 -421 c 0,108,109
 -137 -404 -137 -404 -120 -404 c 0,110,111
 -104 -404 -104 -404 -104 -421 c 0,104,105
-49 -385 m 256,112,113
 -49 -402 -49 -402 -66 -402 c 256,114,115
 -83 -402 -83 -402 -83 -385 c 256,116,117
 -83 -368 -83 -368 -66 -368 c 256,118,119
 -49 -368 -49 -368 -49 -385 c 256,112,113
-13 -331 m 0,120,121
 -13 -347 -13 -347 -29 -347 c 0,122,123
 -46 -347 -46 -347 -46 -331 c 0,124,125
 -46 -314 -46 -314 -29 -314 c 0,126,127
 -13 -314 -13 -314 -13 -331 c 0,120,121
EndSplineSet
EndChar

